{
.appVersion = "3242";
.storedFileType = "public.truetype-ttf-font";
.formatVersion = 3;
customParameters = (
{
name = vendorID;
value = QWBW2;
},
{
name = panose;
value = (
2,
1,
5,
0,
0,
0,
0,
0,
0,
0
);
},
{
name = unicodeRanges;
value = (
0,
5,
13,
31,
40,
45,
60,
63,
67
);
},
{
name = fsType;
value = (
);
},
{
name = glyphOrder;
value = (
.notdef,
space,
parenleft,
parenright,
hyphen,
circumflex,
caron,
u060C,
u0610,
u0611,
u0613,
u0614,
u0615,
u0617,
u061B,
u061F,
u0621,
u0622,
u0623,
u0624,
u0625,
u0626,
u0627,
u0628,
u0629,
u062A,
u062B,
u062C,
u062D,
u062E,
u062F,
u0630,
u0631,
u0632,
u0633,
u0634,
u0635,
u0636,
u0637,
u0638,
u0639,
u063A,
u0640,
u0641,
u0642,
u0643,
u0644,
u0645,
u0646,
u0647,
u0648,
u0649,
u064A,
u064B,
u064C,
u064D,
u064E,
u064F,
u0650,
u0651,
u0652,
u0653,
u0654,
u0655,
u0656,
u0657,
u065A,
u0660,
u0661,
u0662,
u0663,
u0664,
u0665,
u0666,
u0667,
u0668,
u0669,
u066A,
u066D,
u066E,
u0670,
u0671,
u0672,
u0679,
u067C,
u067E,
u0681,
u0685,
u0686,
u0688,
u0689,
u0691,
u0693,
u0696,
u0698,
u069A,
u06A4,
u06A9,
u06AA,
u06AB,
u06BA,
u06BC,
u06BE,
u06C1,
u06CC,
u06CD,
u06D0,
u06D2,
u06D4,
u06D5,
u06D6,
u06D7,
u06D8,
u06D9,
u06DA,
u06DB,
u06DC,
u06DD,
u06DE,
u06DF,
u06E0,
u06E1,
u06E2,
u06E3,
u06E4,
u06E5,
u06E6,
u06E7,
u06E8,
u06E9,
u06EA,
u06EB,
u06EC,
u06ED,
u06F0,
u06F1,
u06F2,
u06F3,
u06F4,
u06F5,
u06F6,
u06F7,
u06F8,
u06F9,
u200C,
u200D,
u200E,
u200F,
u2010,
u2011,
endash,
emdash,
u2421,
u25CC,
uniE00E,
uniE00F,
uniE010,
uniE011,
uniE012,
uniE013,
uniE014,
uniE015,
uniE016,
uniE017,
uniE018,
uniE019,
uniE01A,
uniE01B,
uniE01C,
uniE01D,
uniE01E,
uniE01F,
uniE020,
uniE021,
uniE022,
uniE023,
uniE811,
uniE812,
uniE813,
uniE814,
uniE815,
uniE816,
uniE817,
uniE818,
uniE820,
uniE821,
uniE822,
uniE823,
uniE824,
uniE825,
uniE826,
uniE827,
uniE828,
uniE829,
uniE82A,
uniE82B,
uniE82C,
uniE82D,
uniE835,
uniE836,
uniF500,
uniF501,
uniF502,
uniF503,
uniF504,
uniF505,
uniF506,
uniF507,
uniF508,
uniF509,
uniF50A,
uniF50B,
uniF50C,
uniF50D,
uniF50E,

glyphs = (
{
glyphname = .notdef;
layers = (
{
.lastUpdate = 730757475.31;
layerId = m01;
shapes = (
{
closed = 1;
nodes = (
(896,1825,l),
(128,1825,l),
(128,0,l),
(896,0,l)
);
},
{
closed = 1;
nodes = (
(768,1697,l),
(768,128,l),
(256,128,l),
(256,1697,l)
);
}
);
width = 1024;
}
);
note = .notdef;
},
{
glyphname = circumflex;
layers = (
{
.lastUpdate = 730757475.31;
layerId = m01;
shapes = (
{
closed = 1;
nodes = (
(373,1528,l),
(315,1528,l),
(94,1159,l),
(94,1124,l),
(336,1380,l),
(590,1124,l),
(590,1159,l)
);
}
);
width = 682;
}
);
note = circumflex;
unicode = 710;
},
{
glyphname = caron;
layers = (
{
.lastUpdate = 730757475.31;
layerId = m01;
shapes = (
{
closed = 1;
nodes = (
(346,1272,l),
(92,1528,l),
(92,1493,l),
(309,1124,l),
(367,1124,l),
(588,1493,l),
(588,1528,l)
);
}
);
width = 682;
}
);
note = caron;
unicode = 711;
},
{
glyphname = u060C;
layers = (
{
.lastUpdate = 730757475.31;
layerId = m01;
shapes = (
{
closed = 1;
nodes = (
(333,203,o),
(283,203,q),
(275,179,o),
(272,165,q),
(261,165,l),
(261,213,o),
(259,232,q),
(267,273,o),
(293,330,qs),
(315,379,o),
(315,407,q),
(302,407,o),
(296,401,qs),
(274,381,o),
(245,310,qs),
(222,251,o),
(200,192,q),
(202,168,o),
(202,114,q),
(226,81,o),
(237,55,q),
(264,46,o),
(284,46,qs),
(343,46,o),
(358,136,q),
(358,183,o)
);
}
);
width = 569;
}
);
note = u060C;
unicode = 1548;
},
{
glyphname = u0610;
layers = (
{
.lastUpdate = 730757475.31;
layerId = m01;
shapes = (
{
closed = 1;
nodes = (
(-543,1045,o),
(-518,1057,q),
(-503,1067,o),
(-462,1057,o),
(-456,1044,q),
(-465,1028,o),
(-504,1005,o),
(-550,991,o),
(-584,986,o),
(-584,986,q),
(-575,998,o)
);
},
{
closed = 1;
nodes = (
(-774,884,o),
(-739,902,o),
(-711,932,o),
(-697,950,q),
(-695,923,o),
(-659,884,o),
(-615,883,qs),
(-581,883,o),
(-514,910,o),
(-465,958,o),
(-434,1022,o),
(-434,1060,qs),
(-434,1084,o),
(-460,1116,o),
(-489,1118,qs),
(-503,1118,o),
(-530,1105,o),
(-552,1084,o),
(-572,1062,o),
(-578,1051,qs),
(-580,1048,o),
(-592,1030,o),
(-605,1011,o),
(-617,993,o),
(-618,990,q),
(-627,989,o),
(-642,999,o),
(-653,1009,o),
(-662,1017,o),
(-667,1017,q),
(-673,1015,o),
(-681,1007,o),
(-692,995,o),
(-709,980,o),
(-726,970,qs),
(-780,943,o),
(-886,921,o),
(-940,912,qs),
(-966,906,o),
(-964,884,o),
(-943,879,qs),
(-915,875,o),
(-876,874,o),
(-848,874,qs),
(-817,875,o)
);
}
);
width = 0;
}
);
note = u0610;
unicode = 1552;
},
{
glyphname = u0611;
layers = (
{
.lastUpdate = 730757475.311;
layerId = m01;
shapes = (
{
closed = 1;
nodes = (
(2625,1451,qs),
(2622,1452,o),
(2576,1423,qs),
(2529,1389,o),
(2271,1270,q),
(2259,1261,o),
(2257,1257,qs),
(2246,1227,o),
(2216,1163,qs),
(2214,1158,o),
(2213,1153,q),
(2213,1141,o),
(2230,1143,q),
(2526,1282,o),
(2536,1289,qs),
(2556,1302,o),
(2565,1308,q),
(2610,1382,o),
(2627,1424,q),
(2640,1448,o)
);
},
{
closed = 1;
nodes = (
(3100,1052,o),
(3108,1066,q),
(3111,1095,o),
(3068,1199,qs),
(3055,1235,o),
(3048,1254,qs),
(3044,1266,o),
(3032,1254,q),
(3029,1248,o),
(3024,1238,q),
(2999,1163,o),
(3006,1083,qs),
(3008,1058,ls),
(3047,562,o),
(3056,351,qs),
(3071,86,o),
(3069,36,q),
(3070,22,o),
(3077,18,q),
(3090,20,o),
(3093,28,qs),
(3132,121,o),
(3137,234,q),
(3082,1014,l)
);
},
{
closed = 1;
nodes = (
(1637,1810,q),
(1627,1791,o),
(1622,1782,q),
(1614,1774,o),
(1602,1777,q),
(1582,1793,o),
(1575,1821,o),
(1575,1835,qs),
(1575,1853,o),
(1611,1981,q),
(1610,1983,o),
(1608,1983,q),
(1579,1923,o),
(1570,1891,q),
(1551,1785,o),
(1572,1750,q),
(1581,1740,o),
(1600,1736,q),
(1620,1741,o),
(1631,1764,qs),
(1636,1775,o),
(1643,1805,q),
(1643,1814,o)
);
},
{
closed = 1;
nodes = (
(1705,1736,q),
(1687,1729,o),
(1670,1685,o),
(1663,1664,q),
(1654,1648,o),
(1642,1567,o),
(1632,1550,q),
(1622,1576,o),
(1617,1596,q),
(1582,1661,o),
(1528,1669,q),
(1511,1632,o),
(1512,1607,q),
(1566,1577,o),
(1573,1570,q),
(1582,1579,l),
(1617,1540,o),
(1623,1480,q),
(1631,1480,l),
(1664,1593,o),
(1674,1653,q),
(1693,1683,o),
(1697,1683,qs),
(1715,1681,o),
(1736,1650,q),
(1749,1692,o),
(1747,1709,q),
(1733,1733,o)
);
},
{
closed = 1;
nodes = (
(2589,392,qs),
(2540,373,o),
(2501,373,qs),
(2479,373,o),
(2458,378,q),
(2457,380,o),
(2442,385,o),
(2443,392,q),
(2528,447,o),
(2574,467,q),
(2601,476,o),
(2603,508,q),
(2602,507,o),
(2561,488,qs),
(2535,475,o),
(2514,478,q),
(2496,483,o),
(2477,507,q),
(2487,516,o),
(2497,522,qs),
(2506,526,o),
(2520,515,q),
(2543,532,o),
(2542,549,q),
(2535,557,l),
(2486,555,o),
(2448,488,q),
(2445,476,o),
(2458,463,qs),
(2469,454,o),
(2480,445,q),
(2417,385,o),
(2417,359,q),
(2436,342,o),
(2449,339,q),
(2593,329,o),
(2671,426,q),
(2630,409,o)
);
},
{
closed = 1;
nodes = (
(2672,851,qs),
(2672,858,o),
(2666,858,qs),
(2659,858,o),
(2647,849,qs),
(2592,813,o),
(2546,782,q),
(2500,763,o),
(2460,763,qs),
(2399,763,o),
(2363,801,qs),
(2334,832,o),
(2334,880,qs),
(2334,914,o),
(2348,947,q),
(2383,992,o),
(2449,992,qs),
(2493,992,o),
(2545,969,qs),
(2576,956,o),
(2593,956,qs),
(2611,956,o),
(2607,971,qs),
(2601,998,o),
(2558,1033,qs),
(2505,1076,o),
(2449,1076,qs),
(2406,1076,o),
(2367,1050,qs),
(2275,990,o),
(2275,826,qs),
(2275,788,o),
(2282,746,q),
(2162,760,o),
(2151,962,qs),
(2150,984,o),
(2100,1654,o),
(2098,1669,qs),
(2096,1691,o),
(2088,1691,qs),
(2079,1691,o),
(2064,1659,q),
(2039,1595,o),
(2039,1584,q),
(2029,1536,o),
(2033,1492,qs),
(2083,872,ls),
(2087,829,o),
(2089,816,q),
(2087,816,o),
(2087,815,qs),
(2075,764,o),
(2024,745,q),
(2024,747,l),
(2014,743,o),
(2001,739,qs),
(1997,738,ls),
(1970,731,o),
(1945,731,qs),
(1856,731,o),
(1826,814,q),
(1820,866,o),
(1807,866,qs),
(1791,866,o),
(1770,801,q),
(1738,726,o),
(1634,729,q),
(1568,739,o),
(1535,775,qs),
(1447,872,o),
(1433,1143,q),
(1417,1187,o),
(1403,1187,qs),
(1388,1187,o),
(1379,1132,qs),
(1369,1068,o),
(1370,1070,q),
(1371,1062,l),
(1122,966,o),
(1078,863,qs),
(1048,793,o),
(1048,731,qs),
(1048,703,o),
(1054,676,q),
(1061,660,o),
(1072,652,qs),
(1111,621,o),
(1176,624,qs),
(1196,624,o),
(1217,627,q),
(1203,590,o),
(1197,571,q),
(1178,465,o),
(1199,430,q),
(1208,420,o),
(1228,415,q),
(1248,420,o),
(1259,443,qs),
(1264,454,o),
(1271,485,q),
(1271,494,o),
(1265,490,q),
(1254,471,o),
(1250,461,q),
(1242,454,o),
(1230,457,q),
(1210,473,o),
(1205,487,q),
(1197,535,o),
(1229,629,q),
(1330,645,o),
(1370,685,q),
(1411,734,o),
(1427,771,q),
(1483,579,o),
(1625,579,q),
(1635,580,o),
(1649,584,qs),
(1782,617,o),
(1819,703,q),
(1838,652,o),
(1882,620,qs),
(1911,599,o),
(1968,602,q),
(1997,609,ls),
(2013,613,o),
(2034,623,q),
(2082,654,o),
(2114,729,q),
(2156,635,o),
(2249,596,qs),
(2288,579,o),
(2334,575,q),
(2509,575,o),
(2641,740,q),
(2659,795,o),
(2670,840,qs),
(2672,846,o)
);
},
{
closed = 1;
nodes = (
(1343,1372,q),
(1193,1303,o),
(1121,1303,qs),
(1095,1303,o),
(1069,1309,q),
(1080,1336,o),
(1115,1362,qs),
(1163,1398,o),
(1172,1408,q),
(1176,1407,o),
(1218,1396,qs),
(1247,1389,o),
(1268,1390,qs),
(1281,1392,o),
(1288,1406,qs),
(1291,1412,o),
(1297,1432,qs),
(1301,1448,o),
(1301,1462,qs),
(1301,1506,o),
(1256,1547,q),
(1216,1578,o),
(1175,1610,q),
(1177,1591,o),
(1160,1568,qs),
(1135,1534,o),
(1132,1522,o),
(1123,1494,qs),
(1115,1472,o),
(1115,1458,qs),
(1115,1437,o),
(1131,1421,q),
(1078,1389,o),
(1043,1301,q),
(1043,1297,o),
(1038,1270,o),
(1040,1264,qs),
(1042,1255,o),
(1053,1252,qs),
(1076,1248,o),
(1099,1248,qs),
(1195,1248,o),
(1341,1327,q),
(1373,1353,o),
(1404,1378,qs),
(1440,1411,o),
(1442,1443,q),
(1402,1406,o)
);
},
{
closed = 1;
nodes = (
(2168,359,q),
(2155,336,o),
(2149,324,q),
(2140,315,o),
(2125,319,q),
(2113,320,o),
(2105,333,qs),
(2101,339,o),
(2092,373,o),
(2092,390,qs),
(2092,428,o),
(2108,480,qs),
(2122,523,o),
(2136,566,q),
(2134,568,o),
(2132,569,q),
(2097,496,o),
(2086,457,q),
(2072,380,o),
(2072,355,qs),
(2072,313,o),
(2088,286,q),
(2099,274,o),
(2122,268,q),
(2147,275,o),
(2160,303,qs),
(2166,316,o),
(2175,353,q),
(2175,364,o)
);
},
{
closed = 1;
nodes = (
(2866,1177,o),
(2875,1191,q),
(2877,1221,o),
(2834,1325,qs),
(2821,1360,o),
(2814,1380,qs),
(2810,1391,o),
(2798,1380,q),
(2781,1350,o),
(2767,1297,q),
(2765,1292,o),
(2766,1287,q),
(2800,878,o),
(2825,382,qs),
(2833,250,o),
(2836,162,q),
(2826,148,o),
(2817,144,q),
(2816,144,o),
(2815,143,q),
(2807,140,o),
(2790,145,q),
(2732,181,o),
(2716,205,q),
(2708,221,o),
(2712,242,q),
(2711,265,o),
(2706,270,q),
(2692,270,o),
(2682,240,qs),
(2680,235,o),
(2675,185,q),
(2658,151,o),
(2642,144,q),
(2641,144,o),
(2640,143,q),
(2632,140,o),
(2615,145,q),
(2557,181,o),
(2541,205,q),
(2537,213,o),
(2536,224,q),
(2543,254,l),
(2541,263,o),
(2538,271,q),
(2524,289,o),
(2515,282,q),
(2484,161,o),
(2449,146,q),
(2440,140,o),
(2419,146,q),
(2361,182,o),
(2345,206,q),
(2340,223,o),
(2345,244,q),
(2347,275,o),
(2341,280,q),
(2325,274,o),
(2315,242,qs),
(2307,219,o),
(2028,177,qs),
(1718,131,o),
(1453,131,qs),
(1301,131,o),
(1190,148,q),
(1157,156,o),
(1148,158,qs),
(943,206,o),
(936,387,q),
(859,1359,l),
(839,1521,o),
(825,1598,qs),
(822,1610,o),
(810,1599,q),
(792,1569,o),
(778,1516,q),
(776,1511,o),
(777,1506,q),
(845,684,o),
(856,488,qs),
(862,373,o),
(866,287,q),
(865,252,o),
(865,242,qs),
(862,200,o),
(859,193,q),
(750,58,o),
(387,-59,qs),
(354,-70,o),
(354,-85,qs),
(354,-93,o),
(362,-100,q),
(378,-100,o),
(417,-100,qs),
(636,-100,o),
(767,-14,qs),
(873,55,o),
(912,197,q),
(934,85,o),
(1061,35,q),
(1119,17,o),
(1138,13,qs),
(1239,-4,o),
(1387,-4,qs),
(1655,-4,o),
(1950,45,qs),
(2238,94,o),
(2281,143,q),
(2302,95,o),
(2310,83,qs),
(2359,13,o),
(2408,7,qs),
(2437,4,o),
(2447,12,qs),
(2461,23,o),
(2491,86,qs),
(2490,83,l),
(2494,88,o),
(2496,88,q),
(2502,82,l),
(2515,59,o),
(2545,35,qs),
(2578,8,o),
(2601,5,qs),
(2630,2,o),
(2652,20,o),
(2680,77,q),
(2723,11,o),
(2776,5,qs),
(2805,2,o),
(2815,10,qs),
(2830,22,o),
(2864,97,q),
(2865,101,l),
(2902,176,o),
(2906,265,q),
(2848,1140,l)
);
},
{
closed = 1;
nodes = (
(1798,514,q),
(1730,425,o),
(1722,386,q),
(1800,337,o),
(1827,318,q),
(1897,412,o),
(1907,451,q),
(1862,480,o)
);
},
{
closed = 1;
nodes = (
(1595,482,q),
(1528,392,o),
(1520,354,q),
(1598,304,o),
(1624,286,q),
(1695,380,o),
(1704,419,q),
(1659,448,o)
);
},
{
closed = 1;
nodes = (
(644,1206,q),
(631,1182,o),
(626,1171,q),
(616,1162,o),
(602,1165,qs),
(590,1167,o),
(582,1179,qs),
(577,1186,o),
(571,1202,q),
(569,1219,o),
(569,1236,qs),
(569,1275,o),
(584,1326,qs),
(598,1369,o),
(613,1413,q),
(611,1414,o),
(609,1415,q),
(574,1342,o),
(562,1303,q),
(548,1226,o),
(548,1201,qs),
(548,1160,o),
(565,1133,q),
(575,1120,o),
(599,1115,q),
(624,1121,o),
(637,1149,qs),
(643,1162,o),
(652,1200,q),
(651,1211,o)
);
},
{
closed = 1;
nodes = (
(2333,-46,q),
(2326,-42,o),
(2322,-50,q),
(2310,-102,o),
(2294,-109,q),
(2292,-111,o),
(2285,-110,qs),
(2284,-110,o),
(2281,-109,q),
(2253,-94,o),
(2246,-83,qs),
(2244,-79,o),
(2243,-74,q),
(2246,-61,l),
(2244,-56,o),
(2243,-53,q),
(2236,-45,o),
(2233,-48,q),
(2220,-104,o),
(2205,-112,qs),
(2200,-115,o),
(2190,-112,q),
(2163,-97,o),
(2156,-86,q),
(2153,-78,o),
(2155,-68,q),
(2155,-54,o),
(2153,-52,q),
(2146,-55,o),
(2138,-82,o),
(1993,-108,qs),
(1833,-136,o),
(1708,-136,qs),
(1670,-136,o),
(1639,-133,q),
(1629,-135,o),
(1577,-137,qs),
(1566,-137,o),
(1565,-141,q),
(1565,-154,o),
(1696,-198,q),
(1820,-197,o),
(1966,-168,qs),
(2107,-140,o),
(2127,-116,q),
(2135,-134,o),
(2142,-143,qs),
(2165,-174,o),
(2188,-176,qs),
(2201,-177,o),
(2212,-168,o),
(2224,-138,q),
(2224,-140,l),
(2226,-137,o),
(2228,-138,q),
(2229,-140,o),
(2230,-140,q),
(2249,-172,o),
(2278,-174,qs),
(2291,-175,o),
(2295,-171,qs),
(2304,-164,o),
(2319,-124,q),
(2332,-79,o),
(2335,-59,qs),
(2336,-47,o)
);
},
{
closed = 1;
nodes = (
(708,1039,q),
(694,1032,o),
(682,1024,qs),
(658,1007,o),
(523,944,q),
(516,939,o),
(515,937,qs),
(509,922,o),
(494,888,qs),
(489,877,o),
(501,878,q),
(656,951,o),
(661,954,qs),
(672,961,o),
(677,964,q),
(700,1003,o),
(709,1025,q),
(716,1037,o)
);
},
{
closed = 1;
nodes = (
(1332,416,q),
(1314,409,o),
(1305,385,qs),
(1298,365,o),
(1290,344,qs),
(1282,327,o),
(1270,247,o),
(1260,230,q),
(1250,255,o),
(1245,276,q),
(1210,341,o),
(1156,349,q),
(1139,312,o),
(1140,286,q),
(1194,257,o),
(1201,250,q),
(1210,259,l),
(1244,220,o),
(1251,160,q),
(1258,160,l),
(1292,272,o),
(1301,333,q),
(1321,362,o),
(1325,362,qs),
(1343,361,o),
(1364,330,q),
(1376,372,o),
(1375,388,q),
(1361,413,o)
);
},
{
closed = 1;
nodes = (
(787,364,qs),
(787,606,o),
(579,740,q),
(329,878,l),
(319,883,ls),
(309,889,o),
(296,874,q),
(286,829,o),
(288,748,q),
(287,726,o),
(300,713,q),
(324,678,o),
(389,639,qs),
(404,630,o),
(416,630,qs),
(432,630,o),
(440,644,q),
(474,649,l),
(625,572,o),
(688,452,qs),
(723,384,o),
(723,271,o),
(733,216,q),
(740,200,o),
(748,200,qs),
(759,200,o),
(767,224,q),
(783,300,l),
(787,332,o)
);
},
{
closed = 1;
nodes = (
(244,1282,qs),
(189,1306,o),
(122,1267,q),
(82,1234,o),
(71,1208,qs),
(52,1165,o),
(60,1135,q),
(68,1116,o),
(80,1116,qs),
(83,1116,o),
(126,1145,q),
(156,1161,o),
(179,1161,qs),
(207,1161,o),
(225,1136,qs),
(231,1128,o),
(232,1124,qs),
(232,1120,o),
(214,1117,qs),
(182,1112,o),
(155,1102,q),
(34,1045,o),
(43,886,qs),
(52,736,o),
(102,521,qs),
(165,245,o),
(170,-107,qs),
(171,-121,o),
(172,-122,qs),
(182,-136,o),
(195,-100,qs),
(237,16,o),
(237,155,qs),
(237,345,o),
(184,608,qs),
(149,764,o),
(114,920,q),
(154,955,o),
(226,966,qs),
(291,973,o),
(356,979,q),
(423,1032,o),
(425,1131,q),
(343,1240,o)
);
},
{
closed = 1;
nodes = (
(587,348,q),
(558,358,o),
(531,366,q),
(507,357,o),
(478,321,qs),
(467,306,o),
(455,286,q),
(455,285,l),
(414,247,o),
(340,221,qs),
(330,217,o),
(330,213,q),
(331,210,o),
(340,208,q),
(364,210,o),
(405,216,q),
(412,218,o),
(417,221,o),
(421,224,qs),
(449,248,o),
(464,270,q),
(523,222,o),
(554,209,q),
(559,209,o),
(561,211,qs),
(607,272,o),
(590,340,q),
(587,346,o)
);
},
{
closed = 1;
nodes = (
(1209,1460,q),
(1204,1476,o),
(1220,1507,q),
(1264,1478,o),
(1275,1454,q),
(1263,1445,o)
);
},
{
closed = 1;
nodes = (
(1177,1465,q),
(1140,1479,o),
(1135,1485,q),
(1139,1508,o),
(1177,1529,q),
(1194,1521,o),
(1198,1494,q),
(1186,1474,o)
);
},
{
closed = 1;
nodes = (
(1261,777,qs),
(1215,769,o),
(1158,768,q),
(1108,784,o),
(1100,799,q),
(1129,866,o),
(1260,928,qs),
(1314,954,o),
(1385,977,q),
(1407,851,l),
(1372,798,o)
);
},
{
closed = 1;
nodes = (
(503,305,q),
(518,320,o),
(535,320,qs),
(543,320,o),
(551,316,q),
(570,296,o),
(562,264,q),
(512,291,o)
);
},
{
closed = 1;
nodes = (
(1721,1314,qs),
(1702,1310,o),
(1692,1300,q),
(1664,1252,o),
(1652,1218,q),
(1655,1211,o),
(1664,1214,q),
(1761,1235,o),
(1783,1191,q),
(1773,1171,o),
(1706,1140,qs),
(1621,1102,o),
(1606,1084,q),
(1603,1077,o),
(1604,1073,qs),
(1606,1061,o),
(1628,1066,q),
(1706,1078,o),
(1758,1112,qs),
(1803,1143,o),
(1845,1226,qs),
(1868,1267,o),
(1855,1284,qs),
(1814,1334,o)
);
}
);
width = 3174;
}
);
note = u0611;
unicode = (1553,57345);
},
{
glyphname = u0613;
layers = (
{
.lastUpdate = 730757475.311;
layerId = m01;
shapes = (
{
closed = 1;
nodes = (
(2221,1674,qs),
(2202,1671,o),
(2194,1650,qs),
(2166,1564,o),
(2154,1520,q),
(2134,1611,o),
(2062,1622,q),
(2044,1581,o),
(2044,1558,q),
(2053,1559,o),
(2083,1538,o),
(2089,1538,qs),
(2094,1538,o),
(2099,1541,q),
(2127,1516,o),
(2136,1483,q),
(2145,1468,o),
(2139,1447,qs),
(2134,1430,o),
(2129,1413,q),
(2133,1414,o),
(2153,1432,o),
(2164,1428,q),
(2187,1410,o),
(2186,1404,q),
(2131,1404,o),
(2107,1361,q),
(2092,1322,o),
(2092,1278,qs),
(2092,1232,o),
(2139,1051,o),
(2139,1003,qs),
(2139,985,o),
(2137,968,q),
(2151,1007,o),
(2151,1052,qs),
(2151,1096,o),
(2135,1165,qs),
(2114,1258,o),
(2107,1291,o),
(2107,1303,qs),
(2107,1342,o),
(2246,1358,o),
(2252,1397,q),
(2229,1448,o),
(2197,1474,q),
(2171,1480,o),
(2156,1476,q),
(2163,1495,o),
(2175,1549,qs),
(2184,1595,o),
(2198,1619,q),
(2210,1624,o),
(2240,1603,q),
(2240,1603,o),
(2249,1625,qs),
(2255,1639,o),
(2253,1651,q),
(2244,1679,o)
);
},
{
closed = 1;
nodes = (
(1256,2251,qs),
(1248,2251,o),
(1239,2236,q),
(1212,2147,o),
(1211,2129,q),
(1210,2127,o),
(1213,2110,q),
(1247,1983,o),
(1239,1866,qs),
(1238,1850,o),
(1244,1850,qs),
(1249,1850,o),
(1259,1862,q),
(1304,1951,o),
(1304,2055,qs),
(1304,2143,o),
(1272,2233,qs),
(1265,2251,o)
);
},
{
closed = 1;
nodes = (
(2589,1004,q),
(2587,1005,o),
(2541,977,q),
(2494,943,o),
(2236,823,q),
(2224,814,o),
(2222,810,qs),
(2210,781,o),
(2181,716,qs),
(2179,711,o),
(2178,706,q),
(2178,695,o),
(2195,697,q),
(2491,835,o),
(2501,842,qs),
(2521,855,o),
(2530,861,q),
(2574,936,o),
(2592,978,q),
(2605,1001,o)
);
},
{
closed = 1;
nodes = (
(1829,1710,o),
(1838,1724,q),
(1840,1753,o),
(1797,1857,qs),
(1784,1893,o),
(1777,1912,qs),
(1773,1924,o),
(1762,1912,q),
(1758,1906,o),
(1753,1896,q),
(1729,1821,o),
(1735,1741,qs),
(1737,1716,ls),
(1776,1227,o),
(1776,1217,qs),
(1792,952,o),
(1789,902,q),
(1791,889,o),
(1798,885,q),
(1810,886,o),
(1814,894,qs),
(1852,988,o),
(1857,1101,q),
(1811,1672,l)
);
},
{
closed = 1;
nodes = (
(1390,1800,qs),
(1387,1812,o),
(1383,1814,q),
(1378,1814,o),
(1373,1801,q),
(1365,1787,o),
(1359,1770,qs),
(1356,1759,o),
(1356,1757,q),
(1355,1754,o),
(1357,1738,qs),
(1376,1618,l),
(1358,1598,o),
(1318,1600,q),
(1290,1607,o),
(1283,1652,q),
(1280,1700,o),
(1279,1735,qs),
(1275,1788,o),
(1262,1788,qs),
(1258,1788,o),
(1254,1783,q),
(1239,1747,o),
(1235,1722,qs),
(1234,1717,o),
(1240,1625,q),
(1238,1605,o),
(1233,1602,qs),
(1207,1588,o),
(1196,1585,q),
(1181,1585,o),
(1170,1590,qs),
(1156,1595,o),
(1154,1614,qs),
(1150,1667,o),
(1156,1750,q),
(1154,1766,o),
(1140,1760,q),
(1129,1744,o),
(1124,1731,qs),
(1114,1701,o),
(1118,1591,qs),
(1120,1508,o),
(1157,1502,qs),
(1205,1493,o),
(1237,1514,q),
(1259,1544,o),
(1263,1562,q),
(1280,1535,o),
(1295,1517,q),
(1363,1535,o),
(1380,1551,q),
(1422,1606,o),
(1406,1715,qs),
(1397,1762,o)
);
},
{
closed = 1;
nodes = (
(1961,880,q),
(1893,790,o),
(1885,751,q),
(1963,702,o),
(1990,683,q),
(2060,777,o),
(2070,816,q),
(2025,845,o)
);
},
{
closed = 1;
nodes = (
(871,1578,q),
(721,1509,o),
(649,1509,qs),
(622,1509,o),
(597,1515,q),
(607,1542,o),
(643,1568,qs),
(690,1604,o),
(700,1614,q),
(703,1613,o),
(746,1602,qs),
(774,1595,o),
(795,1596,qs),
(808,1598,o),
(816,1612,qs),
(819,1618,o),
(824,1638,qs),
(829,1654,o),
(829,1668,qs),
(829,1712,o),
(784,1753,q),
(743,1784,o),
(703,1816,q),
(705,1797,o),
(688,1774,qs),
(663,1740,o),
(659,1728,o),
(650,1700,qs),
(643,1678,o),
(643,1664,qs),
(643,1643,o),
(659,1627,q),
(606,1595,o),
(571,1507,q),
(571,1504,o),
(566,1476,o),
(567,1470,qs),
(570,1461,o),
(580,1458,q),
(603,1454,o),
(626,1454,qs),
(723,1454,o),
(869,1533,q),
(900,1559,o),
(932,1584,q),
(967,1617,o),
(970,1649,q),
(930,1612,o)
);
},
{
closed = 1;
nodes = (
(1530,1543,q),
(1527,1559,o),
(1521,1559,qs),
(1515,1559,o),
(1507,1538,qs),
(1484,1464,o),
(1482,1438,qs),
(1479,1392,o),
(1489,1353,qs),
(1525,1222,o),
(1550,1133,qs),
(1561,1097,o),
(1562,1073,q),
(1567,1055,o),
(1545,1042,qs),
(1499,1015,o),
(1457,1015,qs),
(1436,1015,o),
(1413,1020,q),
(1333,1067,o),
(1331,1145,qs),
(1330,1172,o),
(1316,1306,qs),
(1302,1437,o),
(1298,1458,qs),
(1293,1492,o),
(1283,1494,q),
(1283,1494,o),
(1283,1494,q),
(1275,1494,o),
(1265,1473,q),
(1239,1400,o),
(1241,1377,qs),
(1242,1364,o),
(1243,1335,qs),
(1244,1319,o),
(1273,1082,o),
(1273,1073,qs),
(1273,1036,o),
(1262,1019,q),
(1227,987,o),
(1180,987,qs),
(1132,987,o),
(1089,1074,o),
(1083,1124,qs),
(1052,1359,o),
(1047,1379,q),
(1042,1420,o),
(1033,1420,qs),
(1027,1420,o),
(1020,1397,q),
(1017,1394,o),
(1013,1380,qs),
(995,1318,o),
(996,1319,q),
(996,1312,l),
(737,1246,o),
(681,1150,qs),
(634,1068,o),
(634,991,qs),
(634,979,o),
(635,967,q),
(640,951,o),
(649,941,qs),
(684,906,o),
(749,900,qs),
(888,889,o),
(949,937,q),
(998,968,o),
(1023,1024,q),
(1062,865,o),
(1159,848,q),
(1269,860,o),
(1295,980,q),
(1321,918,o),
(1368,891,qs),
(1428,855,o),
(1518,894,qs),
(1620,937,o),
(1620,1122,qs),
(1620,1220,o),
(1589,1306,q),
(1533,1496,o)
);
},
{
closed = 1;
nodes = (
(1622,755,qs),
(1602,750,o),
(1593,741,q),
(1565,694,o),
(1554,662,q),
(1557,655,o),
(1565,657,qs),
(1661,678,o),
(1683,635,q),
(1673,615,o),
(1607,585,qs),
(1523,547,o),
(1509,530,q),
(1506,523,o),
(1507,518,qs),
(1509,507,o),
(1531,511,qs),
(1607,524,o),
(1658,558,qs),
(1702,587,o),
(1744,669,q),
(1750,700,o),
(1752,726,q),
(1713,775,o)
);
},
{
closed = 1;
nodes = (
(395,1477,q),
(384,1457,o),
(372,1440,o),
(360,1443,q),
(340,1460,o),
(332,1488,o),
(332,1502,qs),
(332,1520,o),
(369,1647,q),
(367,1649,o),
(366,1649,q),
(337,1589,o),
(327,1557,q),
(308,1451,o),
(329,1416,q),
(338,1406,o),
(357,1402,q),
(378,1407,o),
(388,1430,qs),
(394,1441,o),
(401,1472,q),
(401,1481,o)
);
},
{
closed = 1;
nodes = (
(462,1402,q),
(444,1396,o),
(427,1351,o),
(411,1314,o),
(400,1234,o),
(389,1216,q),
(380,1242,o),
(374,1262,q),
(340,1328,o),
(286,1335,q),
(268,1298,o),
(270,1273,q),
(324,1244,o),
(330,1236,q),
(340,1246,l),
(374,1206,o),
(381,1146,q),
(388,1147,l),
(421,1259,o),
(431,1320,q),
(451,1349,o),
(455,1349,qs),
(473,1347,o),
(494,1316,q),
(506,1359,o),
(504,1375,q),
(491,1399,o)
);
},
{
closed = 1;
nodes = (
(2579,334,qs),
(2579,348,o),
(2555,340,q),
(2434,313,o),
(2318,191,qs),
(2235,103,o),
(2179,-16,qs),
(2165,-44,o),
(2142,-73,qs),
(2113,-105,o),
(2106,-109,qs),
(2082,-120,o),
(2063,-120,qs),
(1978,-120,o),
(1978,44,qs),
(1978,104,o),
(1996,173,q),
(2115,188,o),
(2177,217,qs),
(2205,230,o),
(2244,262,qs),
(2287,298,o),
(2318,391,qs),
(2338,454,o),
(2341,490,qs),
(2343,504,o),
(2339,527,q),
(2324,559,o),
(2284,582,qs),
(2268,591,o),
(2247,598,qs),
(2199,610,o),
(2152,610,qs),
(2041,610,o),
(1898,484,o),
(1852,305,q),
(1730,308,o),
(1683,399,q),
(1674,430,o),
(1651,422,qs),
(1516,378,o),
(1443,265,qs),
(1413,218,o),
(1397,161,q),
(1387,110,o),
(1401,75,q),
(1412,38,o),
(1477,30,q),
(1599,40,o),
(1611,-2,q),
(1546,-110,o),
(1443,-167,q),
(1337,-213,o),
(1259,-213,qs),
(1180,-213,o),
(1114,-167,qs),
(1054,-125,o),
(1026,-48,qs),
(1003,14,o),
(1008,72,qs),
(1015,144,o),
(1053,256,q),
(1269,321,o),
(1362,351,qs),
(1383,359,o),
(1393,366,q),
(1414,411,o),
(1431,457,qs),
(1435,470,o),
(1435,478,qs),
(1435,481,o),
(1405,487,q),
(1261,440,o),
(1221,433,q),
(1122,434,o),
(1052,515,qs),
(1023,549,o),
(1003,596,q),
(1048,656,o),
(1135,656,qs),
(1186,656,o),
(1236,638,q),
(1252,651,o),
(1258,665,q),
(1199,711,o),
(1143,728,qs),
(1120,736,o),
(1099,737,q),
(1030,733,o),
(980,664,qs),
(959,635,o),
(944,595,q),
(940,574,o),
(940,547,qs),
(940,440,o),
(1011,377,q),
(1009,376,ls),
(970,361,o),
(930,361,qs),
(841,361,o),
(812,444,q),
(806,496,o),
(792,496,qs),
(777,496,o),
(756,431,q),
(723,356,o),
(620,358,q),
(553,369,o),
(521,405,qs),
(433,502,o),
(419,773,q),
(403,817,o),
(388,817,qs),
(373,817,o),
(365,762,qs),
(355,697,o),
(355,699,q),
(356,692,l),
(107,595,o),
(64,493,qs),
(34,423,o),
(34,361,qs),
(34,333,o),
(40,305,q),
(47,290,o),
(57,282,qs),
(97,251,o),
(161,253,qs),
(205,255,o),
(249,265,q),
(231,213,o),
(223,187,q),
(206,92,o),
(206,62,qs),
(206,11,o),
(226,-23,q),
(239,-38,o),
(268,-45,q),
(298,-37,o),
(314,-3,qs),
(322,14,o),
(333,60,q),
(333,73,o),
(323,67,q),
(308,38,o),
(301,24,q),
(289,13,o),
(271,18,q),
(257,19,o),
(247,35,qs),
(242,43,o),
(234,63,q),
(231,83,o),
(231,104,qs),
(231,159,o),
(268,270,q),
(329,288,o),
(356,314,q),
(396,363,o),
(413,401,q),
(468,209,o),
(610,209,q),
(621,210,o),
(635,213,qs),
(767,247,o),
(805,332,q),
(824,282,o),
(868,250,qs),
(895,230,o),
(953,231,q),
(966,233,o),
(1010,244,q),
(961,100,o),
(957,-24,qs),
(954,-107,o),
(989,-186,qs),
(1046,-314,o),
(1183,-341,qs),
(1229,-350,o),
(1261,-350,qs),
(1369,-350,o),
(1480,-263,qs),
(1556,-203,o),
(1594,-148,qs),
(1630,-96,o),
(1659,-5,qs),
(1661,0,ls),
(1672,38,o),
(1675,50,q),
(1679,132,o),
(1573,132,qs),
(1548,132,o),
(1515,130,qs),
(1491,130,o),
(1477,135,qs),
(1455,143,o),
(1461,164,q),
(1506,243,o),
(1624,291,qs),
(1641,297,o),
(1647,297,qs),
(1654,296,o),
(1658,282,qs),
(1671,232,o),
(1709,196,qs),
(1734,173,o),
(1823,163,q),
(1818,124,o),
(1817,114,qs),
(1814,94,o),
(1814,84,q),
(1822,70,o),
(1832,70,qs),
(1847,70,o),
(1861,96,q),
(1871,151,o),
(1874,161,q),
(1916,164,o),
(1953,167,q),
(1919,58,o),
(1926,-52,qs),
(1934,-178,o),
(2001,-221,qs),
(2042,-247,o),
(2085,-244,q),
(2131,-235,o),
(2173,-170,qs),
(2179,-161,o),
(2237,-50,qs),
(2307,85,o),
(2426,161,qs),
(2476,193,o),
(2532,210,qs),
(2543,214,o),
(2550,217,q),
(2565,271,o),
(2576,323,q),
(2579,329,o)
);
},
{
closed = 1;
nodes = (
(1843,-115,qs),
(1803,-115,o),
(1744,-215,q),
(1664,-235,o),
(1586,-360,qs),
(1501,-497,o),
(1443,-527,q),
(1505,-509,o),
(1564,-434,qs),
(1613,-371,o),
(1662,-308,q),
(1694,-276,o),
(1728,-276,qs),
(1745,-276,o),
(1760,-283,q),
(1807,-291,o),
(1855,-229,q),
(1876,-171,o),
(1876,-155,qs),
(1876,-135,o),
(1865,-119,q),
(1854,-115,o)
);
},
{
closed = 1;
nodes = (
(618,705,q),
(550,615,o),
(542,576,q),
(620,527,o),
(647,509,q),
(717,602,o),
(727,641,q),
(682,670,o)
);
},
{
closed = 1;
nodes = (
(239,919,qs),
(226,919,o),
(210,896,q),
(195,893,o),
(185,896,qs),
(161,904,o),
(163,946,qs),
(166,1003,o),
(236,1066,q),
(250,1088,o),
(241,1098,qs),
(231,1109,o),
(207,1093,q),
(181,1067,o),
(171,1056,qs),
(116,990,o),
(116,904,qs),
(116,873,o),
(127,845,q),
(146,812,o),
(165,806,qs),
(207,792,o),
(234,825,qs),
(257,853,o),
(257,893,q),
(253,919,o)
);
},
{
closed = 1;
nodes = (
(1288,-380,q),
(1221,-470,o),
(1212,-509,q),
(1291,-558,o),
(1317,-577,q),
(1388,-483,o),
(1397,-444,q),
(1352,-415,o)
);
},
{
closed = 1;
nodes = (
(773,-89,qs),
(706,-115,o),
(653,-115,qs),
(623,-115,o),
(594,-107,q),
(593,-105,o),
(581,-101,qs),
(573,-98,o),
(574,-89,q),
(606,-60,o),
(661,-32,qs),
(707,-8,o),
(753,15,q),
(790,26,o),
(793,70,q),
(792,70,o),
(735,43,qs),
(700,26,o),
(670,29,q),
(646,36,o),
(621,69,q),
(633,82,o),
(648,90,qs),
(660,96,o),
(679,81,q),
(711,103,o),
(708,127,q),
(699,138,l),
(632,135,o),
(580,43,q),
(576,26,o),
(594,9,qs),
(609,-3,o),
(625,-15,q),
(596,-42,o),
(568,-68,qs),
(538,-100,o),
(537,-133,q),
(564,-157,o),
(599,-162,o),
(616,-162,qs),
(790,-162,o),
(886,-41,q),
(830,-65,o)
);
},
{
closed = 1;
nodes = (
(1085,-413,q),
(1018,-502,o),
(1010,-541,q),
(1088,-590,o),
(1114,-609,q),
(1185,-515,o),
(1195,-476,q),
(1150,-447,o)
);
},
{
closed = 1;
nodes = (
(1896,303,q),
(1904,376,o),
(2005,471,o),
(2079,471,qs),
(2197,475,o),
(2265,418,q),
(2189,303,o)
);
},
{
closed = 1;
nodes = (
(736,1666,q),
(731,1682,o),
(747,1713,q),
(791,1684,o),
(802,1660,q),
(791,1651,o)
);
},
{
closed = 1;
nodes = (
(705,1671,q),
(667,1685,o),
(663,1691,q),
(667,1714,o),
(705,1735,q),
(721,1727,o),
(725,1700,q),
(713,1680,o)
);
},
{
closed = 1;
nodes = (
(820,1042,qs),
(782,1042,o),
(749,1046,q),
(715,1066,o),
(695,1084,q),
(732,1146,o),
(869,1192,qs),
(926,1211,o),
(999,1226,q),
(1006,1098,l),
(958,1042,o)
);
},
{
closed = 1;
nodes = (
(1833,-208,q),
(1803,-238,o),
(1763,-224,q),
(1780,-180,o),
(1796,-162,q),
(1809,-143,o),
(1831,-148,q),
(1849,-155,o),
(1852,-158,q),
(1861,-187,o)
);
},
{
closed = 1;
nodes = (
(247,407,qs),
(201,399,o),
(144,398,q),
(93,414,o),
(86,429,q),
(114,495,o),
(245,558,qs),
(299,584,o),
(370,607,q),
(393,481,l),
(357,427,o)
);
}
);
width = 2628;
}
);
note = u0613;
unicode = (1555,57344);
},
{
glyphname = u0614;
layers = (
{
.lastUpdate = 730757475.31;
anchors = (
{
name = _top;
}
);
layerId = m01;
shapes = (
{
closed = 1;
nodes = (
(-507,1035,q),
(-553,1027,o),
(-591,1078,q),
(-606,1086,l),
(-642,1094,o),
(-740,986,o),
(-857,954,o),
(-1019,940,o),
(-1019,927,qs),
(-1019,917,o),
(-1013,914,q),
(-859,904,o),
(-750,929,o),
(-663,996,qs),
(-649,1006,o),
(-601,970,o),
(-531,955,o),
(-513,964,q),
(-454,986,o),
(-429,1067,q),
(-429,1097,o),
(-442,1097,q),
(-474,1050,o)
);
}
);
width = 0;
}
);
note = u0614;
unicode = 1556;
},
{
glyphname = u0615;
layers = (
{
.lastUpdate = 730757475.31;
layerId = m01;
shapes = (
{
closed = 1;
nodes = (
(-799,1368,q),
(-774,1105,l),
(-774,1055,l),
(-823,944,l),
(-936,918,o),
(-936,900,qs),
(-936,884,l),
(-811,873,l),
(-599,885,o),
(-599,899,q),
(-498,946,o),
(-498,1077,q),
(-514,1167,o),
(-609,1167,qs),
(-613,1167,ls),
(-672,1167,o),
(-736,1099,q),
(-734,1099,l),
(-728,1122,l),
(-739,1245,l),
(-718,1336,l),
(-754,1439,o),
(-766,1459,q),
(-777,1459,l),
(-799,1389,o)
);
},
{
closed = 1;
nodes = (
(-702,1064,o),
(-649,1064,qs),
(-645,1064,ls),
(-575,1064,o),
(-542,1016,q),
(-563,1002,l),
(-610,980,o),
(-766,960,q),
(-762,972,l)
);
}
);
width = 0;
}
);
note = u0615;
unicode = 1557;
},
{
glyphname = u0617;
layers = (
{
.lastUpdate = 730757475.31;
layerId = m01;
shapes = (
{
closed = 1;
nodes = (
(-647,1155,qs),
(-647,1146,ls),
(-647,1132,o),
(-597,1043,q),
(-605,1009,o),
(-702,963,q),
(-857,907,o),
(-870,896,q),
(-870,893,l),
(-866,890,l),
(-799,889,l),
(-729,890,l),
(-702,893,l),
(-565,934,o),
(-565,1047,q),
(-569,1088,l),
(-601,1184,o),
(-636,1213,q),
(-647,1213,o)
);
},
{
closed = 1;
nodes = (
(-721,1297,qs),
(-721,1282,o),
(-644,1256,q),
(-633,1256,o),
(-609,1320,q),
(-609,1326,l),
(-647,1368,o),
(-686,1374,q),
(-721,1327,o)
);
}
);
width = 0;
}
);
note = u0617;
unicode = 1559;
},
{
glyphname = u061B;
layers = (
{
.lastUpdate = 730757475.31;
layerId = m01;
shapes = (
{
closed = 1;
nodes = (
(368,551,o),
(326,551,qs),
(300,551,o),
(252,527,q),
(225,550,o),
(225,619,qs),
(225,741,o),
(356,881,q),
(332,914,l),
(158,782,o),
(158,582,qs),
(158,493,o),
(196,425,qs),
(242,342,o),
(324,342,qs),
(368,342,o),
(428,401,o),
(428,445,qs),
(428,487,o)
);
},
{
closed = 1;
nodes = (
(343,231,o),
(305,231,qs),
(270,231,o),
(223,177,o),
(223,141,qs),
(223,104,o),
(274,53,o),
(311,53,qs),
(347,53,o),
(397,105,o),
(397,141,qs),
(397,179,o)
);
}
);
width = 569;
}
);
note = u061B;
unicode = 1563;
},
{
glyphname = u061F;
layers = (
{
.lastUpdate = 730757475.31;
layerId = m01;
shapes = (
{
closed = 1;
nodes = (
(445,1135,o),
(348,1135,qs),
(234,1135,o),
(80,973,o),
(80,858,qs),
(80,712,o),
(209,596,qs),
(306,509,ls),
(348,471,o),
(348,387,qs),
(348,374,o),
(342,324,o),
(342,311,q),
(373,311,l),
(385,395,o),
(385,424,qs),
(385,562,o),
(307,719,qs),
(244,846,l),
(215,893,o),
(215,950,qs),
(215,1013,o),
(299,1094,o),
(362,1094,qs),
(408,1094,o),
(441,1071,qs),
(479,1045,o),
(479,1001,qs),
(479,969,o),
(453,950,q),
(412,926,ls),
(367,900,o),
(367,846,qs),
(367,809,o),
(418,756,o),
(455,756,qs),
(512,756,o),
(547,808,qs),
(578,853,o),
(578,913,qs),
(578,1010,o)
);
},
{
closed = 1;
nodes = (
(381,231,o),
(344,231,qs),
(307,231,o),
(256,178,o),
(256,141,qs),
(256,104,o),
(311,53,o),
(348,53,qs),
(385,53,o),
(434,104,o),
(434,141,qs),
(434,178,o)
);
}
);
width = 643;
}
);
note = u061F;
unicode = 1567;
},
{
glyphname = u0621;
layers = (
{
.lastUpdate = 730757475.31;
anchors = (
{
name = bottom;
pos = (329,-1);
},
{
name = bottom_;
pos = (397,10);
},
{
name = top;
pos = (420,655);
},
{
name = top_;
pos = (370,703);
}
);
layerId = m01;
shapes = (
{
closed = 1;
nodes = (
(196,310,q),
(196,220,o),
(283,174,q),
(283,166,l),
(103,57,o),
(103,-6,q),
(109,-24,o),
(124,-21,qs),
(153,-14,l),
(419,138,l),
(707,229,o),
(707,346,q),
(700,368,l),
(535,303,l),
(283,328,o),
(283,433,q),
(340,469,o),
(383,469,qs),
(412,469,ls),
(515,469,o),
(571,418,qs),
(589,400,o),
(634,426,o),
(621,447,q),
(491,577,o),
(362,577,qs),
(236,577,o)
);
}
);
width = 745;
}
);
note = u0621;
unicode = 1569;
},
{
glyphname = u0622;
layers = (
{
.lastUpdate = 730757475.31;
anchors = (
{
name = bottom;
pos = (418,261);
},
{
name = bottom_;
pos = (287,-99);
},
{
name = caret_1;
pos = (-5,0);
},
{
name = top;
pos = (260,1830);
},
{
name = top_;
pos = (239,1875);
}
);
layerId = m01;
shapes = (
{
closed = 1;
nodes = (
(181,1160,q),
(285,290,o),
(285,128,q),
(277,8,l),
(285,0,l),
(349,46,o),
(365,320,q),
(365,392,l),
(341,840,l),
(373,1024,l),
(301,1184,l),
(277,1344,o),
(253,1344,qs),
(231,1344,o)
);
},
{
closed = 1;
nodes = (
(235,1649,qs),
(89,1649,o),
(-11,1756,q),
(-34,1756,o),
(-51,1653,q),
(-51,1643,l),
(30,1569,o),
(66,1521,q),
(85,1438,o),
(97,1438,qs),
(107,1438,o),
(133,1536,q),
(179,1530,l),
(277,1530,o),
(373,1572,q),
(537,1683,o),
(537,1786,q),
(533,1792,l),
(405,1649,o)
);
}
);
width = 520;
}
);
note = u0622;
unicode = 1570;
},
{
glyphname = u0623;
layers = (
{
.lastUpdate = 730757475.31;
anchors = (
{
name = bottom;
pos = (368,306);
},
{
name = bottom_;
pos = (222,-69);
},
{
name = top;
pos = (174,2004);
},
{
name = top_;
pos = (132,2034);
}
);
layerId = m01;
shapes = (
{
closed = 1;
nodes = (
(151,1160,q),
(255,290,o),
(255,128,q),
(247,8,l),
(255,0,l),
(319,46,o),
(335,320,q),
(335,392,l),
(311,840,l),
(343,1024,l),
(271,1184,l),
(247,1344,o),
(223,1344,qs),
(201,1344,o)
);
},
{
closed = 1;
nodes = (
(67,1703,q),
(67,1642,o),
(127,1609,q),
(127,1604,l),
(3,1528,o),
(3,1485,q),
(7,1473,o),
(18,1475,qs),
(37,1480,l),
(221,1584,l),
(419,1647,o),
(419,1728,q),
(414,1743,l),
(300,1699,l),
(127,1715,o),
(127,1787,q),
(166,1812,o),
(196,1812,qs),
(216,1812,ls),
(286,1812,o),
(325,1778,q),
(337,1765,o),
(353,1774,qs),
(369,1783,o),
(360,1798,q),
(270,1887,o),
(181,1887,qs),
(95,1887,o)
);
}
);
width = 450;
}
);
note = u0623;
unicode = 1571;
},
{
glyphname = u0624;
layers = (
{
.lastUpdate = 730757475.31;
anchors = (
{
name = bottom;
pos = (303,-396);
},
{
name = bottom_;
pos = (276,-360);
},
{
name = top;
pos = (385,1114);
},
{
name = top_;
pos = (333,1031);
}
);
layerId = m01;
shapes = (
{
closed = 1;
nodes = (
(237,795,q),
(237,734,o),
(297,701,q),
(297,696,l),
(173,620,o),
(173,577,q),
(177,565,o),
(188,567,qs),
(207,572,l),
(391,676,l),
(589,739,o),
(589,820,q),
(584,835,l),
(470,791,l),
(297,807,o),
(297,879,q),
(336,904,o),
(366,904,qs),
(386,904,ls),
(456,904,o),
(495,870,q),
(507,857,o),
(539,875,o),
(530,890,q),
(440,979,o),
(351,979,qs),
(265,979,o)
);
},
{
closed = 1;
nodes = (
(248,457,o),
(220,209,q),
(220,193,ls),
(220,41,o),
(436,41,qs),
(476,41,l),
(548,65,l),
(556,57,l),
(548,33,l),
(548,-25,o),
(36,-303,q),
(40,-319,o),
(76,-335,q),
(382,-295,o),
(468,-223,q),
(592,-81,o),
(628,65,q),
(632,106,o),
(628,145,qs),
(620,225,l),
(552,465,o),
(412,465,qs),
(380,465,l),
(340,457,l)
);
}
);
width = 692;
}
);
note = u0624;
unicode = 1572;
},
{
glyphname = u0625;
layers = (
{
.lastUpdate = 730757475.31;
anchors = (
{
name = bottom;
pos = (204,-606);
},
{
name = bottom_;
pos = (240,-516);
},
{
name = top;
pos = (282,1389);
},
{
name = top_;
pos = (141,1350);
}
);
layerId = m01;
shapes = (
{
closed = 1;
nodes = (
(144,1160,q),
(248,290,o),
(248,128,q),
(240,8,l),
(248,0,l),
(312,46,o),
(328,320,q),
(328,392,l),
(304,840,l),
(336,1024,l),
(264,1184,l),
(240,1344,o),
(216,1344,qs),
(194,1344,o)
);
},
{
closed = 1;
nodes = (
(125,-361,q),
(125,-422,o),
(185,-455,q),
(185,-460,l),
(61,-536,o),
(61,-579,q),
(65,-591,o),
(76,-589,qs),
(95,-584,l),
(279,-480,l),
(477,-417,o),
(477,-336,q),
(472,-321,l),
(358,-365,l),
(185,-349,o),
(185,-277,q),
(224,-252,o),
(254,-252,qs),
(274,-252,ls),
(344,-252,o),
(383,-286,q),
(395,-299,o),
(411,-290,qs),
(427,-281,o),
(418,-266,q),
(328,-177,o),
(239,-177,qs),
(153,-177,o)
);
}
);
width = 444;
}
);
note = u0625;
unicode = 1573;
},
{
glyphname = u0626;
layers = (
{
.lastUpdate = 730757475.31;
anchors = (
{
name = bottom;
pos = (492,-432);
},
{
name = bottom_;
pos = (537,-387);
},
{
name = top;
pos = (504,1293);
},
{
name = top_;
pos = (516,1329);
}
);
layerId = m01;
shapes = (
{
closed = 1;
nodes = (
(912,745,q),
(707,564,o),
(704,344,qs),
(704,248,ls),
(704,178,o),
(768,136,q),
(1016,80,l),
(784,-144,o),
(552,-144,qs),
(520,-144,ls),
(440,-144,o),
(368,-112,q),
(160,8,o),
(160,200,qs),
(160,264,l),
(179,385,o),
(326,536,o),
(296,552,q),
(282,554,l),
(128,504,o),
(66,85,o),
(104,-32,qs),
(222,-368,o),
(496,-368,qs),
(600,-368,o),
(704,-312,q),
(1104,-50,o),
(1104,176,qs),
(1104,258,o),
(1032,328,q),
(760,360,o),
(760,400,qs),
(760,416,l),
(946,664,o),
(1112,664,qs),
(1193,664,o),
(1208,608,q),
(1216,608,ls),
(1236,608,o),
(1256,800,q),
(1256,848,ls),
(1253,895,o),
(1176,888,q),
(988,824,o)
);
},
{
closed = 1;
nodes = (
(483,1000,q),
(483,939,o),
(543,906,q),
(543,901,l),
(419,825,o),
(419,782,q),
(423,770,o),
(434,772,qs),
(453,777,l),
(637,881,l),
(835,944,o),
(835,1025,q),
(830,1040,l),
(716,996,l),
(543,1012,o),
(543,1084,q),
(582,1109,o),
(612,1109,qs),
(632,1109,ls),
(702,1109,o),
(741,1075,q),
(753,1062,o),
(769,1071,qs),
(785,1080,o),
(776,1095,q),
(686,1184,o),
(597,1184,qs),
(511,1184,o)
);
}
);
width = 1309;
}
);
note = u0626;
unicode = 1574;
},
{
glyphname = u0627;
layers = (
{
.lastUpdate = 730757475.31;
anchors = (
{
name = bottom;
pos = (337,274);
},
{
name = bottom_;
pos = (160,-6);
},
{
name = top;
pos = (234,1378);
},
{
name = top_;
pos = (112,1379);
}
);
layerId = m01;
shapes = (
{
closed = 1;
nodes = (
(93,1162,q),
(197,292,o),
(197,130,q),
(189,10,l),
(197,2,l),
(261,48,o),
(277,322,q),
(277,394,l),
(253,842,l),
(285,1026,l),
(213,1186,l),
(189,1346,o),
(165,1346,qs),
(143,1346,o)
);
}
);
width = 371;
}
);
note = u0627;
unicode = 1575;
},
{
glyphname = u0628;
layers = (
{
.lastUpdate = 730757475.31;
anchors = (
{
name = bottom;
pos = (663,-372);
},
{
name = bottom_;
pos = (645,-327);
},
{
name = top;
pos = (693,693);
},
{
name = top_;
pos = (620,711);
}
);
layerId = m01;
shapes = (
{
closed = 1;
nodes = (
(55,440,qs),
(55,0,o),
(727,0,q),
(847,16,l),
(1271,102,o),
(1271,344,qs),
(1271,596,o),
(1175,696,q),
(1159,696,l),
(1143,544,l),
(1159,470,o),
(1215,368,q),
(1102,301,l),
(918,218,o),
(649,215,q),
(577,223,l),
(156,297,o),
(127,504,qs),
(122,542,o),
(191,696,q),
(175,712,l),
(167,712,l),
(55,624,o)
);
},
{
closed = 1;
nodes = (
(570,-222,q),
(580,-248,o),
(705,-299,q),
(788,-165,l),
(788,-107,o),
(653,-69,q),
(570,-163,o)
);
}
);
width = 1325;
}
);
note = u0628;
unicode = 1576;
},
{
glyphname = u0629;
layers = (
{
.lastUpdate = 730757475.31;
anchors = (
{
name = bottom;
pos = (271,-81);
},
{
name = bottom_;
pos = (235,-30);
},
{
name = top;
pos = (291,1027);
},
{
name = top_;
pos = (242,1045);
}
);
layerId = m01;
shapes = (
{
closed = 1;
nodes = (
(293,593,l),
(181,669,o),
(89,695,q),
(68,666,o),
(68,538,qs),
(68,491,o),
(157,463,q),
(62,319,o),
(55,191,qs),
(55,185,ls),
(55,37,o),
(238,1,q),
(470,1,o),
(470,280,qs),
(470,287,ls),
(470,457,o),
(361,545,q),
(470,623,o),
(483,681,q),
(476,701,l),
(300,593,l)
);
},
{
closed = 1;
nodes = (
(415,246,q),
(357,202,o),
(279,191,q),
(130,208,o),
(130,314,qs),
(130,348,o),
(211,429,q),
(349,360,o)
);
},
{
closed = 1;
nodes = (
(288,834,q),
(351,773,o),
(389,773,qs),
(407,773,l),
(475,854,o),
(475,884,qs),
(475,891,l),
(412,951,o),
(351,965,q),
(303,921,o)
);
},
{
closed = 1;
nodes = (
(78,840,qs),
(78,834,l),
(133,779,o),
(181,773,q),
(197,773,ls),
(207,773,o),
(271,884,q),
(271,891,l),
(202,956,o),
(135,975,q),
(85,906,o)
);
}
);
width = 533;
}
);
note = u0629;
unicode = (1577,1731);
},
{
glyphname = u062A;
layers = (
{
.lastUpdate = 730757475.31;
anchors = (
{
name = bottom;
pos = (654,-81);
},
{
name = bottom_;
pos = (657,-90);
},
{
name = top;
pos = (711,831);
},
{
name = top_;
pos = (605,887);
}
);
layerId = m01;
shapes = (
{
closed = 1;
nodes = (
(48,440,qs),
(48,0,o),
(720,0,q),
(840,16,l),
(1264,102,o),
(1264,344,qs),
(1264,596,o),
(1168,696,q),
(1152,696,l),
(1136,544,l),
(1152,470,o),
(1208,368,q),
(1096,304,l),
(890,208,o),
(635,216,q),
(635,216,l),
(137,296,o),
(120,504,qs),
(117,547,o),
(184,696,q),
(168,712,l),
(160,712,l),
(48,624,o)
);
},
{
closed = 1;
nodes = (
(716,627,q),
(786,557,o),
(831,557,qs),
(850,557,l),
(927,650,o),
(927,685,qs),
(927,691,l),
(857,758,o),
(786,774,q),
(733,726,o)
);
},
{
closed = 1;
nodes = (
(479,634,qs),
(479,627,l),
(540,565,o),
(594,557,q),
(613,557,ls),
(624,557,o),
(697,685,q),
(697,691,l),
(618,765,o),
(543,787,q),
(485,709,o)
);
}
);
width = 1318;
}
);
note = u062A;
unicode = 1578;
},
{
glyphname = u062B;
layers = (
{
.lastUpdate = 730757475.31;
anchors = (
{
name = bottom;
pos = (681,-36);
},
{
name = bottom_;
pos = (609,-72);
},
{
name = top;
pos = (622,1061);
},
{
name = top_;
pos = (520,1050);
}
);
layerId = m01;
shapes = (
{
closed = 1;
nodes = (
(41,440,qs),
(41,0,o),
(738,0,q),
(830,14,l),
(1257,103,o),
(1257,344,qs),
(1257,596,o),
(1161,696,q),
(1145,696,l),
(1129,544,l),
(1145,470,o),
(1201,368,q),
(1089,304,l),
(920,224,o),
(657,216,q),
(657,216,l),
(113,263,o),
(113,504,qs),
(113,554,o),
(177,696,q),
(161,712,l),
(153,712,l),
(41,624,o)
);
},
{
closed = 1;
nodes = (
(507,853,q),
(627,776,o),
(654,776,qs),
(661,776,l),
(744,904,l),
(744,945,o),
(597,1006,q),
(566,1006,o)
);
},
{
closed = 1;
nodes = (
(667,673,q),
(714,619,o),
(821,577,q),
(901,681,o),
(910,712,q),
(910,752,o),
(750,821,q),
(701,781,o)
);
},
{
closed = 1;
nodes = (
(450,635,qs),
(450,629,l),
(531,552,o),
(571,552,qs),
(584,552,l),
(661,661,o),
(661,693,q),
(560,789,o),
(520,789,q),
(450,673,o)
);
}
);
width = 1311;
}
);
note = u062B;
unicode = 1579;
},
{
glyphname = u062C;
layers = (
{
.lastUpdate = 730757475.31;
anchors = (
{
name = bottom;
pos = (654,-761);
},
{
name = bottom_;
pos = (672,-752);
},
{
name = top;
pos = (543,1105);
},
{
name = top_;
pos = (525,1033);
}
);
layerId = m01;
shapes = (
{
closed = 1;
nodes = (
(303,854,q),
(135,854,o),
(55,550,q),
(55,534,l),
(71,518,l),
(167,630,o),
(231,630,qs),
(407,630,l),
(71,336,o),
(71,-74,qs),
(71,-326,o),
(199,-514,q),
(309,-722,o),
(719,-722,q),
(926,-709,o),
(1135,-626,qs),
(1383,-536,o),
(1383,-490,qs),
(1383,-482,l),
(1375,-474,l),
(1287,-474,l),
(839,-506,l),
(839,-506,l),
(135,-465,o),
(151,14,qs),
(160,286,o),
(399,486,q),
(621,646,o),
(799,646,qs),
(941,646,o),
(983,862,q),
(983,870,l),
(975,878,l),
(335,846,o)
);
},
{
closed = 1;
nodes = (
(471,70,q),
(471,-6,o),
(639,-50,q),
(735,58,o),
(735,110,qs),
(735,118,l),
(625,230,o),
(567,230,qs),
(551,230,l),
(495,156,o)
);
}
);
width = 1232;
}
);
note = u062C;
unicode = 1580;
},
{
glyphname = u062D;
layers = (
{
.lastUpdate = 730757475.31;
anchors = (
{
name = bottom;
pos = (636,-802);
},
{
name = bottom_;
pos = (699,-766);
},
{
name = top;
pos = (561,1004);
},
{
name = top_;
pos = (552,1013);
}
);
layerId = m01;
shapes = (
{
closed = 1;
nodes = (
(303,854,q),
(135,854,o),
(55,550,q),
(55,534,l),
(71,518,l),
(167,630,o),
(231,630,qs),
(407,630,l),
(71,336,o),
(71,-74,qs),
(71,-326,o),
(199,-514,q),
(309,-722,o),
(719,-722,q),
(926,-709,o),
(1135,-626,qs),
(1383,-536,o),
(1383,-490,qs),
(1383,-482,l),
(1375,-474,l),
(1287,-474,l),
(839,-506,l),
(839,-506,l),
(135,-465,o),
(151,14,qs),
(160,286,o),
(399,486,q),
(621,646,o),
(799,646,qs),
(941,646,o),
(983,862,q),
(983,870,l),
(975,878,l),
(335,846,o)
);
}
);
width = 1232;
}
);
note = u062D;
unicode = 1581;
},
{
glyphname = u062E;
layers = (
{
.lastUpdate = 730757475.31;
anchors = (
{
name = bottom;
pos = (663,-778);
},
{
name = bottom_;
pos = (699,-760);
},
{
name = top;
pos = (564,1307);
},
{
name = top_;
pos = (521,1295);
}
);
layerId = m01;
shapes = (
{
closed = 1;
nodes = (
(303,854,q),
(135,854,o),
(55,550,q),
(55,534,l),
(71,518,l),
(167,630,o),
(231,630,qs),
(407,630,l),
(71,336,o),
(71,-74,qs),
(71,-326,o),
(199,-514,q),
(309,-722,o),
(719,-722,q),
(926,-709,o),
(1135,-626,qs),
(1383,-536,o),
(1383,-490,qs),
(1383,-482,l),
(1375,-474,l),
(1287,-474,l),
(839,-506,l),
(839,-506,l),
(135,-465,o),
(151,14,qs),
(160,286,o),
(399,486,q),
(621,646,o),
(799,646,qs),
(941,646,o),
(983,862,q),
(983,870,l),
(975,878,l),
(335,846,o)
);
},
{
closed = 1;
nodes = (
(464,1136,q),
(464,1060,o),
(632,1016,q),
(728,1124,o),
(728,1176,qs),
(728,1184,l),
(618,1296,o),
(560,1296,qs),
(544,1296,l),
(488,1222,o)
);
}
);
width = 1228;
}
);
note = u062E;
unicode = 1582;
},
{
glyphname = u062F;
layers = (
{
.lastUpdate = 730757475.31;
anchors = (
{
name = bottom;
pos = (318,-47);
},
{
name = bottom_;
pos = (282,-85);
},
{
name = top;
pos = (321,915);
},
{
name = top_;
pos = (306,919);
}
);
layerId = m01;
shapes = (
{
closed = 1;
nodes = (
(241,576,q),
(249,536,l),
(471,454,o),
(609,320,q),
(569,256,o),
(169,224,q),
(97,224,o),
(97,24,q),
(105,0,l),
(505,38,o),
(505,64,q),
(655,64,o),
(689,344,q),
(681,392,l),
(681,606,o),
(273,752,q),
(247,752,o)
);
}
);
width = 753;
}
);
note = u062F;
unicode = 1583;
},
{
glyphname = u0630;
layers = (
{
.lastUpdate = 730757475.31;
anchors = (
{
name = bottom;
pos = (327,-65);
},
{
name = bottom_;
pos = (282,-76);
},
{
name = top;
pos = (302,1112);
},
{
name = top_;
pos = (225,1122);
}
);
layerId = m01;
shapes = (
{
closed = 1;
nodes = (
(189,945,qs),
(189,914,o),
(343,862,q),
(365,862,o),
(413,990,q),
(413,1002,l),
(338,1086,o),
(259,1098,q),
(189,1004,o)
);
},
{
closed = 1;
nodes = (
(241,576,q),
(249,536,l),
(471,454,o),
(609,320,q),
(569,256,o),
(169,224,q),
(97,224,o),
(97,24,q),
(105,0,l),
(505,38,o),
(505,64,q),
(655,64,o),
(689,344,q),
(681,392,l),
(681,606,o),
(273,752,q),
(247,752,o)
);
}
);
width = 753;
}
);
note = u0630;
unicode = 1584;
},
{
glyphname = u0631;
layers = (
{
.lastUpdate = 730757475.31;
anchors = (
{
name = bottom;
pos = (299,-399);
},
{
name = bottom_;
pos = (317,-444);
},
{
name = top;
pos = (482,579);
},
{
name = top_;
pos = (359,498);
}
);
layerId = m01;
shapes = (
{
closed = 1;
nodes = (
(466,298,qs),
(466,274,ls),
(466,240,o),
(570,18,q),
(554,-68,o),
(354,-182,q),
(36,-322,o),
(10,-350,q),
(10,-358,l),
(18,-366,l),
(156,-368,l),
(298,-366,l),
(354,-358,l),
(634,-256,o),
(634,26,q),
(626,130,l),
(562,370,o),
(490,442,q),
(466,442,o)
);
}
);
width = 681;
}
);
note = u0631;
unicode = 1585;
},
{
glyphname = u0632;
layers = (
{
.lastUpdate = 730757475.31;
anchors = (
{
name = bottom;
pos = (302,-399);
},
{
name = bottom_;
pos = (302,-426);
},
{
name = top;
pos = (438,947);
},
{
name = top_;
pos = (336,913);
}
);
layerId = m01;
shapes = (
{
closed = 1;
nodes = (
(460,298,qs),
(460,274,ls),
(460,240,o),
(564,18,q),
(548,-68,o),
(348,-182,q),
(30,-322,o),
(4,-350,q),
(4,-358,l),
(12,-366,l),
(150,-368,l),
(292,-366,l),
(348,-358,l),
(628,-256,o),
(628,26,q),
(620,130,l),
(556,370,o),
(484,442,q),
(460,442,o)
);
},
{
closed = 1;
nodes = (
(342,694,qs),
(342,663,o),
(496,611,q),
(518,611,o),
(566,739,q),
(566,751,l),
(491,835,o),
(412,847,q),
(342,753,o)
);
}
);
width = 665;
}
);
note = u0632;
unicode = 1586;
},
{
glyphname = u0633;
layers = (
{
.lastUpdate = 730757475.31;
anchors = (
{
name = bottom;
pos = (1242,-161);
},
{
name = bottom_;
pos = (1191,-215);
},
{
name = top;
pos = (1329,879);
},
{
name = top_;
pos = (1209,894);
}
);
layerId = m01;
shapes = (
{
closed = 1;
nodes = (
(1600,528,o),
(1528,528,qs),
(1520,528,ls),
(1440,528,o),
(1392,600,q),
(1390,638,l),
(1390,668,l),
(1378,674,l),
(1368,672,l),
(1360,664,l),
(1306,504,o),
(1200,504,qs),
(1192,504,ls),
(1054,504,o),
(960,640,q),
(952,640,l),
(936,624,l),
(936,472,l),
(944,432,l),
(1048,284,o),
(1064,168,q),
(1064,160,l),
(864,-136,o),
(592,-136,qs),
(528,-136,l),
(477,-128,l),
(115,-30,o),
(112,244,q),
(126,346,o),
(160,416,q),
(280,616,l),
(280,624,l),
(272,632,l),
(70,548,o),
(46,161,q),
(48,128,l),
(73,16,l),
(217,-368,o),
(544,-368,qs),
(576,-368,ls),
(794,-363,o),
(929,-206,qs),
(1063,-50,o),
(1104,192,qs),
(1110,224,o),
(1104,280,q),
(1184,272,l),
(1288,272,o),
(1336,400,q),
(1336,405,l),
(1386,296,o),
(1496,296,qs),
(1656,296,o),
(1656,560,qs),
(1656,592,ls),
(1652,752,o),
(1624,752,qs),
(1608,752,l),
(1600,664,l)
);
}
);
width = 1730;
}
);
note = u0633;
unicode = 1587;
},
{
glyphname = u0634;
layers = (
{
.lastUpdate = 730757475.31;
anchors = (
{
name = bottom;
pos = (1335,-86);
},
{
name = bottom_;
pos = (1227,-176);
},
{
name = top;
pos = (1249,1396);
},
{
name = top_;
pos = (1151,1321);
}
);
layerId = m01;
shapes = (
{
closed = 1;
nodes = (
(1600,528,o),
(1528,528,qs),
(1520,528,ls),
(1440,528,o),
(1392,600,q),
(1390,638,l),
(1390,668,l),
(1378,674,l),
(1368,672,l),
(1360,664,l),
(1306,504,o),
(1200,504,qs),
(1192,504,ls),
(1054,504,o),
(960,640,q),
(952,640,l),
(936,624,l),
(936,472,l),
(944,432,l),
(1048,284,o),
(1064,168,q),
(1064,160,l),
(864,-136,o),
(592,-136,qs),
(528,-136,l),
(477,-128,l),
(115,-30,o),
(112,244,q),
(126,346,o),
(160,416,q),
(280,616,l),
(280,624,l),
(272,632,l),
(70,548,o),
(46,161,q),
(48,128,l),
(73,16,l),
(217,-368,o),
(544,-368,qs),
(576,-368,ls),
(794,-363,o),
(929,-206,qs),
(1063,-50,o),
(1104,192,qs),
(1110,224,o),
(1104,280,q),
(1184,272,l),
(1288,272,o),
(1336,400,q),
(1336,405,l),
(1386,296,o),
(1496,296,qs),
(1656,296,o),
(1656,560,qs),
(1656,592,ls),
(1652,752,o),
(1624,752,qs),
(1608,752,l),
(1600,664,l)
);
},
{
closed = 1;
nodes = (
(1154,1174,q),
(1274,1097,o),
(1301,1097,qs),
(1308,1097,l),
(1391,1225,l),
(1391,1266,o),
(1244,1327,q),
(1213,1327,o)
);
},
{
closed = 1;
nodes = (
(1314,994,q),
(1361,940,o),
(1468,898,q),
(1548,1002,o),
(1557,1033,q),
(1557,1073,o),
(1397,1142,q),
(1348,1102,o)
);
},
{
closed = 1;
nodes = (
(1097,956,qs),
(1097,950,l),
(1178,873,o),
(1218,873,qs),
(1231,873,l),
(1308,982,o),
(1308,1014,q),
(1207,1110,o),
(1167,1110,q),
(1097,994,o)
);
}
);
width = 1744;
}
);
note = u0634;
unicode = 1588;
},
{
glyphname = u0635;
layers = (
{
.lastUpdate = 730757475.31;
anchors = (
{
name = bottom;
pos = (1267,-71);
},
{
name = bottom_;
pos = (1303,-26);
},
{
name = top;
pos = (1442,993);
},
{
name = top_;
pos = (1376,989);
}
);
layerId = m01;
shapes = (
{
closed = 1;
nodes = (
(1162,480,q),
(1146,480,l),
(1020,506,o),
(922,624,q),
(910,630,o),
(898,608,q),
(898,424,l),
(1010,250,o),
(1010,216,q),
(1021,160,o),
(994,104,q),
(836,-120,o),
(554,-120,qs),
(376,-120,o),
(256,-49,q),
(130,52,o),
(130,208,qs),
(130,248,ls),
(130,334,o),
(178,400,qs),
(306,576,o),
(306,600,qs),
(306,608,l),
(282,608,l),
(242,584,l),
(112,464,o),
(50,176,q),
(29,26,o),
(90,-96,qs),
(236,-368,o),
(482,-368,qs),
(498,-368,ls),
(656,-368,o),
(826,-248,q),
(1058,-34,o),
(1058,192,qs),
(1058,272,l),
(1154,240,o),
(1306,240,qs),
(1322,240,ls),
(1590,240,o),
(1722,352,qs),
(1791,409,o),
(1842,608,q),
(1842,624,ls),
(1842,806,o),
(1586,832,q),
(1554,832,ls),
(1316,832,o)
);
},
{
closed = 1;
nodes = (
(1554,640,qs),
(1586,640,ls),
(1690,640,o),
(1762,568,q),
(1762,560,l),
(1608,464,o),
(1370,464,q),
(1258,480,l),
(1362,640,o)
);
}
);
width = 1911;
}
);
note = u0635;
unicode = 1589;
},
{
glyphname = u0636;
layers = (
{
.lastUpdate = 730757475.31;
anchors = (
{
name = bottom;
pos = (1227,-77);
},
{
name = bottom_;
pos = (1281,-50);
},
{
name = top;
pos = (1406,1321);
},
{
name = top_;
pos = (1370,1398);
}
);
layerId = m01;
shapes = (
{
closed = 1;
nodes = (
(1334,1078,qs),
(1334,1040,o),
(1526,974,q),
(1554,974,o),
(1614,1134,q),
(1614,1150,l),
(1520,1254,o),
(1422,1270,q),
(1334,1152,o)
);
},
{
closed = 1;
nodes = (
(1162,480,q),
(1146,480,l),
(1020,506,o),
(922,624,q),
(910,630,o),
(898,608,q),
(898,424,l),
(1010,250,o),
(1010,216,q),
(1021,160,o),
(994,104,q),
(836,-120,o),
(554,-120,qs),
(376,-120,o),
(256,-49,q),
(130,52,o),
(130,208,qs),
(130,248,ls),
(130,334,o),
(178,400,qs),
(306,576,o),
(306,600,qs),
(306,608,l),
(282,608,l),
(242,584,l),
(112,464,o),
(50,176,q),
(29,26,o),
(90,-96,qs),
(236,-368,o),
(482,-368,qs),
(498,-368,ls),
(656,-368,o),
(826,-248,q),
(1058,-34,o),
(1058,192,qs),
(1058,272,l),
(1154,240,o),
(1306,240,qs),
(1322,240,ls),
(1590,240,o),
(1722,352,qs),
(1791,409,o),
(1842,608,q),
(1842,624,ls),
(1842,806,o),
(1586,832,q),
(1554,832,ls),
(1316,832,o)
);
},
{
closed = 1;
nodes = (
(1554,640,qs),
(1586,640,ls),
(1690,640,o),
(1762,568,q),
(1762,560,l),
(1608,464,o),
(1370,464,q),
(1258,480,l),
(1362,640,o)
);
}
);
width = 1911;
}
);
note = u0636;
unicode = 1590;
},
{
glyphname = u0637;
layers = (
{
.lastUpdate = 730757475.31;
anchors = (
{
name = bottom;
pos = (603,-13);
},
{
name = bottom_;
pos = (522,-58);
},
{
name = top;
pos = (856,861);
},
{
name = top_;
pos = (836,839);
}
);
layerId = m01;
shapes = (
{
closed = 1;
nodes = (
(399,1200,qs),
(455,504,l),
(455,392,l),
(343,136,l),
(95,80,o),
(95,48,qs),
(95,24,l),
(367,0,l),
(823,19,o),
(901,56,qs),
(1125,160,o),
(1125,440,q),
(1091,632,o),
(885,632,qs),
(877,632,ls),
(677,632,o),
(535,480,q),
(527,480,l),
(524,551,l),
(519,928,l),
(567,1128,l),
(489,1352,o),
(463,1392,q),
(447,1392,l),
(396,1235,o)
);
},
{
closed = 1;
nodes = (
(573,397,o),
(727,424,qs),
(766,431,ls),
(937,461,o),
(1045,304,q),
(987,273,l),
(853,213,o),
(455,168,q),
(471,216,l)
);
}
);
width = 1189;
}
);
note = u0637;
unicode = 1591;
},
{
glyphname = u0638;
layers = (
{
.lastUpdate = 730757475.31;
anchors = (
{
name = bottom;
pos = (576,-58);
},
{
name = bottom_;
pos = (549,-49);
},
{
name = top;
pos = (760,1142);
},
{
name = top_;
pos = (836,1162);
}
);
layerId = m01;
shapes = (
{
closed = 1;
nodes = (
(399,1200,qs),
(455,504,l),
(455,392,l),
(343,136,l),
(95,80,o),
(95,48,qs),
(95,24,l),
(367,0,l),
(823,19,o),
(901,56,qs),
(1125,160,o),
(1125,440,q),
(1091,632,o),
(885,632,qs),
(877,632,ls),
(677,632,o),
(535,480,q),
(527,480,l),
(524,551,l),
(519,928,l),
(567,1128,l),
(489,1352,o),
(463,1392,q),
(447,1392,l),
(396,1235,o)
);
},
{
closed = 1;
nodes = (
(573,397,o),
(727,424,qs),
(766,431,ls),
(937,461,o),
(1045,304,q),
(987,273,l),
(853,213,o),
(455,168,q),
(471,216,l)
);
},
{
closed = 1;
nodes = (
(714,988,qs),
(714,957,o),
(868,905,q),
(890,905,o),
(938,1033,q),
(938,1045,l),
(863,1129,o),
(784,1141,q),
(714,1047,o)
);
}
);
width = 1189;
}
);
note = u0638;
unicode = 1592;
},
{
glyphname = u0639;
layers = (
{
.lastUpdate = 730757475.31;
anchors = (
{
name = bottom;
pos = (645,-661);
},
{
name = bottom_;
pos = (582,-670);
},
{
name = top;
pos = (381,1166);
},
{
name = top_;
pos = (255,1112);
}
);
layerId = m01;
shapes = (
{
closed = 1;
nodes = (
(57,735,q),
(57,703,ls),
(57,553,o),
(217,503,q),
(217,495,l),
(12,229,o),
(41,-97,qs),
(47,-169,o),
(105,-321,q),
(247,-625,o),
(617,-625,qs),
(641,-625,ls),
(841,-625,o),
(1173,-409,q),
(1173,-393,l),
(1165,-385,l),
(732,-411,l),
(519,-411,o),
(305,-297,qs),
(108,-197,o),
(105,55,qs),
(104,167,o),
(241,351,q),
(377,475,o),
(649,599,q),
(780,640,o),
(793,751,q),
(793,767,l),
(777,767,l),
(489,671,l),
(489,671,l),
(196,704,o),
(153,815,q),
(153,920,o),
(362,945,qs),
(480,959,o),
(577,871,q),
(630,852,o),
(625,911,q),
(479,1047,o),
(321,1047,qs),
(111,1047,o)
);
}
);
width = 991;
}
);
note = u0639;
unicode = 1593;
},
{
glyphname = u063A;
layers = (
{
.lastUpdate = 730757475.31;
anchors = (
{
name = bottom;
pos = (645,-660);
},
{
name = bottom_;
pos = (573,-687);
},
{
name = top;
pos = (337,1487);
},
{
name = top_;
pos = (256,1473);
}
);
layerId = m01;
shapes = (
{
closed = 1;
nodes = (
(57,741,q),
(57,709,ls),
(57,559,o),
(217,509,q),
(217,501,l),
(12,235,o),
(41,-91,qs),
(47,-163,o),
(105,-315,q),
(247,-619,o),
(617,-619,qs),
(641,-619,ls),
(841,-619,o),
(1173,-403,q),
(1173,-387,l),
(1165,-379,l),
(732,-405,l),
(519,-405,o),
(305,-291,qs),
(108,-191,o),
(105,61,qs),
(104,173,o),
(241,357,q),
(377,481,o),
(649,605,q),
(780,646,o),
(793,757,q),
(793,773,l),
(777,773,l),
(489,677,l),
(489,677,l),
(196,710,o),
(153,821,q),
(153,926,o),
(362,951,qs),
(480,965,o),
(577,877,q),
(630,858,o),
(625,917,q),
(479,1053,o),
(321,1053,qs),
(111,1053,o)
);
},
{
closed = 1;
nodes = (
(198,1289,q),
(198,1276,l),
(226,1245,o),
(333,1193,q),
(354,1193,o),
(410,1340,q),
(410,1353,l),
(338,1417,o),
(269,1429,q),
(242,1423,o)
);
}
);
width = 1026;
}
);
note = u063A;
unicode = 1594;
},
{
glyphname = u0640;
layers = (
{
.lastUpdate = 730757475.31;
anchors = (
{
name = bottom;
pos = (243,-75);
},
{
name = bottom_;
pos = (216,-50);
},
{
name = entry;
pos = (484,0);
},
{
name = exit;
pos = (-1,0);
},
{
name = top;
pos = (253,393);
},
{
name = top_;
pos = (212,416);
}
);
layerId = m01;
shapes = (
{
closed = 1;
nodes = (
(512,228,q),
(215,228,l),
(-21,228,l),
(-22,206,o),
(-21,179,o),
(-21,127,qs),
(-21,64,o),
(-21,0,q),
(88,0,o),
(196,0,qs),
(513,0,l),
(511,109,o),
(512,169,qs),
(512,198,o)
);
}
);
width = 484;
}
);
note = u0640;
unicode = 1600;
},
{
glyphname = u0641;
layers = (
{
.lastUpdate = 730757475.31;
anchors = (
{
name = bottom;
pos = (676,-30);
},
{
name = bottom_;
pos = (658,-48);
},
{
name = top;
pos = (745,1131);
},
{
name = top_;
pos = (702,1102);
}
);
layerId = m01;
shapes = (
{
closed = 1;
nodes = (
(749,969,q),
(749,956,l),
(777,925,o),
(884,873,q),
(905,873,o),
(961,1020,q),
(961,1033,l),
(889,1097,o),
(820,1109,q),
(793,1103,o)
);
},
{
closed = 1;
nodes = (
(937,560,qs),
(937,488,l),
(1003,376,o),
(1137,376,qs),
(1161,376,l),
(1249,392,l),
(1257,392,l),
(1265,368,l),
(1265,360,l),
(923,224,o),
(641,224,qs),
(535,227,l),
(54,290,o),
(103,499,qs),
(107,516,l),
(161,672,l),
(148,685,l),
(129,688,l),
(32,593,o),
(17,392,q),
(28,60,o),
(595,1,q),
(646,0,l),
(1071,28,o),
(1340,278,o),
(1329,504,q),
(1305,608,l),
(1252,792,o),
(1089,792,qs),
(1081,792,ls),
(937,792,o)
);
}
);
width = 1352;
}
);
note = u0641;
unicode = 1601;
},
{
glyphname = u0642;
layers = (
{
.lastUpdate = 730757475.31;
anchors = (
{
name = bottom;
pos = (547,-333);
},
{
name = bottom_;
pos = (565,-378);
},
{
name = top;
pos = (771,1104);
},
{
name = top_;
pos = (600,1099);
}
);
layerId = m01;
shapes = (
{
closed = 1;
nodes = (
(780,915,q),
(850,845,o),
(895,845,qs),
(914,845,l),
(991,937,o),
(991,973,qs),
(991,979,l),
(921,1046,o),
(850,1062,q),
(797,1014,o)
);
},
{
closed = 1;
nodes = (
(543,877,qs),
(543,870,l),
(604,808,o),
(658,800,q),
(677,800,ls),
(689,801,o),
(761,928,q),
(761,934,l),
(682,1008,o),
(607,1030,q),
(549,952,o)
);
},
{
closed = 1;
nodes = (
(673,656,o),
(655,416,q),
(655,400,ls),
(655,254,o),
(871,232,q),
(999,264,l),
(1047,218,o),
(1047,176,qs),
(1047,152,l),
(843,-144,o),
(527,-144,qs),
(519,-144,l),
(439,-132,l),
(95,-46,o),
(95,256,q),
(103,336,o),
(199,472,o),
(247,592,q),
(247,616,o),
(231,616,q),
(183,584,l),
(23,406,o),
(23,136,qs),
(23,128,l),
(39,22,l),
(141,-368,o),
(535,-368,qs),
(773,-368,o),
(999,-80,q),
(1095,66,o),
(1095,152,qs),
(1095,272,l),
(1025,664,o),
(831,664,qs),
(815,664,l),
(767,656,l)
);
}
);
width = 1118;
}
);
note = u0642;
unicode = 1602;
},
{
glyphname = u0643;
layers = (
{
.lastUpdate = 730757475.31;
anchors = (
{
name = bottom;
pos = (474,-36);
},
{
name = bottom_;
pos = (447,-63);
},
{
name = top;
pos = (663,1168);
},
{
name = top_;
pos = (429,1173);
}
);
layerId = m01;
shapes = (
{
closed = 1;
nodes = (
(378,642,q),
(378,567,o),
(453,567,qs),
(616,567,ls),
(667,567,o),
(671,546,q),
(671,540,l),
(638,523,o),
(616,519,qs),
(269,472,l),
(269,424,o),
(331,424,qs),
(358,424,ls),
(497,424,o),
(582,444,q),
(739,465,o),
(739,580,qs),
(739,601,ls),
(739,655,o),
(643,655,q),
(514,648,ls),
(439,645,o),
(439,676,qs),
(439,682,ls),
(439,714,o),
(501,716,qs),
(514,716,l),
(541,696,l),
(562,696,o),
(575,757,q),
(575,771,l),
(563,804,o),
(528,798,qs),
(388,772,o)
);
},
{
closed = 1;
nodes = (
(274,184,l),
(668,187,ls),
(851,188,o),
(894,276,q),
(901,301,l),
(795,1369,l),
(831,1545,o),
(859,1545,q),
(875,1537,o),
(931,1337,q),
(979,1265,l),
(967,1241,o),
(936,1173,q),
(996,485,o),
(996,485,q),
(996,476,ls),
(1007,219,o),
(1007,219,q),
(1006,4,o),
(528,2,qs),
(40,0,l),
(39,133,l),
(41,244,l),
(61,238,l),
(92,185,l)
);
}
);
width = 1065;
}
);
note = u0643;
unicode = 1603;
},
{
glyphname = u0644;
layers = (
{
.lastUpdate = 730757475.31;
anchors = (
{
name = bottom;
pos = (594,-186);
},
{
name = bottom_;
pos = (522,-159);
},
{
name = top;
pos = (771,1191);
},
{
name = top_;
pos = (462,1173);
}
);
layerId = m01;
shapes = (
{
closed = 1;
nodes = (
(894,1354,qs),
(894,1338,ls),
(894,1150,o),
(990,314,q),
(982,290,l),
(806,74,o),
(574,74,qs),
(558,74,l),
(518,76,l),
(134,141,o),
(134,378,qs),
(134,386,ls),
(134,436,o),
(158,498,q),
(270,670,o),
(270,714,q),
(254,730,l),
(246,730,l),
(54,560,o),
(54,338,q),
(70,194,l),
(170,-150,o),
(518,-150,qs),
(566,-150,ls),
(696,-150,o),
(862,-22,q),
(1028,140,o),
(1054,306,q),
(1054,498,l),
(1006,1042,l),
(1054,1180,o),
(1054,1234,qs),
(1054,1242,l),
(974,1378,l),
(964,1498,o),
(942,1498,q),
(894,1442,o)
);
}
);
width = 1151;
}
);
note = u0644;
unicode = 1604;
},
{
glyphname = u0645;
layers = (
{
.lastUpdate = 730757475.31;
anchors = (
{
name = bottom;
pos = (678,-195);
},
{
name = bottom_;
pos = (570,-249);
},
{
name = top;
pos = (843,768);
},
{
name = top_;
pos = (573,753);
}
);
layerId = m01;
shapes = (
{
closed = 1;
nodes = (
(778,564,qs),
(674,490,o),
(618,276,q),
(618,122,o),
(258,-100,q),
(56,-210,o),
(50,-228,q),
(48,-244,o),
(66,-252,q),
(98,-252,ls),
(150,-252,o),
(378,-180,qs),
(540,-128,o),
(642,108,q),
(874,28,o),
(930,28,qs),
(938,28,ls),
(1046,28,o),
(1090,380,q),
(1090,417,ls),
(1082,590,o),
(899,610,q),
(832,605,o)
);
},
{
closed = 1;
nodes = (
(826,380,qs),
(834,380,l),
(986,354,o),
(986,260,q),
(978,248,o),
(962,252,qs),
(738,316,l),
(736,319,o),
(738,324,q),
(778,380,o)
);
}
);
width = 1158;
}
);
note = u0645;
unicode = 1605;
},
{
glyphname = u0646;
layers = (
{
.lastUpdate = 730757475.31;
anchors = (
{
name = bottom;
pos = (535,-413);
},
{
name = bottom_;
pos = (536,-431);
},
{
name = top;
pos = (583,723);
},
{
name = top_;
pos = (520,828);
}
);
layerId = m01;
shapes = (
{
closed = 1;
nodes = (
(947,424,l),
(1059,112,l),
(1059,92,o),
(963,8,q),
(727,-144,o),
(555,-144,qs),
(432,-145,o),
(299,-72,q),
(107,62,o),
(107,248,q),
(115,344,o),
(147,400,q),
(259,556,o),
(259,576,q),
(243,592,l),
(227,592,l),
(219,584,ls),
(27,392,o),
(27,168,qs),
(27,-106,o),
(224,-274,q),
(338,-352,o),
(515,-368,q),
(779,-368,o),
(971,-160,q),
(1107,-34,o),
(1107,248,q),
(1099,280,ls),
(991,640,o),
(963,640,qs),
(947,640,l),
(939,480,l)
);
},
{
closed = 1;
nodes = (
(465,302,q),
(465,262,o),
(632,206,q),
(702,290,o),
(709,341,q),
(709,354,l),
(638,429,o),
(549,450,q),
(536,450,l),
(505,418,o)
);
}
);
width = 1136;
}
);
note = u0646;
unicode = 1606;
},
{
glyphname = u0647;
layers = (
{
.lastUpdate = 730757475.31;
anchors = (
{
name = bottom;
pos = (285,-114);
},
{
name = bottom_;
pos = (261,-5);
},
{
name = top;
pos = (345,972);
},
{
name = top_;
pos = (270,1007);
}
);
layerId = m01;
shapes = (
{
closed = 1;
nodes = (
(328,696,l),
(196,786,o),
(88,816,q),
(64,782,o),
(64,632,qs),
(64,576,o),
(168,544,q),
(56,374,o),
(48,224,qs),
(48,216,ls),
(48,42,o),
(264,0,q),
(536,0,o),
(536,328,qs),
(536,336,ls),
(536,536,o),
(408,640,q),
(536,732,o),
(552,800,q),
(544,824,l),
(336,696,l)
);
},
{
closed = 1;
nodes = (
(472,288,q),
(404,236,o),
(312,224,q),
(136,244,o),
(136,368,qs),
(136,408,o),
(232,504,q),
(394,422,o)
);
}
);
width = 614;
}
);
note = u0647;
unicode = 1607;
},
{
glyphname = u0648;
layers = (
{
.lastUpdate = 730757475.31;
anchors = (
{
name = bottom;
pos = (289,-339);
},
{
name = bottom_;
pos = (244,-348);
},
{
name = top;
pos = (343,666);
},
{
name = top_;
pos = (281,636);
}
);
layerId = m01;
shapes = (
{
closed = 1;
nodes = (
(232,457,o),
(204,209,q),
(204,193,ls),
(204,41,o),
(420,41,qs),
(460,41,l),
(532,65,l),
(540,57,l),
(532,33,l),
(532,-25,o),
(20,-303,q),
(24,-319,o),
(60,-335,q),
(366,-295,o),
(452,-223,q),
(576,-81,o),
(612,65,q),
(616,106,o),
(612,145,qs),
(604,225,l),
(536,465,o),
(396,465,qs),
(364,465,l),
(324,457,l)
);
}
);
width = 648;
}
);
note = u0648;
unicode = 1608;
},
{
glyphname = u0649;
layers = (
{
.lastUpdate = 730757475.31;
anchors = (
{
name = bottom;
pos = (564,-444);
},
{
name = bottom_;
pos = (519,-363);
},
{
name = top;
pos = (501,690);
},
{
name = top_;
pos = (546,825);
}
);
layerId = m01;
shapes = (
{
closed = 1;
nodes = (
(893,745,q),
(688,564,o),
(685,344,qs),
(685,248,ls),
(685,178,o),
(749,136,q),
(997,80,l),
(765,-144,o),
(533,-144,qs),
(501,-144,ls),
(421,-144,o),
(349,-112,q),
(141,8,o),
(141,200,qs),
(141,264,l),
(160,385,o),
(307,536,o),
(277,552,q),
(263,554,l),
(109,504,o),
(47,85,o),
(85,-32,qs),
(203,-368,o),
(477,-368,qs),
(581,-368,o),
(685,-312,q),
(1085,-50,o),
(1085,176,qs),
(1085,258,o),
(1013,328,q),
(741,360,o),
(741,400,qs),
(741,416,l),
(927,664,o),
(1093,664,qs),
(1174,664,o),
(1189,608,q),
(1197,608,ls),
(1217,608,o),
(1237,800,q),
(1237,848,ls),
(1234,895,o),
(1157,888,q),
(969,824,o)
);
}
);
width = 1325;
}
);
note = u0649;
unicode = 1609;
},
{
glyphname = u064A;
layers = (
{
.lastUpdate = 730757475.31;
anchors = (
{
name = bottom;
pos = (564,-651);
},
{
name = bottom_;
pos = (546,-684);
},
{
name = top;
pos = (510,708);
},
{
name = top_;
pos = (546,825);
}
);
layerId = m01;
shapes = (
{
closed = 1;
nodes = (
(547,-576,q),
(617,-646,o),
(662,-646,qs),
(681,-646,l),
(758,-554,o),
(758,-518,qs),
(758,-512,l),
(688,-445,o),
(617,-429,q),
(564,-477,o)
);
},
{
closed = 1;
nodes = (
(310,-614,qs),
(310,-621,l),
(371,-683,o),
(425,-691,q),
(444,-691,ls),
(456,-690,o),
(528,-563,q),
(528,-557,l),
(449,-483,o),
(374,-461,q),
(316,-539,o)
);
},
{
closed = 1;
nodes = (
(901,745,q),
(696,564,o),
(693,344,qs),
(693,248,ls),
(693,178,o),
(757,136,q),
(1005,80,l),
(773,-144,o),
(541,-144,qs),
(509,-144,ls),
(429,-144,o),
(357,-112,q),
(149,8,o),
(149,200,qs),
(149,264,l),
(168,385,o),
(315,536,o),
(285,552,q),
(271,554,l),
(117,504,o),
(55,85,o),
(93,-32,qs),
(211,-368,o),
(485,-368,qs),
(589,-368,o),
(693,-312,q),
(1093,-50,o),
(1093,176,qs),
(1093,258,o),
(1021,328,q),
(749,360,o),
(749,400,qs),
(749,416,l),
(935,664,o),
(1101,664,qs),
(1182,664,o),
(1197,608,q),
(1205,608,ls),
(1225,608,o),
(1245,800,q),
(1245,848,ls),
(1242,895,o),
(1165,888,q),
(977,824,o)
);
}
);
width = 1325;
}
);
note = u064A;
unicode = 1610;
},
{
glyphname = u064B;
layers = (
{
.lastUpdate = 730757475.31;
anchors = (
{
name = _top;
pos = (200,1297);
}
);
layerId = m01;
shapes = (
{
closed = 1;
nodes = (
(125,1678,l),
(45,1649,o),
(9,1519,q),
(9,1513,l),
(15,1507,l),
(272,1648,l),
(440,1727,o),
(474,1825,q),
(474,1843,o),
(462,1843,q),
(413,1825,l)
);
},
{
closed = 1;
nodes = (
(156,1513,l),
(62,1474,o),
(34,1366,q),
(34,1348,o),
(45,1348,qs),
(78,1348,o),
(370,1507,q),
(464,1553,o),
(517,1666,q),
(517,1684,l),
(510,1690,l),
(504,1690,l)
);
}
);
width = 0;
}
);
note = u064B;
unicode = 1611;
},
{
glyphname = u064C;
layers = (
{
.lastUpdate = 730757475.31;
anchors = (
{
name = _top;
pos = (200,1304);
}
);
layerId = m01;
shapes = (
{
closed = 1;
nodes = (
(29,1618,qs),
(29,1489,o),
(90,1477,q),
(120,1477,l),
(177,1496,o),
(176,1593,qs),
(176,1605,l),
(172,1618,o),
(145,1630,q),
(122,1630,o),
(114,1587,q),
(102,1587,l),
(86,1616,o),
(91,1666,o),
(107,1705,q),
(163,1802,o),
(262,1911,q),
(262,1933,o),
(243,1924,q),
(29,1775,o)
);
},
{
closed = 1;
nodes = (
(206,1624,q),
(206,1550,o),
(273,1507,q),
(273,1502,l),
(24,1383,o),
(17,1366,q),
(13,1366,o),
(19,1359,o),
(29,1355,o),
(35,1354,q),
(177,1354,o),
(353,1465,q),
(454,1518,o),
(469,1691,q),
(469,1710,l),
(455,1813,o),
(377,1813,qs),
(246,1813,o)
);
},
{
closed = 1;
nodes = (
(316,1710,q),
(408,1710,o),
(408,1624,q),
(403,1605,o),
(371,1605,qs),
(353,1605,l),
(267,1616,o),
(267,1679,qs),
(267,1685,ls),
(267,1699,o)
);
}
);
width = 0;
}
);
note = u064C;
unicode = 1612;
},
{
glyphname = u064D;
layers = (
{
.lastUpdate = 730757475.31;
anchors = (
{
name = _bottom;
pos = (264,19);
}
);
layerId = m01;
shapes = (
{
closed = 1;
nodes = (
(177,-213,l),
(97,-242,o),
(61,-372,q),
(61,-378,l),
(67,-384,l),
(324,-243,l),
(492,-164,o),
(526,-66,q),
(526,-48,o),
(514,-48,q),
(465,-66,l)
);
},
{
closed = 1;
nodes = (
(208,-378,l),
(114,-417,o),
(86,-525,q),
(86,-543,o),
(97,-543,qs),
(130,-543,o),
(422,-384,q),
(516,-338,o),
(569,-225,q),
(569,-207,l),
(562,-201,l),
(556,-201,l)
);
}
);
width = 0;
}
);
note = u064D;
unicode = 1613;
},
{
glyphname = u064E;
layers = (
{
.lastUpdate = 730757475.31;
anchors = (
{
name = _top;
pos = (232,1285);
}
);
layerId = m01;
shapes = (
{
closed = 1;
nodes = (
(111,1479,o),
(52,1366,qs),
(40,1341,o),
(59,1335,q),
(352,1483,l),
(472,1536,o),
(530,1672,q),
(534,1697,o),
(524,1691,q),
(132,1500,l)
);
}
);
width = 0;
}
);
note = u064E;
unicode = 1614;
},
{
glyphname = u064F;
layers = (
{
.lastUpdate = 730757475.31;
anchors = (
{
name = _top;
pos = (200,1296);
}
);
layerId = m01;
shapes = (
{
closed = 1;
nodes = (
(293,1723,q),
(372,1692,o),
(372,1637,q),
(363,1612,o),
(329,1612,qs),
(317,1612,l),
(225,1625,o),
(225,1680,q),
(258,1723,o)
);
},
{
closed = 1;
nodes = (
(214,1827,o),
(170,1631,q),
(170,1542,o),
(237,1515,q),
(237,1509,l),
(82,1406,o),
(72,1386,q),
(34,1334,o),
(84,1350,q),
(434,1493,o),
(434,1698,qs),
(434,1827,o),
(329,1827,qs),
(311,1827,ls)
);
}
);
width = 0;
}
);
note = u064F;
unicode = 1615;
},
{
glyphname = u0650;
layers = (
{
.lastUpdate = 730757475.31;
anchors = (
{
name = _bottom;
pos = (260,33);
}
);
layerId = m01;
shapes = (
{
closed = 1;
nodes = (
(111,-236,o),
(52,-349,qs),
(40,-374,o),
(59,-380,q),
(352,-232,l),
(472,-179,o),
(530,-43,q),
(534,-18,o),
(524,-24,q),
(132,-215,l)
);
}
);
width = 0;
}
);
note = u0650;
unicode = 1616;
},
{
glyphname = u0651;
layers = (
{
.lastUpdate = 730757475.31;
anchors = (
{
name = _top;
pos = (235,1258);
}
);
layerId = m01;
shapes = (
{
closed = 1;
nodes = (
(389,1622,q),
(389,1615,l),
(408,1493,l),
(408,1487,l),
(366,1487,ls),
(324,1487,o),
(304,1640,q),
(292,1640,l),
(275,1637,o),
(267,1591,q),
(280,1499,l),
(269,1469,o),
(230,1469,qs),
(206,1469,ls),
(188,1469,o),
(175,1523,q),
(175,1628,l),
(169,1634,l),
(154,1634,o),
(133,1567,q),
(133,1389,o),
(206,1389,qs),
(266,1389,o),
(298,1444,q),
(343,1408,o),
(372,1408,qs),
(377,1408,ls),
(442,1408,o),
(457,1499,q),
(433,1651,o),
(414,1683,q),
(397,1683,o)
);
}
);
width = 0;
}
);
note = u0651;
unicode = 1617;
},
{
glyphname = u0652;
layers = (
{
.lastUpdate = 730757475.31;
anchors = (
{
name = _top;
pos = (215,1298);
}
);
layerId = m01;
shapes = (
{
closed = 1;
nodes = (
(180,1578,q),
(180,1566,l),
(186,1560,l),
(259,1566,l),
(278,1566,ls),
(318,1566,o),
(351,1535,q),
(257,1457,o),
(149,1400,q),
(146,1388,o),
(167,1388,q),
(256,1400,ls),
(370,1413,o),
(449,1627,q),
(449,1719,o),
(326,1719,qs),
(259,1719,ls),
(232,1719,o)
);
}
);
width = 0;
}
);
note = u0652;
unicode = 1618;
},
{
glyphname = u0653;
layers = (
{
.lastUpdate = 730757475.31;
anchors = (
{
name = _top;
pos = (242,1287);
}
);
layerId = m01;
shapes = (
{
closed = 1;
nodes = (
(235,1612,qs),
(95,1612,o),
(-1,1715,q),
(-23,1715,o),
(-40,1617,q),
(-40,1607,l),
(39,1536,o),
(73,1489,q),
(92,1411,o),
(102,1411,qs),
(112,1411,o),
(137,1504,q),
(181,1499,l),
(275,1499,o),
(366,1539,q),
(524,1645,o),
(524,1744,q),
(518,1749,l),
(396,1612,o)
);
}
);
width = 7;
}
);
note = u0653;
unicode = 1619;
},
{
glyphname = u0654;
layers = (
{
.lastUpdate = 730757475.31;
anchors = (
{
name = _top;
pos = (290,1345);
}
);
layerId = m01;
shapes = (
{
closed = 1;
nodes = (
(151,1615,q),
(151,1549,o),
(215,1514,q),
(215,1509,l),
(83,1429,o),
(83,1383,q),
(87,1370,o),
(99,1373,qs),
(120,1378,l),
(314,1488,l),
(525,1555,o),
(525,1641,q),
(520,1657,l),
(398,1610,l),
(215,1628,o),
(215,1704,q),
(256,1730,o),
(288,1730,qs),
(309,1730,ls),
(384,1730,o),
(425,1694,q),
(438,1680,o),
(471,1699,o),
(462,1715,q),
(367,1809,o),
(273,1809,qs),
(181,1809,o)
);
}
);
width = 0;
}
);
note = u0654;
unicode = (1620,1652);
},
{
glyphname = u0655;
layers = (
{
.lastUpdate = 730757475.31;
anchors = (
{
name = _bottom;
pos = (300,-29);
}
);
layerId = m01;
shapes = (
{
closed = 1;
nodes = (
(166,-311,q),
(166,-377,o),
(230,-412,q),
(230,-417,l),
(98,-497,o),
(98,-543,q),
(102,-556,o),
(114,-553,qs),
(135,-548,l),
(329,-438,l),
(540,-371,o),
(540,-285,q),
(535,-269,l),
(413,-316,l),
(230,-298,o),
(230,-222,q),
(271,-196,o),
(303,-196,qs),
(324,-196,ls),
(399,-196,o),
(440,-232,q),
(453,-246,o),
(486,-227,o),
(477,-211,q),
(382,-117,o),
(288,-117,qs),
(196,-117,o)
);
}
);
width = 0;
}
);
note = u0655;
unicode = 1621;
},
{
glyphname = u0656;
layers = (
{
.lastUpdate = 730757475.31;
anchors = (
{
name = _bottom;
pos = (258,15);
}
);
layerId = m01;
shapes = (
{
closed = 1;
nodes = (
(228,-94,o),
(202,-242,q),
(253,-454,o),
(263,-612,q),
(295,-612,l),
(356,-482,o),
(356,-409,qs),
(356,-400,l),
(319,-30,o),
(284,-30,qs),
(274,-30,l)
);
}
);
width = 0;
}
);
note = u0656;
unicode = (1622,57347);
},
{
glyphname = u0657;
layers = (
{
.lastUpdate = 730757475.31;
anchors = (
{
name = _top;
pos = (272,1311);
}
);
layerId = m01;
shapes = (
{
closed = 1;
nodes = (
(160,1545,qs),
(160,1504,l),
(179,1362,o),
(289,1362,qs),
(303,1362,ls),
(373,1362,o),
(412,1518,q),
(412,1532,ls),
(412,1586,o),
(364,1613,q),
(337,1613,l),
(330,1606,l),
(325,1545,o),
(310,1545,qs),
(303,1545,ls),
(238,1545,o),
(228,1640,q),
(237,1688,o),
(254,1741,o),
(289,1804,q),
(364,1894,o),
(391,1994,q),
(395,2025,o),
(371,2008,q),
(160,1790,o)
);
}
);
width = 0;
}
);
note = u0657;
unicode = (1623,57348);
},
{
glyphname = u065A;
layers = (
{
.lastUpdate = 730757475.31;
layerId = m01;
shapes = (
{
closed = 1;
nodes = (
(-1099,1037,qs),
(-1085,968,l),
(-1080,953,ls),
(-1059,892,o),
(-999,892,qs),
(-998,892,ls),
(-984,892,o),
(-974,895,qs),
(-937,906,o),
(-916,953,q),
(-915,953,l),
(-882,892,o),
(-818,892,qs),
(-809,892,ls),
(-749,892,o),
(-736,984,q),
(-736,984,l),
(-689,892,o),
(-602,892,qs),
(-590,892,l),
(-590,893,l),
(-561,897,o),
(-538,940,q),
(-506,900,o),
(-480,900,qs),
(-478,900,ls),
(-448,900,o),
(-436,943,q),
(-434,943,l),
(-415,913,o),
(-386,913,qs),
(-347,913,o),
(-347,995,qs),
(-347,1023,o),
(-357,1043,q),
(-366,1043,o),
(-368,999,qs),
(-369,976,o),
(-386,978,qs),
(-400,979,o),
(-420,995,q),
(-427,1022,o),
(-431,1022,qs),
(-435,1022,l),
(-448,967,o),
(-474,967,qs),
(-484,967,ls),
(-504,967,o),
(-519,996,q),
(-517,1007,ls),
(-515,1017,o),
(-523,1017,qs),
(-527,1017,l),
(-535,1014,o),
(-538,1004,qs),
(-549,966,o),
(-595,965,q),
(-595,965,l),
(-597,965,o),
(-599,965,qs),
(-604,965,l),
(-604,965,l),
(-640,964,o),
(-667,981,qs),
(-731,1020,o),
(-754,1110,q),
(-739,1123,l),
(-598,1223,o),
(-589,1223,q),
(-587,1211,l),
(-584,1211,l),
(-540,1294,l),
(-543,1305,l),
(-547,1305,l),
(-681,1221,o),
(-736,1178,qs),
(-770,1151,o),
(-787,1122,qs),
(-803,1094,o),
(-789,1069,qs),
(-752,1002,o),
(-752,996,q),
(-773,965,o),
(-805,965,qs),
(-822,965,l),
(-864,961,o),
(-890,992,q),
(-891,1019,o),
(-897,1023,qs),
(-908,1031,o),
(-911,1020,qs),
(-922,976,o),
(-972,966,qs),
(-982,964,o),
(-1000,964,qs),
(-1001,964,ls),
(-1059,962,o),
(-1068,1036,qs),
(-1070,1066,o),
(-1073,1096,qs),
(-1074,1121,o),
(-1100,1109,q),
(-1100,1109,l),
(-1114,1103,o),
(-1156,1070,q),
(-1206,1020,o),
(-1207,1000,qs),
(-1207,989,o),
(-1187,1005,qs),
(-1131,1049,o),
(-1131,1049,q),
(-1104,1069,o)
);
},
{
closed = 1;
nodes = (
(-919,1092,q),
(-901,1070,o),
(-865,1056,q),
(-839,1092,o),
(-835,1104,q),
(-835,1121,o),
(-888,1144,q),
(-906,1130,o)
);
},
{
closed = 1;
nodes = (
(-988,1079,qs),
(-988,1075,l),
(-960,1048,o),
(-946,1048,qs),
(-941,1048,l),
(-916,1086,o),
(-916,1100,q),
(-950,1134,o),
(-963,1134,q),
(-988,1094,o)
);
},
{
closed = 1;
nodes = (
(-1207,1000,o),
(-1207,999,o)
);
},
{
closed = 1;
nodes = (
(-1128,1231,q),
(-1110,1210,o),
(-1074,1196,q),
(-1049,1232,o),
(-1045,1244,q),
(-1045,1261,o),
(-1098,1284,q),
(-1115,1270,o)
);
},
{
closed = 1;
nodes = (
(-1197,1219,qs),
(-1197,1215,l),
(-1170,1188,o),
(-1155,1188,qs),
(-1150,1188,l),
(-1125,1226,o),
(-1125,1240,q),
(-1159,1274,o),
(-1173,1274,q),
(-1197,1234,o)
);
}
);
width = 0;
}
);
note = u065A;
unicode = 1626;
},
{
glyphname = u0660;
layers = (
{
.lastUpdate = 730757475.31;
layerId = m01;
shapes = (
{
closed = 1;
nodes = (
(478,390,q),
(368,468,o),
(297,565,q),
(290,565,l),
(203,428,o),
(153,338,q),
(153,326,l),
(256,197,o),
(322,160,q),
(345,152,o),
(348,157,qs),
(481,380,l),
(481,387,o)
);
}
);
width = 680;
}
);
note = u0660;
unicode = 1632;
},
{
glyphname = u066A;
layers = (
{
.lastUpdate = 730757475.31;
layerId = m01;
shapes = (
{
closed = 1;
nodes = (
(242,1112,o),
(207,1112,qs),
(170,1112,o),
(117,1061,o),
(117,1024,qs),
(117,987,o),
(170,934,o),
(207,934,qs),
(242,934,o),
(293,989,o),
(293,1024,qs),
(293,1059,o)
);
},
{
closed = 1;
nodes = (
(182,-133,l),
(250,-133,l),
(760,1192,l),
(688,1192,l)
);
},
{
closed = 1;
nodes = (
(786,135,o),
(750,135,qs),
(712,135,o),
(657,85,o),
(657,47,qs),
(657,11,o),
(711,-37,o),
(748,-37,qs),
(784,-37,o),
(834,11,o),
(834,47,qs),
(834,83,o)
);
}
);
width = 946;
}
);
note = u066A;
unicode = 1642;
},
{
glyphname = u066D;
layers = (
{
.lastUpdate = 730757475.31;
layerId = m01;
shapes = (
{
closed = 1;
nodes = (
(408,1450,l),
(322,1190,l),
(51,1190,l),
(269,1029,l),
(187,770,l),
(408,928,l),
(629,770,l),
(547,1029,l),
(765,1190,l),
(494,1190,l)
);
}
);
width = 815;
}
);
note = u066D;
unicode = 1645;
},
{
glyphname = u066E;
layers = (
{
.lastUpdate = 730757475.31;
anchors = (
{
name = bottom;
pos = (672,-36);
},
{
name = bottom_;
pos = (645,-72);
},
{
name = top;
pos = (663,633);
},
{
name = top_;
pos = (621,696);
}
);
layerId = m01;
shapes = (
{
closed = 1;
nodes = (
(62,440,qs),
(62,0,o),
(734,0,q),
(854,16,l),
(1278,102,o),
(1278,344,qs),
(1278,596,o),
(1182,696,q),
(1166,696,l),
(1150,544,l),
(1166,470,o),
(1222,368,q),
(1110,304,l),
(959,240,o),
(678,216,q),
(563,224,l),
(143,279,o),
(134,504,qs),
(133,551,o),
(198,696,q),
(182,712,l),
(174,712,l),
(62,624,o)
);
}
);
width = 1346;
}
);
note = u066E;
unicode = 1646;
},
{
glyphname = u0670;
layers = (
{
.lastUpdate = 730757475.31;
anchors = (
{
name = _top;
pos = (261,1309);
}
);
layerId = m01;
shapes = (
{
closed = 1;
nodes = (
(152,1771,q),
(152,1760,l),
(210,1621,o),
(210,1572,qs),
(210,1566,l),
(198,1491,l),
(198,1485,l),
(204,1480,l),
(243,1480,o),
(273,1694,q),
(273,1792,o),
(210,1904,q),
(181,1904,o)
);
}
);
width = 0;
}
);
note = u0670;
unicode = 1648;
},
{
glyphname = u0671;
layers = (
{
.lastUpdate = 730757475.31;
layerId = m01;
shapes = (
{
closed = 1;
nodes = (
(126,1160,q),
(230,290,o),
(230,128,q),
(222,8,l),
(230,0,l),
(294,46,o),
(310,320,q),
(310,392,l),
(286,840,l),
(318,1024,l),
(246,1184,l),
(222,1344,o),
(198,1344,qs),
(176,1344,o)
);
},
{
closed = 1;
nodes = (
(355,1691,qs),
(234,1691,o),
(112,1524,q),
(87,1524,ls),
(7,1524,o),
(7,1455,qs),
(7,1402,o),
(58,1351,q),
(56,1340,o),
(56,1389,qs),
(56,1435,o),
(88,1435,qs),
(262,1435,ls),
(329,1435,o),
(382,1476,qs),
(440,1521,o),
(440,1586,qs),
(440,1691,o)
);
},
{
closed = 1;
nodes = (
(260,1525,qs),
(154,1525,l),
(263,1653,o),
(336,1653,qs),
(377,1653,o),
(377,1604,qs),
(377,1525,o)
);
}
);
width = 433;
}
);
note = u0671;
unicode = 1649;
},
{
glyphname = u0672;
layers = (
{
.lastUpdate = 730757475.31;
anchors = (
{
name = bottom;
pos = (174,294);
},
{
name = bottom_;
pos = (164,284);
},
{
name = top;
pos = (220,1020);
},
{
name = top_;
pos = (140,944);
}
);
layerId = m01;
shapes = (
{
closed = 1;
nodes = (
(140,939,q),
(152,958,o),
(163,958,qs),
(175,958,o),
(184,935,qs),
(230,807,o),
(230,626,qs),
(230,460,o),
(173,350,q),
(161,333,o),
(154,333,qs),
(145,333,o),
(146,354,qs),
(163,572,o),
(108,776,qs),
(102,797,o),
(104,801,q),
(124,882,o)
);
}
);
width = 398;
}
);
note = u0672;
unicode = 1650;
},
{
glyphname = u0681;
layers = (
{
.lastUpdate = 730757475.31;
anchors = (
{
name = bottom;
pos = (720,-495);
},
{
name = bottom_;
pos = (702,-450);
},
{
name = top;
pos = (513,1755);
},
{
name = top_;
pos = (414,1719);
}
);
layerId = m01;
shapes = (
{
closed = 1;
nodes = (
(303,1087,q),
(135,1087,o),
(55,783,q),
(55,767,l),
(71,751,l),
(167,863,o),
(231,863,qs),
(407,863,l),
(71,569,o),
(71,159,qs),
(71,-93,o),
(199,-281,q),
(309,-489,o),
(719,-489,q),
(1034,-437,o),
(1135,-393,q),
(1383,-303,o),
(1383,-257,qs),
(1383,-249,l),
(1375,-241,l),
(1287,-241,l),
(839,-273,l),
(559,-249,l),
(151,-111,o),
(151,247,qs),
(151,511,o),
(399,719,q),
(621,879,o),
(799,879,qs),
(941,879,o),
(983,1095,q),
(983,1103,l),
(975,1111,l),
(335,1079,o)
);
},
{
closed = 1;
nodes = (
(344,1522,q),
(344,1445,o),
(419,1404,q),
(419,1398,l),
(264,1303,o),
(264,1249,q),
(269,1234,o),
(283,1237,qs),
(307,1243,l),
(536,1373,l),
(784,1452,o),
(784,1553,q),
(778,1572,l),
(635,1516,l),
(419,1537,o),
(419,1627,q),
(468,1658,o),
(505,1658,qs),
(530,1658,ls),
(618,1658,o),
(666,1615,qs),
(682,1599,o),
(721,1621,o),
(710,1640,q),
(598,1751,o),
(487,1751,qs),
(379,1751,o)
);
}
);
width = 1228;
}
);
note = u0681;
unicode = 1665;
},
{
glyphname = u06A9;
layers = (
{
.lastUpdate = 730757475.31;
anchors = (
{
name = bottom;
pos = (555,-54);
},
{
name = bottom_;
pos = (600,-99);
},
{
name = top;
pos = (876,918);
},
{
name = top_;
pos = (702,837);
}
);
layerId = m01;
shapes = (
{
closed = 1;
nodes = (
(1195,157,qs),
(1163,121,o),
(1115,97,qs),
(1010,40,o),
(820,8,q),
(594,0,l),
(514,0,ls),
(230,0,o),
(81,208,q),
(41,278,o),
(50,392,q),
(96,688,o),
(170,688,qs),
(196,688,o),
(202,664,q),
(202,632,o),
(114,448,q),
(114,440,ls),
(114,300,o),
(442,224,q),
(538,216,l),
(1050,216,o),
(1223,391,q),
(1211,469,o),
(1072,738,q),
(1056,802,ls),
(1030,928,o),
(1086,1138,o),
(1168,1178,q),
(1358,1306,o),
(1896,1602,q),
(1904,1594,l),
(1904,1578,l),
(1788,1396,o),
(1728,1242,q),
(1712,1242,l),
(1704,1282,l),
(1704,1322,l),
(1712,1330,l),
(1712,1338,l),
(1704,1338,l),
(1258,1080,o),
(1104,962,q),
(1104,954,l),
(1272,614,o),
(1288,434,q),
(1288,329,o),
(1234,220,q),
(1222,186,o)
);
}
);
width = 1618;
}
);
note = u06A9;
unicode = 1705;
},
{
glyphname = u06AA;
layers = (
{
.lastUpdate = 730757475.31;
anchors = (
{
name = bottom;
pos = (930,-12);
},
{
name = bottom_;
pos = (930,-66);
},
{
name = top;
pos = (867,1161);
},
{
name = top_;
pos = (840,1215);
}
);
layerId = m01;
shapes = (
{
closed = 1;
nodes = (
(1121,845,o),
(1143,831,o),
(1153,814,qs),
(1157,807,o),
(1170,797,q),
(1177,790,o),
(1183,800,q),
(1220,827,o),
(1243,906,q),
(1252,929,o),
(1252,949,q),
(1262,1064,o),
(1158,1067,qs),
(1021,1070,o),
(889,1017,qs),
(633,913,o),
(484,638,q),
(457,561,o),
(457,525,q),
(465,445,o),
(494,425,qs),
(567,374,o),
(771,357,qs),
(824,352,o),
(1191,380,qs),
(1714,410,o),
(1797,410,qs),
(1818,410,o),
(1829,409,qs),
(1954,396,o),
(2028,375,q),
(2078,351,o),
(2078,336,qs),
(2078,275,o),
(2037,279,q),
(1651,255,o),
(817,233,q),
(758,234,o),
(602,231,qs),
(466,228,o),
(387,230,qs),
(268,233,o),
(173,247,q),
(29,278,o),
(112,142,o),
(170,104,qs),
(252,48,o),
(313,27,qs),
(348,17,o),
(384,8,q),
(533,1,o),
(602,1,qs),
(630,1,o),
(818,8,o),
(905,8,qs),
(989,8,o),
(1925,51,o),
(1970,51,qs),
(1993,51,o),
(2011,56,q),
(2135,77,o),
(2206,199,o),
(2206,241,q),
(2196,444,o),
(2074,532,q),
(1993,602,o),
(1742,602,qs),
(1655,602,o),
(1534,596,qs),
(1303,587,o),
(1202,578,qs),
(1038,564,o),
(918,564,qs),
(778,564,o),
(674,582,q),
(580,608,o),
(580,631,q),
(577,601,o),
(600,623,qs),
(669,688,o),
(686,702,qs),
(736,744,o),
(811,783,qs),
(907,834,o),
(994,846,qs),
(1012,848,o),
(1095,848,q),
(1113,845,l)
);
}
);
width = 2285;
}
);
note = u06AA;
unicode = 1706;
},
{
glyphname = u06BA;
layers = (
{
.lastUpdate = 730757475.31;
anchors = (
{
name = bottom;
pos = (600,-423);
},
{
name = bottom_;
pos = (555,-378);
},
{
name = top;
pos = (636,741);
},
{
name = top_;
pos = (573,831);
}
);
layerId = m01;
shapes = (
{
closed = 1;
nodes = (
(975,424,l),
(1087,112,l),
(1087,92,o),
(991,8,q),
(755,-144,o),
(583,-144,qs),
(515,-144,o),
(327,-72,q),
(135,62,o),
(135,248,q),
(143,344,o),
(175,400,q),
(287,556,o),
(287,576,q),
(271,592,l),
(255,592,l),
(247,584,ls),
(55,388,o),
(55,168,qs),
(55,-94,o),
(263,-272,q),
(327,-320,o),
(543,-368,q),
(807,-368,o),
(999,-160,q),
(1135,-34,o),
(1135,248,q),
(1127,280,ls),
(1019,640,o),
(991,640,qs),
(975,640,l),
(967,480,l)
);
}
);
width = 1200;
}
);
note = u06BA;
unicode = 1722;
},
{
glyphname = u06BE;
layers = (
{
.lastUpdate = 730757475.31;
anchors = (
{
name = bottom;
pos = (348,-27);
},
{
name = bottom_;
pos = (312,-54);
},
{
name = top;
pos = (354,993);
},
{
name = top_;
pos = (312,1080);
}
);
layerId = m01;
shapes = (
{
closed = 1;
nodes = (
(123,-4,o),
(250,50,q),
(554,34,l),
(634,42,l),
(738,76,o),
(738,314,qs),
(738,542,o),
(466,674,q),
(334,746,o),
(282,858,q),
(262,894,o),
(242,850,qs),
(98,512,o),
(98,274,qs),
(98,243,o),
(-20,248,q),
(-20,0,l)
);
},
{
closed = 1;
nodes = (
(274,538,qs),
(358,538,o),
(394,394,q),
(394,332,o),
(290,274,q),
(170,294,o),
(170,370,q),
(188,538,o)
);
},
{
closed = 1;
nodes = (
(474,426,q),
(592,368,o),
(666,266,q),
(634,258,l),
(434,266,l),
(452,426,o)
);
}
);
width = 823;
}
);
note = u06BE;
unicode = 1726;
},
{
glyphname = u06C1;
layers = (
{
.lastUpdate = 730757475.31;
anchors = (
{
name = bottom;
pos = (315,-111);
},
{
name = bottom_;
pos = (267,-90);
},
{
name = top;
pos = (309,830);
},
{
name = top_;
pos = (291,911);
}
);
layerId = m01;
shapes = (
{
closed = 1;
nodes = (
(331,593,l),
(219,670,o),
(127,695,q),
(106,666,o),
(106,539,qs),
(106,491,o),
(195,464,q),
(100,320,o),
(93,192,qs),
(93,185,ls),
(93,38,o),
(276,2,q),
(508,2,o),
(508,281,qs),
(508,287,ls),
(508,457,o),
(399,546,q),
(508,624,o),
(521,682,q),
(514,702,l),
(338,593,l)
);
},
{
closed = 1;
nodes = (
(455,236,q),
(379,184,o),
(329,175,q),
(179,192,o),
(179,297,qs),
(179,348,o),
(251,419,q),
(388,350,o)
);
}
);
width = 628;
}
);
note = u06C1;
unicode = 1729;
},
{
glyphname = u06CC;
layers = (
{
.lastUpdate = 730757475.31;
anchors = (
{
name = bottom;
pos = (519,-423);
},
{
name = bottom_;
pos = (528,-360);
},
{
name = top;
pos = (507,633);
},
{
name = top_;
pos = (525,741);
}
);
layerId = m01;
shapes = (
{
closed = 1;
nodes = (
(893,745,q),
(688,564,o),
(685,344,qs),
(685,248,ls),
(685,178,o),
(749,136,q),
(997,80,l),
(765,-144,o),
(533,-144,qs),
(501,-144,ls),
(421,-144,o),
(349,-112,q),
(141,8,o),
(141,200,qs),
(141,264,l),
(160,385,o),
(307,536,o),
(277,552,q),
(263,554,l),
(109,504,o),
(47,85,o),
(85,-32,qs),
(203,-368,o),
(477,-368,qs),
(581,-368,o),
(685,-312,q),
(1085,-50,o),
(1085,176,qs),
(1085,258,o),
(1013,328,q),
(741,360,o),
(741,400,qs),
(741,416,l),
(927,664,o),
(1093,664,qs),
(1174,664,o),
(1189,608,q),
(1197,608,ls),
(1217,608,o),
(1237,800,q),
(1237,848,ls),
(1234,895,o),
(1157,888,q),
(969,824,o)
);
}
);
width = 1318;
}
);
note = u06CC;
unicode = 1740;
},
{
glyphname = u06D2;
layers = (
{
.lastUpdate = 730757475.31;
anchors = (
{
name = bottom;
pos = (681,-63);
},
{
name = bottom_;
pos = (645,-81);
},
{
name = top;
pos = (537,909);
},
{
name = top_;
pos = (501,1035);
}
);
layerId = m01;
shapes = (
{
closed = 1;
nodes = (
(287,413,qs),
(149,319,o),
(122,217,q),
(59,109,o),
(74,48,qs),
(102,-63,o),
(443,-110,qs),
(584,-130,o),
(778,-135,q),
(1455,-118,o),
(1737,-103,qs),
(1825,-98,o),
(2207,-11,o),
(2306,28,qs),
(2367,53,o),
(2367,74,qs),
(2367,109,o),
(2206,127,q),
(2094,130,o),
(1880,123,qs),
(1607,112,o),
(1498,110,qs),
(1318,106,o),
(1137,101,qs),
(950,97,o),
(778,110,qs),
(557,127,o),
(484,142,qs),
(263,184,o),
(263,232,qs),
(263,237,o),
(265,240,q),
(539,378,o),
(697,453,q),
(791,505,o),
(858,654,q),
(910,829,l),
(922,900,o),
(991,890,q),
(1052,812,o),
(1076,710,q),
(1094,668,o),
(1108,616,q),
(1125,588,o),
(1138,588,qs),
(1158,588,o),
(1173,631,q),
(1163,867,o),
(1036,1061,q),
(959,1129,o),
(864,1022,o),
(840,909,qs),
(802,757,o),
(770,668,o),
(694,622,q),
(438,517,o)
);
}
);
width = 2441;
}
);
note = u06D2;
unicode = 1746;
},
{
glyphname = u06D4;
layers = (
{
.lastUpdate = 730757475.31;
layerId = m01;
shapes = (
{
closed = 1;
nodes = (
(822,235,q),
(739,224,o),
(673,216,qs),
(538,200,o),
(442,194,qs),
(306,186,o),
(93,186,q),
(96,139,l),
(162,100,o),
(286,57,qs),
(362,30,o),
(376,26,qs),
(418,13,o),
(496,13,qs),
(626,13,ls),
(694,13,o),
(702,16,q),
(769,51,o),
(811,117,qs),
(837,159,o),
(844,202,q),
(844,235,o)
);
}
);
width = 918;
}
);
note = u06D4;
unicode = 1748;
},
{
glyphname = u06D5;
layers = (
{
.lastUpdate = 730757475.31;
layerId = m01;
shapes = (
{
closed = 1;
nodes = (
(125,351,q),
(53,242,o),
(48,146,qs),
(48,141,ls),
(48,30,o),
(186,3,q),
(360,3,o),
(360,212,qs),
(360,218,ls),
(357,324,o),
(275,390,q),
(194,424,o)
);
},
{
closed = 1;
nodes = (
(300,169,q),
(263,138,o),
(209,132,q),
(106,143,o),
(110,200,qs),
(110,222,o),
(197,280,o),
(299,237,o)
);
}
);
width = 516;
}
);
note = u06D5;
unicode = 1749;
},
{
glyphname = u06D6;
layers = (
{
.lastUpdate = 730757475.31;
layerId = m01;
shapes = (
{
closed = 1;
nodes = (
(-981,1296,q),
(-969,1175,o),
(-961,1084,qs),
(-961,1082,l),
(-1108,1032,o),
(-1108,935,qs),
(-1108,930,ls),
(-1108,875,o),
(-972,875,qs),
(-878,875,ls),
(-360,889,o),
(-322,962,q),
(-322,975,o),
(-352,974,qs),
(-933,951,ls),
(-1015,948,o),
(-1056,972,q),
(-1052,982,o),
(-945,1036,q),
(-916,998,o),
(-845,998,q),
(-803,1002,o),
(-761,1053,q),
(-724,1020,l),
(-705,1013,o),
(-704,991,q),
(-697,973,o),
(-685,989,o),
(-676,1009,q),
(-590,1009,o),
(-501,1059,o),
(-487,1134,q),
(-480,1211,o),
(-551,1217,q),
(-652,1217,o),
(-697,1096,q),
(-705,1096,l),
(-745,1130,l),
(-801,1075,o),
(-832,1075,qs),
(-879,1075,o),
(-889,1084,q),
(-930,1091,o),
(-930,1354,qs),
(-930,1365,l),
(-930,1381,l),
(-976,1381,o)
);
},
{
closed = 1;
nodes = (
(-664,1089,q),
(-664,1118,o),
(-590,1141,q),
(-547,1141,o),
(-537,1117,q),
(-537,1113,ls),
(-537,1096,o),
(-634,1084,qs),
(-649,1082,o)
);
}
);
width = 0;
}
);
note = u06D6;
unicode = 1750;
},
{
glyphname = u06D7;
layers = (
{
.lastUpdate = 730757475.31;
layerId = m01;
shapes = (
{
closed = 1;
nodes = (
(-632,1294,q),
(-601,1262,o),
(-582,1262,qs),
(-573,1262,l),
(-540,1303,o),
(-540,1319,qs),
(-540,1325,l),
(-571,1354,o),
(-600,1360,q),
(-625,1339,o)
);
},
{
closed = 1;
nodes = (
(-728,1280,qs),
(-728,1275,l),
(-701,1247,o),
(-678,1244,q),
(-670,1244,l),
(-665,1245,o),
(-634,1299,q),
(-634,1306,l),
(-667,1338,o),
(-700,1347,q),
(-725,1313,o)
);
},
{
closed = 1;
nodes = (
(-667,1218,o),
(-673,1135,qs),
(-673,1130,ls),
(-673,1078,o),
(-600,1070,q),
(-559,1081,l),
(-546,1068,o),
(-546,1057,qs),
(-546,1051,l),
(-610,959,o),
(-712,959,qs),
(-714,959,l),
(-761,964,l),
(-849,991,o),
(-849,1083,q),
(-846,1107,o),
(-816,1150,o),
(-799,1191,q),
(-799,1205,o),
(-808,1205,q),
(-824,1193,l),
(-878,1135,o),
(-878,1044,qs),
(-878,1042,l),
(-873,997,l),
(-839,876,o),
(-709,876,qs),
(-631,876,o),
(-557,970,q),
(-525,1020,o),
(-525,1049,qs),
(-525,1089,l),
(-548,1220,o),
(-613,1220,qs),
(-618,1220,l),
(-634,1218,l)
);
}
);
width = 1;
}
);
note = u06D7;
unicode = 1751;
},
{
glyphname = u06D8;
layers = (
{
.lastUpdate = 730757475.31;
layerId = m01;
shapes = (
{
closed = 1;
nodes = (
(-998,892,o),
(-998,935,qs),
(-998,1211,ls),
(-998,1254,o),
(-937,1315,o),
(-894,1315,qs),
(-509,1315,ls),
(-466,1315,o),
(-405,1254,o),
(-405,1211,qs),
(-405,935,ls),
(-405,892,o),
(-466,832,o),
(-509,832,qs),
(-894,832,ls),
(-937,832,o)
);
},
{
closed = 1;
nodes = (
(-610,1256,qs),
(-658,1222,o),
(-682,1126,q),
(-682,1060,o),
(-838,965,q),
(-927,916,o),
(-931,906,q),
(-933,895,o),
(-923,889,q),
(-907,889,ls),
(-885,889,o),
(-785,920,qs),
(-713,943,o),
(-669,1046,q),
(-569,1011,o),
(-543,1011,qs),
(-540,1011,ls),
(-491,1011,o),
(-470,1170,q),
(-470,1186,ls),
(-475,1267,o),
(-557,1276,q),
(-587,1274,o)
);
},
{
closed = 1;
nodes = (
(-589,1165,qs),
(-586,1165,l),
(-521,1154,o),
(-522,1119,qs),
(-522,1117,o),
(-530,1119,qs),
(-625,1143,l),
(-625,1143,o),
(-625,1143,q),
(-609,1165,o)
);
}
);
width = 0;
}
);
note = u06D8;
unicode = 1752;
},
{
glyphname = u06D9;
layers = (
{
.lastUpdate = 730757475.31;
layerId = m01;
shapes = (
{
closed = 1;
nodes = (
(-639,1299,q),
(-631,1176,l),
(-624,1055,l),
(-632,1033,o),
(-698,971,q),
(-759,933,o),
(-796,916,qs),
(-860,886,l),
(-860,873,l),
(-854,868,l),
(-814,868,o),
(-713,900,q),
(-589,966,o),
(-589,1141,q),
(-592,1187,l),
(-571,1274,l),
(-571,1289,o),
(-590,1306,q),
(-613,1377,l),
(-626,1377,o)
);
},
{
closed = 1;
nodes = (
(-933,1284,l),
(-933,1278,l),
(-869,1215,o),
(-844,1167,q),
(-833,1173,o),
(-829,1213,q),
(-697,1118,o),
(-697,1036,qs),
(-697,1022,l),
(-700,1002,ls),
(-701,982,o),
(-683,991,q),
(-676,1015,o),
(-673,1095,qs),
(-673,1149,o),
(-733,1227,q),
(-896,1372,o),
(-930,1374,q),
(-939,1365,l)
);
}
);
width = 0;
}
);
note = u06D9;
unicode = 1753;
},
{
glyphname = u06DA;
layers = (
{
.lastUpdate = 730757475.31;
layerId = m01;
shapes = (
{
closed = 1;
nodes = (
(-803,1365,q),
(-857,1365,o),
(-882,1267,q),
(-882,1259,l),
(-874,1251,l),
(-844,1286,o),
(-825,1286,qs),
(-783,1286,l),
(-877,1204,o),
(-877,1075,qs),
(-877,996,o),
(-837,938,q),
(-802,872,o),
(-676,872,q),
(-579,888,o),
(-548,901,qs),
(-469,930,o),
(-469,948,qs),
(-469,953,l),
(-474,958,l),
(-502,958,l),
(-639,948,l),
(-725,955,l),
(-847,997,o),
(-847,1102,qs),
(-847,1180,o),
(-773,1242,q),
(-706,1291,o),
(-651,1291,qs),
(-606,1291,o),
(-592,1361,q),
(-592,1366,l),
(-596,1372,l),
(-793,1362,o)
);
},
{
closed = 1;
nodes = (
(-732,1101,q),
(-732,1073,o),
(-676,1059,q),
(-645,1095,o),
(-645,1113,qs),
(-645,1118,l),
(-680,1154,o),
(-699,1154,qs),
(-705,1154,l),
(-723,1130,o)
);
}
);
width = 0;
}
);
note = u06DA;
unicode = 1754;
},
{
glyphname = u06DB;
layers = (
{
.lastUpdate = 730757475.31;
layerId = m01;
shapes = (
{
closed = 1;
nodes = (
(-827,1122,q),
(-724,1056,o),
(-702,1056,qs),
(-696,1056,l),
(-626,1164,l),
(-626,1204,o),
(-749,1255,q),
(-776,1255,o)
);
},
{
closed = 1;
nodes = (
(-713,964,q),
(-671,915,o),
(-582,881,q),
(-515,968,o),
(-506,995,q),
(-506,1033,o),
(-640,1090,q),
(-683,1057,o)
);
},
{
closed = 1;
nodes = (
(-890,960,qs),
(-890,952,l),
(-821,887,o),
(-787,887,qs),
(-776,887,l),
(-711,979,o),
(-711,1010,q),
(-795,1091,o),
(-830,1091,q),
(-890,994,o)
);
}
);
width = 0;
}
);
note = u06DB;
unicode = 1755;
},
{
glyphname = u06DC;
layers = (
{
.lastUpdate = 730757475.31;
anchors = (
{
name = _top;
pos = (270,1245);
}
);
layerId = m01;
shapes = (
{
closed = 1;
nodes = (
(458,1591,o),
(440,1591,qs),
(437,1591,ls),
(415,1591,o),
(403,1608,q),
(405,1616,l),
(405,1627,l),
(399,1633,l),
(392,1633,l),
(389,1629,l),
(373,1584,o),
(344,1584,qs),
(342,1584,ls),
(302,1584,o),
(275,1624,q),
(271,1624,l),
(264,1617,l),
(264,1569,l),
(266,1555,l),
(297,1513,o),
(301,1481,q),
(301,1481,l),
(245,1398,o),
(167,1398,qs),
(148,1398,l),
(125,1400,l),
(30,1433,o),
(30,1502,q),
(34,1531,o),
(43,1551,q),
(79,1610,l),
(79,1617,l),
(73,1622,l),
(12,1596,o),
(5,1479,qs),
(5,1470,l),
(7,1436,l),
(50,1320,o),
(153,1320,qs),
(162,1320,ls),
(227,1321,o),
(307,1415,o),
(319,1487,qs),
(321,1496,o),
(320,1509,q),
(339,1507,l),
(372,1507,o),
(386,1544,q),
(383,1544,l),
(383,1527,o),
(430,1514,q),
(480,1514,o),
(480,1596,qs),
(480,1605,ls),
(479,1657,o),
(468,1657,qs),
(460,1657,l),
(458,1626,ls)
);
}
);
width = 0;
}
);
note = u06DC;
unicode = 1756;
},
{
glyphname = u06DD;
layers = (
{
.lastUpdate = 730757475.31;
anchors = (
{
name = class0;
pos = (440,100);
}
);
layerId = m01;
shapes = (
{
closed = 1;
nodes = (
(1181,219,o),
(1113,105,o),
(1019,10,o),
(903,-57,o),
(770,-95,o),
(700,-95,qs),
(628,-95,o),
(496,-57,o),
(382,10,o),
(287,105,o),
(220,219,o),
(182,351,o),
(182,423,qs),
(182,493,o),
(220,626,o),
(287,742,o),
(382,836,o),
(496,904,o),
(628,940,o),
(701,940,qs),
(772,940,o),
(903,904,o),
(1020,836,o),
(1113,742,o),
(1181,626,o),
(1217,493,o),
(1217,423,qs),
(1217,351,o)
);
},
{
closed = 1;
nodes = (
(1276,667,o),
(1196,805,o),
(1082,919,o),
(944,999,o),
(784,1043,o),
(699,1043,qs),
(612,1043,o),
(453,999,o),
(316,919,o),
(202,805,o),
(122,667,o),
(77,507,o),
(77,422,qs),
(77,336,o),
(122,175,o),
(202,39,o),
(316,-75,o),
(453,-155,o),
(614,-200,o),
(700,-200,qs),
(785,-200,o),
(944,-155,o),
(1083,-75,o),
(1196,39,o),
(1276,175,o),
(1321,336,o),
(1321,422,qs),
(1321,507,o)
);
}
);
width = 1399;
}
);
note = u06DD;
unicode = 1757;
},
{
glyphname = u06DE;
layers = (
{
.lastUpdate = 730757475.31;
layerId = m01;
shapes = (
{
closed = 1;
nodes = (
(1074,711,l),
(1046,740,ls),
(992,796,o),
(941,802,q),
(950,828,l),
(957,850,l),
(967,897,l),
(968,923,l),
(973,994,l),
(975,996,o),
(975,1006,qs),
(975,1018,l),
(976,1039,l),
(934,1030,l),
(931,1028,o),
(919,1028,qs),
(907,1028,l),
(865,1023,l),
(835,1023,l),
(764,1015,l),
(730,1004,l),
(724,1021,l),
(720,1038,l),
(712,1059,l),
(692,1092,l),
(675,1119,l),
(661,1147,l),
(617,1226,l),
(592,1261,l),
(573,1285,l),
(544,1247,l),
(513,1199,l),
(498,1173,l),
(485,1148,l),
(455,1094,l),
(433,1059,ls),
(422,1042,o),
(422,1024,q),
(417,1009,l),
(415,1004,l),
(404,1013,o),
(392,1015,qs),
(373,1018,l),
(369,1021,o),
(346,1022,qs),
(153,1031,l),
(157,1003,l),
(168,956,l),
(176,929,l),
(181,924,o),
(181,905,q),
(185,876,l),
(192,840,l),
(196,825,l),
(204,802,l),
(122,769,o),
(100,740,q),
(71,712,l),
(53,694,l),
(38,681,l),
(9,653,l),
(0,642,l),
(35,611,l),
(69,578,l),
(100,546,ls),
(126,519,o),
(158,500,q),
(204,485,l),
(196,460,l),
(189,442,l),
(180,375,l),
(179,337,l),
(173,254,l),
(307,264,l),
(342,265,l),
(376,269,l),
(415,282,l),
(419,277,o),
(422,262,q),
(433,227,l),
(478,153,l),
(485,139,ls),
(549,30,o),
(573,0,q),
(622,65,o),
(661,139,qs),
(675,166,l),
(710,222,l),
(712,227,l),
(717,235,o),
(719,243,q),
(724,248,o),
(724,261,qs),
(724,282,o),
(730,282,q),
(743,272,o),
(758,269,q),
(763,264,o),
(801,264,qs),
(835,264,l),
(927,254,l),
(993,249,l),
(984,297,l),
(974,347,l),
(961,418,l),
(951,457,l),
(941,485,l),
(979,495,o),
(999,509,qs),
(1024,526,l),
(1046,546,l),
(1064,567,l),
(1077,581,l),
(1095,597,l),
(1111,609,l),
(1138,633,l),
(1147,642,l),
(1111,677,l)
);
},
{
closed = 1;
nodes = (
(881,870,l),
(868,839,o),
(833,807,q),
(826,813,l),
(825,817,l),
(848,908,l),
(817,915,o),
(735,915,q),
(725,922,o),
(725,931,q),
(781,946,l),
(790,951,o),
(800,951,q),
(803,953,o),
(817,953,q),
(839,957,l),
(901,958,l),
(891,911,l)
);
},
{
closed = 1;
nodes = (
(627,981,l),
(598,1028,l),
(574,1064,l),
(550,1030,l),
(522,989,l),
(509,975,ls),
(501,968,o),
(491,968,q),
(485,993,l),
(520,1100,o),
(573,1162,q),
(637,1086,o),
(661,993,q),
(649,964,l)
);
},
{
closed = 1;
nodes = (
(886,553,q),
(860,558,l),
(880,571,l),
(898,580,l),
(909,589,l),
(921,603,l),
(930,621,l),
(938,647,l),
(928,674,l),
(918,693,l),
(908,706,l),
(877,724,l),
(860,731,o),
(860,737,q),
(886,740,l),
(973,740,o),
(1033,647,q),
(975,553,o)
);
},
{
closed = 1;
nodes = (
(794,343,l),
(730,360,l),
(734,369,l),
(740,375,l),
(805,377,l),
(853,382,l),
(838,433,l),
(828,473,l),
(838,485,l),
(857,468,l),
(867,453,l),
(885,422,l),
(900,376,ls),
(906,358,o),
(906,334,q),
(829,336,l)
);
},
{
closed = 1;
nodes = (
(716,500,qs),
(680,468,o),
(646,457,qs),
(602,442,o),
(571,445,qs),
(547,447,l),
(523,452,l),
(473,470,l),
(449,485,l),
(430,499,l),
(404,525,o),
(395,540,qs),
(365,591,o),
(365,642,qs),
(365,703,o),
(398,750,qs),
(462,842,o),
(571,842,q),
(608,838,l),
(645,828,l),
(680,810,l),
(713,786,ls),
(780,737,o),
(780,642,qs),
(780,556,o)
);
},
{
closed = 1;
nodes = (
(398,923,l),
(333,921,l),
(286,916,l),
(309,825,l),
(306,820,l),
(300,815,l),
(284,830,l),
(272,845,l),
(261,862,l),
(256,875,l),
(248,897,l),
(242,917,l),
(232,964,l),
(310,962,l),
(355,953,l),
(410,940,l),
(406,926,l)
);
},
{
closed = 1;
nodes = (
(259,549,qs),
(167,549,o),
(113,642,q),
(172,737,o),
(259,737,q),
(286,732,l),
(266,719,l),
(248,710,l),
(235,701,ls),
(228,696,o),
(225,689,qs),
(216,669,l),
(208,642,l),
(216,618,ls),
(223,596,o),
(237,584,q),
(246,573,o),
(264,568,q),
(284,559,o),
(286,553,q),
(279,549,o)
);
},
{
closed = 1;
nodes = (
(623,225,l),
(600,189,l),
(573,149,l),
(533,198,l),
(510,235,l),
(499,260,l),
(491,280,ls),
(486,291,o),
(486,300,qs),
(485,319,l),
(491,344,l),
(526,315,l),
(550,282,l),
(574,247,l),
(596,284,l),
(627,329,ls),
(638,345,o),
(649,345,q),
(661,319,l),
(641,265,l)
);
},
{
closed = 1;
nodes = (
(323,332,l),
(265,329,l),
(239,329,l),
(248,378,l),
(261,418,l),
(280,453,o),
(307,480,q),
(314,474,l),
(317,470,l),
(305,422,l),
(292,378,l),
(304,378,o),
(370,373,qs),
(383,372,o),
(405,372,q),
(412,361,l),
(415,355,l),
(370,342,l)
);
},
{
closed = 1;
nodes = (
(616,747,o),
(573,747,qs),
(458,747,o),
(458,642,qs),
(458,595,o),
(525,540,o),
(573,540,qs),
(616,540,o),
(653,568,q),
(686,625,o),
(686,642,qs),
(686,684,o)
);
}
);
width = 1147;
}
);
note = u06DE;
unicode = 1758;
},
{
glyphname = u06E0;
layers = (
{
.lastUpdate = 730757475.31;
layerId = m01;
shapes = (
{
closed = 1;
nodes = (
(-877,1426,o),
(-920,1404,qs),
(-952,1388,o),
(-1110,1338,qs),
(-1125,1333,o),
(-1161,1272,qs),
(-1183,1236,o),
(-1195,1192,qs),
(-1206,1150,o),
(-1206,1060,o),
(-1195,1018,qs),
(-1183,974,o),
(-1161,938,qs),
(-1121,873,o),
(-1109,872,qs),
(-1068,869,o),
(-971,837,qs),
(-921,820,o),
(-821,789,o),
(-746,789,qs),
(-701,789,o),
(-658,801,q),
(-574,833,o),
(-570,833,q),
(-557,838,o),
(-400,884,qs),
(-385,889,o),
(-349,950,qs),
(-327,986,o),
(-315,1030,qs),
(-304,1072,o),
(-304,1162,o),
(-315,1204,qs),
(-327,1248,o),
(-349,1284,qs),
(-370,1320,o),
(-401,1350,qs),
(-402,1351,o),
(-570,1403,qs),
(-614,1416,o),
(-646,1430,qs),
(-691,1450,o),
(-746,1450,qs),
(-791,1450,o)
);
},
{
closed = 1;
nodes = (
(-724,881,qs),
(-754,881,o),
(-807,892,o),
(-853,916,o),
(-886,951,o),
(-905,1001,o),
(-905,1031,qs),
(-905,1103,o),
(-838,1162,q),
(-871,1185,o),
(-898,1224,o),
(-898,1249,qs),
(-898,1280,o),
(-880,1311,qs),
(-866,1334,o),
(-827,1358,o),
(-805,1358,qs),
(-779,1358,o),
(-737,1333,o),
(-718,1308,q),
(-725,1299,l),
(-754,1312,o),
(-787,1312,qs),
(-819,1312,o),
(-868,1287,o),
(-868,1273,qs),
(-868,1260,o),
(-852,1236,o),
(-833,1222,qs),
(-821,1213,o),
(-796,1200,o),
(-790,1200,qs),
(-783,1200,o),
(-768,1207,qs),
(-712,1234,o),
(-659,1254,q),
(-657,1253,l),
(-672,1200,l),
(-760,1166,o),
(-810,1136,qs),
(-841,1118,o),
(-877,1070,o),
(-877,1047,qs),
(-877,1014,o),
(-831,962,o),
(-747,933,o),
(-693,933,qs),
(-635,933,o),
(-590,945,q),
(-587,938,l),
(-625,909,o),
(-655,892,qs),
(-676,881,o)
);
}
);
width = 0;
}
);
note = u06E0;
unicode = 1760;
},
{
glyphname = u06E1;
layers = (
{
.lastUpdate = 730757475.31;
anchors = (
{
name = _top;
pos = (264,1290);
}
);
layerId = m01;
shapes = (
{
closed = 1;
nodes = (
(332,1492,o),
(319,1470,o),
(301,1452,o),
(278,1439,o),
(253,1432,o),
(239,1432,qs),
(225,1432,o),
(200,1439,o),
(178,1452,o),
(159,1470,o),
(146,1492,o),
(139,1518,o),
(139,1532,qs),
(139,1545,o),
(146,1571,o),
(159,1593,o),
(178,1612,o),
(200,1625,o),
(225,1632,o),
(239,1632,qs),
(253,1632,o),
(278,1625,o),
(301,1612,o),
(319,1593,o),
(332,1571,o),
(339,1545,o),
(339,1532,qs),
(339,1518,o)
);
},
{
closed = 1;
nodes = (
(378,1591,o),
(359,1624,o),
(331,1652,o),
(298,1671,o),
(260,1682,o),
(239,1682,qs),
(218,1682,o),
(180,1671,o),
(147,1652,o),
(119,1624,o),
(100,1591,o),
(89,1552,o),
(89,1532,qs),
(89,1511,o),
(100,1472,o),
(119,1439,o),
(147,1412,o),
(180,1392,o),
(218,1381,o),
(239,1381,qs),
(260,1381,o),
(298,1392,o),
(332,1412,o),
(359,1439,o),
(378,1472,o),
(389,1511,o),
(389,1532,qs),
(389,1552,o)
);
}
);
width = 0;
}
);
note = u06E1;
unicode = 1761;
},
{
glyphname = u06E2;
layers = (
{
.lastUpdate = 730757475.31;
anchors = (
{
name = _top;
pos = (240,1015);
}
);
layerId = m01;
shapes = (
{
closed = 1;
nodes = (
(88,1390,q),
(63,1382,ls),
(12,1366,o),
(15,1294,q),
(19,1262,l),
(79,926,l),
(98,929,o),
(108,970,q),
(84,1212,o),
(58,1293,q),
(58,1302,ls),
(58,1318,o),
(135,1323,q),
(232,1323,o),
(232,1392,q),
(211,1482,o),
(145,1485,q),
(88,1476,o)
);
},
{
closed = 1;
nodes = (
(174,1400,q),
(152,1392,o),
(123,1395,q),
(123,1398,o),
(133,1409,q),
(173,1420,o)
);
}
);
width = 24;
}
);
note = u06E2;
unicode = 1762;
},
{
glyphname = u06E3;
layers = (
{
.lastUpdate = 730757475.31;
layerId = m01;
shapes = (
{
closed = 1;
nodes = (
(-950,982,o),
(-933,939,qs),
(-909,888,o),
(-809,888,qs),
(-521,888,o),
(-453,982,q),
(-439,1006,o),
(-459,998,qs),
(-572,954,o),
(-760,950,q),
(-766,953,l),
(-766,1046,o),
(-857,1063,q),
(-912,1063,o)
);
},
{
closed = 1;
nodes = (
(-866,1010,qs),
(-816,1010,o),
(-816,957,qs),
(-816,954,l),
(-891,964,o),
(-891,993,q),
(-887,1010,o)
);
}
);
width = 0;
}
);
note = u06E3;
unicode = 1763;
},
{
glyphname = u06E4;
layers = (
{
.lastUpdate = 730757475.31;
anchors = (
{
name = _top;
pos = (260,1296);
}
);
layerId = m01;
shapes = (
{
closed = 1;
nodes = (
(521,1647,qs),
(436,1522,o),
(292,1522,q),
(167,1533,l),
(87,1533,o),
(-29,1386,q),
(-33,1366,o),
(-17,1370,q),
(80,1451,o),
(119,1451,q),
(249,1435,l),
(438,1435,o),
(543,1642,q),
(544,1655,o),
(526,1655,o)
);
}
);
width = 0;
}
);
note = u06E4;
unicode = 1764;
},
{
glyphname = u06E5;
layers = (
{
.lastUpdate = 730757475.31;
layerId = m01;
shapes = (
{
closed = 1;
nodes = (
(-1165,1003,o),
(-1165,1002,o)
);
},
{
closed = 1;
nodes = (
(-1081,1249,q),
(-1062,1227,o),
(-1023,1212,q),
(-997,1250,o),
(-993,1263,q),
(-993,1281,o),
(-1049,1306,q),
(-1067,1291,o)
);
},
{
closed = 1;
nodes = (
(-1155,1237,qs),
(-1155,1232,l),
(-1126,1204,o),
(-1110,1204,qs),
(-1105,1204,l),
(-1078,1244,o),
(-1078,1259,q),
(-1114,1295,o),
(-1129,1295,q),
(-1155,1253,o)
);
},
{
closed = 1;
nodes = (
(-597,1219,q),
(-647,1246,o),
(-655,1246,qs),
(-666,1246,o),
(-684,1180,q),
(-659,1156,o),
(-625,1149,q),
(-620,1150,o),
(-597,1190,q),
(-597,1189,l),
(-542,1166,o),
(-531,1166,q),
(-497,1201,o),
(-497,1218,qs),
(-497,1223,l),
(-528,1251,o),
(-571,1262,q),
(-597,1228,o)
);
},
{
closed = 1;
nodes = (
(-867,1169,q),
(-860,1160,o),
(-809,1135,q),
(-796,1135,o),
(-770,1190,q),
(-801,1232,o),
(-834,1232,q),
(-867,1194,o)
);
},
{
closed = 1;
nodes = (
(-821,1035,q),
(-770,1030,o),
(-761,1004,q),
(-780,992,o),
(-802,988,q),
(-833,998,o),
(-846,1021,q),
(-846,1024,ls),
(-846,1028,o)
);
},
{
closed = 1;
nodes = (
(-461,1120,o),
(-471,1041,qs),
(-471,1037,ls),
(-471,988,o),
(-402,988,qs),
(-389,988,l),
(-366,995,l),
(-366,996,l),
(-368,990,l),
(-368,975,o),
(-532,891,q),
(-527,880,o),
(-514,875,q),
(-417,887,o),
(-391,909,q),
(-351,952,o),
(-339,999,q),
(-338,1011,o),
(-339,1024,qs),
(-341,1047,l),
(-363,1123,o),
(-409,1123,qs),
(-419,1123,l),
(-431,1120,l)
);
},
{
closed = 1;
nodes = (
(-886,884,ls),
(-875,884,o),
(-809,902,q),
(-772,884,o),
(-702,884,qs),
(-676,884,ls),
(-611,884,o),
(-587,899,q),
(-518,928,o),
(-518,1019,qs),
(-518,1023,l),
(-522,1049,l),
(-551,1138,o),
(-612,1138,qs),
(-624,1138,ls),
(-660,1138,o),
(-667,1053,qs),
(-667,1050,ls),
(-667,1003,o),
(-597,996,qs),
(-594,996,ls),
(-581,996,o),
(-554,1005,qs),
(-549,1007,o),
(-545,999,q),
(-548,992,l),
(-585,964,o),
(-663,967,qs),
(-676,967,ls),
(-688,967,o),
(-697,967,qs),
(-706,967,ls),
(-748,967,o),
(-747,968,q),
(-731,1000,o),
(-731,1035,qs),
(-731,1048,l),
(-739,1112,o),
(-803,1115,qs),
(-836,1117,o),
(-896,1064,o),
(-879,981,q),
(-871,968,l),
(-886,967,ls),
(-914,963,o),
(-944,964,q),
(-949,965,ls),
(-1011,972,o),
(-1017,1041,qs),
(-1020,1073,o),
(-1022,1105,qs),
(-1026,1146,o),
(-1062,1130,q),
(-1062,1130,l),
(-1105,1097,o),
(-1116,1086,qs),
(-1165,1040,o),
(-1165,1003,qs),
(-1165,991,o),
(-1144,1008,qs),
(-1084,1055,ls),
(-1057,1077,o),
(-1050,1042,qs),
(-1035,969,l),
(-1030,953,ls),
(-1007,884,o),
(-940,884,q),
(-940,884,l)
);
}
);
width = 0;
}
);
note = u06E5;
unicode = 1765;
},
{
glyphname = u06E6;
layers = (
{
.lastUpdate = 730757475.31;
layerId = m01;
shapes = (
{
closed = 1;
nodes = (
(-556,1258,o),
(-560,1272,o),
(-569,1286,o),
(-578,1291,q),
(-594,1277,o),
(-594,1265,q),
(-642,1184,o),
(-691,1177,q),
(-756,1177,o),
(-786,1218,qs),
(-826,1273,o),
(-832,1285,q),
(-847,1296,o),
(-850,1279,qs),
(-855,1243,o),
(-831,1199,qs),
(-766,1067,o),
(-693,1049,qs),
(-677,1044,o),
(-651,1048,q),
(-658,907,o),
(-599,780,qs),
(-587,755,o),
(-570,755,q),
(-557,767,l),
(-565,807,l),
(-566,820,o),
(-566,888,qs),
(-566,1038,o),
(-534,1169,q),
(-527,1180,o),
(-527,1192,qs),
(-527,1211,o)
);
}
);
width = 0;
}
);
note = u06E6;
unicode = 1766;
},
{
glyphname = u06E7;
layers = (
{
.lastUpdate = 730757475.31;
anchors = (
{
name = _top;
pos = (270,1245);
}
);
layerId = m01;
shapes = (
{
closed = 1;
nodes = (
(47,1447,qs),
(19,1428,o),
(14,1407,q),
(1,1385,o),
(4,1373,qs),
(10,1350,o),
(79,1341,qs),
(107,1337,o),
(146,1336,qs),
(283,1339,o),
(340,1342,qs),
(358,1343,o),
(435,1361,o),
(455,1369,qs),
(467,1374,o),
(467,1378,qs),
(467,1385,o),
(435,1389,q),
(412,1389,o),
(369,1388,qs),
(314,1386,o),
(292,1385,qs),
(255,1384,o),
(219,1383,qs),
(181,1383,o),
(146,1385,qs),
(102,1389,o),
(87,1392,qs),
(42,1400,o),
(42,1410,qs),
(42,1411,o),
(43,1412,q),
(98,1439,o),
(130,1455,qs),
(149,1465,o),
(162,1495,q),
(173,1531,l),
(175,1545,o),
(189,1543,q),
(202,1527,o),
(207,1507,qs),
(210,1498,o),
(213,1488,q),
(216,1482,o),
(219,1482,qs),
(223,1482,o),
(226,1491,q),
(224,1538,o),
(198,1577,q),
(183,1591,o),
(164,1570,o),
(159,1547,qs),
(151,1516,o),
(145,1498,o),
(129,1489,q),
(78,1468,o)
);
}
);
width = 0;
}
);
note = u06E7;
unicode = 1767;
},
{
glyphname = u06E8;
layers = (
{
.lastUpdate = 730757475.31;
anchors = (
{
name = bottom;
pos = (116,1322);
},
{
name = bottom_;
pos = (96,1375);
},
{
name = top;
pos = (187,1704);
},
{
name = top_;
pos = (103,1768);
}
);
layerId = m01;
shapes = (
{
closed = 1;
nodes = (
(265,1601,l),
(303,1496,l),
(303,1492,o),
(271,1465,q),
(192,1414,o),
(134,1414,qs),
(111,1414,o),
(48,1438,q),
(-16,1482,o),
(-16,1542,q),
(-13,1574,o),
(-3,1592,q),
(36,1646,o),
(36,1657,q),
(28,1664,l),
(22,1664,l),
(19,1660,l),
(-48,1592,o),
(-48,1515,qs),
(-48,1424,o),
(24,1361,q),
(46,1345,o),
(120,1329,q),
(211,1329,o),
(277,1400,q),
(324,1445,o),
(324,1543,q),
(322,1555,l),
(284,1680,o),
(272,1680,qs),
(265,1680,l),
(262,1621,l)
);
},
{
closed = 1;
nodes = (
(90,1560,q),
(90,1539,o),
(164,1514,q),
(197,1551,o),
(199,1575,qs),
(199,1583,l),
(168,1617,o),
(129,1626,q),
(122,1626,l),
(108,1610,o)
);
}
);
width = 244;
}
);
note = u06E8;
unicode = 1768;
},
{
glyphname = u06E9;
layers = (
{
.lastUpdate = 730757475.311;
layerId = m01;
shapes = (
{
closed = 1;
nodes = (
(-366,1181,q),
(-351,1092,o),
(-342,1011,q),
(-344,1006,o),
(-359,1006,qs),
(-363,1006,l),
(-381,1011,o),
(-381,1012,qs),
(-381,1034,l),
(-388,1041,l),
(-392,1041,l),
(-411,1003,o),
(-414,1002,q),
(-421,1002,ls),
(-434,1002,o),
(-439,1015,q),
(-437,1024,l),
(-437,1040,o),
(-447,1043,q),
(-450,1043,l),
(-468,1000,o),
(-481,1000,qs),
(-497,1002,o),
(-507,1009,q),
(-512,1038,o),
(-519,1038,qs),
(-523,1038,l),
(-551,989,o),
(-584,989,q),
(-607,993,o),
(-612,996,q),
(-615,992,l),
(-590,992,o),
(-583,1043,q),
(-589,1056,l),
(-627,1053,l),
(-633,1053,l),
(-716,1081,o),
(-740,1086,q),
(-755,1086,ls),
(-793,1086,o),
(-808,1025,q),
(-799,1016,l),
(-795,1016,l),
(-780,1043,o),
(-759,1043,qs),
(-755,1043,ls),
(-724,1043,o),
(-696,1028,q),
(-748,1011,o),
(-783,1011,qs),
(-794,1011,ls),
(-862,1011,o),
(-887,1072,q),
(-902,1135,o),
(-912,1135,qs),
(-919,1135,o),
(-921,1106,qs),
(-921,1101,l),
(-919,1100,l),
(-921,1089,l),
(-910,1042,l),
(-913,1014,l),
(-913,977,o),
(-961,968,q),
(-974,968,ls),
(-999,968,o),
(-1018,1016,q),
(-1024,1092,o),
(-1032,1092,qs),
(-1034,1092,ls),
(-1043,1091,o),
(-1043,1070,qs),
(-1043,1038,l),
(-1030,904,o),
(-972,904,qs),
(-967,904,ls),
(-923,904,o),
(-902,959,q),
(-892,1001,o),
(-891,1001,q),
(-866,947,o),
(-796,947,q),
(-755,951,l),
(-642,988,l),
(-642,988,l),
(-642,967,ls),
(-642,937,o),
(-590,930,q),
(-582,930,ls),
(-559,930,o),
(-531,968,q),
(-533,968,l),
(-533,947,o),
(-489,938,q),
(-461,946,o),
(-461,960,q),
(-463,960,l),
(-444,941,o),
(-425,938,q),
(-401,949,o),
(-401,960,q),
(-403,960,l),
(-386,945,o),
(-369,945,qs),
(-359,945,ls),
(-325,945,o),
(-317,1027,q),
(-326,1121,l),
(-321,1166,l),
(-321,1169,l),
(-346,1236,l),
(-357,1236,o)
);
},
{
closed = 1;
nodes = (
(-1147,1201,o),
(-1159,1201,q),
(-1180,1177,o),
(-1183,1156,q),
(-1181,1147,o),
(-1139,1123,q),
(-1117,1150,o),
(-1117,1153,q),
(-1085,1136,l),
(-1080,1136,l),
(-1057,1158,o),
(-1054,1181,q),
(-1070,1203,o),
(-1098,1210,q),
(-1101,1210,l),
(-1118,1181,l)
);
},
{
closed = 1;
nodes = (
(-291,1158,q),
(-267,994,o),
(-267,930,q),
(-262,930,ls),
(-253,930,o),
(-242,975,q),
(-245,1057,o),
(-253,1106,q),
(-245,1135,l),
(-248,1136,l),
(-246,1142,l),
(-246,1148,l),
(-268,1204,o),
(-273,1206,q),
(-282,1206,o)
);
},
{
closed = 1;
nodes = (
(-1124,1094,q),
(-1167,1122,l),
(-1178,1122,o),
(-1178,1078,qs),
(-1178,1070,ls),
(-1178,1062,o),
(-1164,1055,q),
(-1189,1022,o),
(-1189,980,qs),
(-1189,971,l),
(-1183,921,o),
(-1145,921,qs),
(-1143,921,ls),
(-1069,921,o),
(-1069,1012,qs),
(-1069,1048,o),
(-1101,1078,q),
(-1082,1092,o),
(-1074,1116,q),
(-1074,1128,o),
(-1082,1128,q),
(-1104,1107,o)
);
},
{
closed = 1;
nodes = (
(-1096,997,q),
(-1112,983,o),
(-1128,983,qs),
(-1130,983,ls),
(-1159,983,o),
(-1165,1001,q),
(-1151,1033,o),
(-1143,1041,q),
(-1106,1017,o)
);
},
{
closed = 1;
nodes = (
(-752,899,q),
(-752,886,o),
(-708,872,q),
(-695,872,o),
(-681,917,q),
(-681,922,l),
(-690,933,o),
(-730,944,q),
(-747,920,o)
);
}
);
width = 0;
}
);
note = u06E9;
unicode = 1769;
},
{
glyphname = u06EA;
layers = (
{
.lastUpdate = 730757475.31;
layerId = m01;
shapes = (
{
closed = 1;
nodes = (
(-663,1218,q),
(-669,1218,l),
(-718,1229,o),
(-757,1276,q),
(-764,1278,o),
(-771,1266,q),
(-771,1189,l),
(-726,1119,o),
(-726,1108,q),
(-729,1086,o),
(-733,1066,q),
(-794,978,o),
(-906,978,qs),
(-969,978,o),
(-1017,1007,q),
(-1072,1068,o),
(-1072,1104,qs),
(-1072,1120,ls),
(-1072,1153,o),
(-1054,1177,qs),
(-1002,1247,o),
(-1002,1261,qs),
(-1002,1269,l),
(-1014,1269,l),
(-1031,1260,l),
(-1084,1210,o),
(-1110,1093,q),
(-1111,1032,o),
(-1093,980,q),
(-1034,869,o),
(-934,869,qs),
(-928,869,ls),
(-865,869,o),
(-796,917,q),
(-701,1005,o),
(-701,1098,qs),
(-701,1124,l),
(-666,1112,o),
(-605,1112,qs),
(-598,1112,ls),
(-490,1112,o),
(-437,1158,qs),
(-409,1182,o),
(-387,1263,q),
(-387,1271,ls),
(-387,1349,o),
(-493,1359,q),
(-506,1359,ls),
(-602,1359,o)
);
},
{
closed = 1;
nodes = (
(-506,1272,qs),
(-493,1272,ls),
(-452,1272,o),
(-425,1245,q),
(-425,1248,l),
(-484,1212,o),
(-579,1212,q),
(-617,1217,l),
(-581,1272,o)
);
}
);
width = 0;
}
);
note = u06EA;
unicode = 1770;
},
{
glyphname = u06EB;
layers = (
{
.lastUpdate = 730757475.311;
layerId = m01;
shapes = (
{
closed = 1;
nodes = (
(-520,1295,q),
(-569,1328,o),
(-577,1328,qs),
(-589,1328,o),
(-607,1248,q),
(-581,1218,o),
(-547,1210,q),
(-540,1211,o),
(-519,1260,q),
(-519,1257,l),
(-464,1230,o),
(-453,1230,q),
(-418,1273,o),
(-418,1293,qs),
(-418,1299,l),
(-449,1333,o),
(-492,1348,q),
(-520,1305,o)
);
},
{
closed = 1;
nodes = (
(-770,1220,q),
(-766,1200,l),
(-729,1185,o),
(-715,1170,q),
(-710,1170,l),
(-682,1210,o),
(-680,1233,qs),
(-680,1249,l),
(-685,1266,o),
(-734,1288,q),
(-746,1288,o)
);
},
{
closed = 1;
nodes = (
(-695,1050,qs),
(-690,1050,ls),
(-664,1050,o),
(-650,1021,q),
(-650,1018,l),
(-687,1002,l),
(-719,1024,o),
(-727,1041,q),
(-727,1048,o)
);
},
{
closed = 1;
nodes = (
(-606,986,q),
(-637,981,l),
(-636,981,l),
(-636,978,l),
(-629,1004,o),
(-624,1067,q),
(-624,1130,o),
(-675,1145,q),
(-697,1145,ls),
(-756,1145,o),
(-756,1028,q),
(-749,983,l),
(-789,970,o),
(-844,970,qs),
(-874,970,ls),
(-1009,970,o),
(-1030,1065,q),
(-1030,1065,l),
(-1002,1124,o),
(-1002,1140,q),
(-1010,1148,l),
(-1043,1148,o),
(-1059,1017,q),
(-1056,989,l),
(-1014,878,o),
(-894,878,qs),
(-862,878,ls),
(-775,878,o),
(-697,916,q),
(-665,887,o),
(-624,887,qs),
(-622,887,ls),
(-604,887,o),
(-588,887,qs),
(-503,887,o),
(-480,904,q),
(-412,940,o),
(-411,1051,qs),
(-411,1057,l),
(-414,1087,l),
(-445,1199,o),
(-505,1196,qs),
(-518,1196,ls),
(-555,1196,o),
(-561,1091,qs),
(-561,1089,ls),
(-559,1031,o),
(-490,1022,qs),
(-487,1022,ls),
(-465,1022,o),
(-447,1034,q),
(-441,1034,o),
(-437,1025,q),
(-441,1017,l),
(-478,983,o),
(-540,988,q),
(-593,988,l),
(-593,987,l),
(-598,986,o)
);
}
);
width = 0;
}
);
note = u06EB;
unicode = 1771;
},
{
glyphname = u06EC;
layers = (
{
.lastUpdate = 730757475.311;
layerId = m01;
shapes = (
{
closed = 1;
nodes = (
(-600,1247,q),
(-694,1359,o),
(-694,1353,q),
(-696,1352,o),
(-699,1352,q),
(-790,1176,l),
(-812,1134,l),
(-835,1054,o),
(-835,978,qs),
(-835,954,o),
(-833,947,q),
(-824,891,o),
(-790,877,q),
(-749,869,o),
(-708,920,q),
(-710,923,o),
(-709,921,q),
(-709,921,o),
(-709,918,q),
(-690,871,o),
(-649,877,qs),
(-586,884,o),
(-571,936,q),
(-543,1008,ls),
(-526,1052,o),
(-526,1087,qs),
(-526,1145,o)
);
},
{
closed = 1;
nodes = (
(-586,1003,q),
(-600,996,o),
(-604,992,q),
(-656,992,o),
(-672,1023,q),
(-679,1048,o),
(-684,1063,q),
(-691,1067,o),
(-694,1060,qs),
(-702,1041,o),
(-712,1022,qs),
(-723,1000,o),
(-744,998,qs),
(-768,996,o),
(-780,1000,q),
(-799,1010,o),
(-799,1043,qs),
(-799,1082,o),
(-773,1128,qs),
(-744,1181,o),
(-708,1241,q),
(-624,1129,ls),
(-584,1076,o),
(-575,1014,q),
(-576,1010,o)
);
}
);
width = 0;
}
);
note = u06EC;
unicode = 1772;
},
{
glyphname = u06ED;
layers = (
{
.lastUpdate = 730757475.31;
anchors = (
{
name = _bottom;
pos = (228,-51);
}
);
layerId = m01;
shapes = (
{
closed = 1;
nodes = (
(197,-261,q),
(167,-271,ls),
(107,-290,o),
(111,-374,qs),
(115,-412,l),
(186,-807,l),
(208,-804,o),
(220,-756,q),
(192,-471,o),
(162,-375,q),
(162,-365,ls),
(162,-346,o),
(252,-340,q),
(366,-340,o),
(366,-259,q),
(342,-153,o),
(264,-150,q),
(197,-160,o)
);
},
{
closed = 1;
nodes = (
(298,-250,q),
(272,-259,o),
(238,-255,q),
(238,-252,o),
(250,-239,q),
(297,-226,o)
);
}
);
width = 0;
}
);
note = u06ED;
unicode = 1773;
},
{
glyphname = u06F0;
layers = (
{
.lastUpdate = 730757475.31;
layerId = m01;
shapes = (
{
closed = 1;
nodes = (
(545,504,q),
(371,610,o),
(265,738,q),
(252,738,l),
(117,555,o),
(40,432,q),
(40,421,l),
(203,243,o),
(305,192,q),
(333,181,o),
(342,190,q),
(548,489,l),
(548,498,o)
);
}
);
width = 600;
}
);
note = u06F0;
unicode = 1776;
},
{
glyphname = u06F1;
layers = (
{
.lastUpdate = 730757475.31;
layerId = m01;
shapes = (
{
closed = 1;
nodes = (
(277,888,o),
(277,913,q),
(272,931,o),
(269,939,q),
(254,941,o),
(235,933,q),
(177,839,o),
(122,734,q),
(112,682,o),
(122,592,q),
(127,499,o),
(130,450,qs),
(155,15,l),
(159,10,ls),
(174,-7,o),
(189,15,q),
(239,130,o),
(260,182,q),
(277,437,o),
(277,664,qs),
(277,883,o)
);
}
);
width = 399;
}
);
note = u06F1;
unicode = 1777;
},
{
glyphname = u06F2;
layers = (
{
.lastUpdate = 730757475.31;
layerId = m01;
shapes = (
{
closed = 1;
nodes = (
(570,932,q),
(548,920,o),
(545,905,q),
(450,773,o),
(381,773,qs),
(266,778,o),
(195,888,q),
(150,938,o),
(161,938,q),
(156,937,o),
(153,937,q),
(83,792,o),
(55,727,q),
(90,451,o),
(100,315,q),
(97,273,o),
(100,203,qs),
(102,118,o),
(102,95,qs),
(100,45,ls),
(100,11,o),
(102,0,q),
(105,0,o),
(113,8,q),
(183,138,o),
(201,183,q),
(228,440,o),
(231,573,q),
(279,558,o),
(283,558,qs),
(306,558,ls),
(406,558,o),
(500,705,qs),
(572,825,o),
(590,930,q),
(585,937,o)
);
}
);
width = 648;
}
);
note = u06F2;
unicode = 1778;
},
{
glyphname = u06F3;
layers = (
{
.lastUpdate = 730757475.31;
layerId = m01;
shapes = (
{
closed = 1;
nodes = (
(614,938,q),
(550,823,o),
(505,803,q),
(454,794,o),
(429,821,q),
(400,890,o),
(406,925,q),
(400,927,o),
(390,918,q),
(378,890,o),
(355,839,q),
(300,772,o),
(261,772,qs),
(155,772,o),
(118,937,q),
(102,937,o),
(99,932,q),
(38,772,o),
(27,717,q),
(41,559,o),
(48,499,q),
(62,290,o),
(59,35,q),
(62,-7,o),
(70,5,q),
(124,105,o),
(161,191,q),
(174,452,o),
(180,581,q),
(309,543,o),
(347,685,q),
(355,685,l),
(368,653,o),
(375,645,qs),
(398,618,o),
(429,618,qs),
(459,618,o),
(477,635,qs),
(550,704,o),
(582,798,q),
(628,888,o),
(628,930,q),
(623,938,o)
);
}
);
width = 653;
}
);
note = u06F3;
unicode = 1779;
},
{
glyphname = u06F4;
layers = (
{
.lastUpdate = 730757475.311;
layerId = m01;
shapes = (
{
closed = 1;
nodes = (
(608,938,q),
(500,865,o),
(420,703,q),
(417,703,l),
(414,887,o),
(275,887,qs),
(243,887,o),
(215,873,q),
(165,853,o),
(129,783,q),
(77,659,ls),
(38,573,o),
(38,445,qs),
(38,386,o),
(46,302,qs),
(57,183,o),
(60,165,q),
(66,22,o),
(72,1,q),
(77,0,o),
(82,1,q),
(85,12,o),
(87,13,q),
(140,148,o),
(173,204,q),
(148,397,l),
(137,520,o),
(162,598,qs),
(177,639,o),
(206,659,qs),
(224,671,o),
(246,676,qs),
(325,697,o),
(325,566,qs),
(325,547,o),
(309,471,q),
(308,457,o),
(304,443,q),
(304,425,o),
(309,416,q),
(322,409,o),
(333,420,q),
(417,652,o),
(574,787,q),
(602,855,o),
(627,931,q),
(621,938,o)
);
}
);
width = 654;
}
);
note = u06F4;
unicode = 1780;
},
{
glyphname = u06F5;
layers = (
{
.lastUpdate = 730757475.311;
layerId = m01;
shapes = (
{
closed = 1;
nodes = (
(328,939,o),
(328,939,q),
(320,937,o),
(317,932,qs),
(118,592,l),
(80,502,l),
(36,346,o),
(36,198,qs),
(36,149,o),
(36,141,q),
(54,28,o),
(115,2,q),
(194,-7,o),
(269,89,q),
(276,87,o),
(279,81,o),
(279,76,q),
(312,-6,o),
(388,2,qs),
(494,17,o),
(530,117,q),
(614,383,o),
(614,414,qs),
(614,527,o)
);
},
{
closed = 1;
nodes = (
(511,241,q),
(484,218,o),
(471,216,q),
(369,216,o),
(333,279,q),
(320,331,o),
(317,360,q),
(307,362,o),
(305,352,q),
(233,226,o),
(204,225,q),
(95,210,o),
(95,326,qs),
(95,408,o),
(144,501,qs),
(199,609,o),
(269,734,q),
(437,511,ls),
(519,399,o),
(534,265,q),
(529,251,o)
);
}
);
width = 651;
}
);
note = u06F5;
unicode = 1781;
},
{
glyphname = u06F6;
layers = (
{
.lastUpdate = 730757475.311;
layerId = m01;
shapes = (
{
closed = 1;
nodes = (
(542,881,o),
(533,908,o),
(522,930,o),
(510,937,q),
(486,917,o),
(486,897,q),
(401,747,o),
(312,736,q),
(199,736,o),
(145,809,q),
(78,910,o),
(67,928,q),
(47,944,o),
(44,923,qs),
(35,863,o),
(74,788,qs),
(186,556,o),
(309,524,qs),
(337,516,o),
(406,538,q),
(374,263,o),
(478,40,q),
(494,1,o),
(522,1,q),
(538,14,l),
(526,83,l),
(526,107,o),
(526,229,qs),
(526,497,o),
(579,736,q),
(591,752,o),
(591,771,qs),
(591,799,o)
);
}
);
width = 641;
}
);
note = u06F6;
unicode = 1782;
},
{
glyphname = u06F7;
layers = (
{
.lastUpdate = 730757475.311;
layerId = m01;
shapes = (
{
closed = 1;
nodes = (
(581,256,q),
(544,251,ls),
(358,228,o),
(143,228,qs),
(140,228,l),
(152,251,o),
(184,315,q),
(319,556,ls),
(431,757,o),
(447,789,q),
(467,937,l),
(464,939,o),
(462,939,q),
(338,720,o),
(292,636,qs),
(157,398,ls),
(31,177,o),
(31,56,qs),
(31,46,o),
(34,34,q),
(65,-1,o),
(103,-1,qs),
(314,6,o),
(532,34,q),
(544,29,o),
(550,54,qs),
(571,160,o),
(584,223,qs),
(590,251,o)
);
}
);
width = 628;
}
);
note = u06F7;
unicode = 1783;
},
{
glyphname = u06F8;
layers = (
{
.lastUpdate = 730757475.311;
layerId = m01;
shapes = (
{
closed = 1;
nodes = (
(341,916,q),
(334,940,o),
(315,940,qs),
(308,940,o),
(306,927,q),
(184,558,ls),
(110,327,o),
(58,191,q),
(37,159,o),
(37,114,qs),
(37,93,o),
(44,24,o),
(53,-5,o),
(58,-3,q),
(110,136,o),
(150,254,qs),
(281,639,l),
(285,639,l),
(308,568,o),
(315,536,q),
(471,141,l),
(513,61,o),
(538,9,qs),
(545,-3,o),
(554,16,q),
(607,196,o),
(611,235,q),
(414,715,o)
);
}
);
width = 644;
}
);
note = u06F8;
unicode = 1784;
},
{
glyphname = u06F9;
layers = (
{
.lastUpdate = 730757475.311;
layerId = m01;
shapes = (
{
closed = 1;
nodes = (
(368,900,q),
(326,949,o),
(258,938,qs),
(127,919,o),
(66,681,qs),
(46,601,o),
(46,543,qs),
(46,351,o),
(227,351,qs),
(266,351,o),
(314,364,q),
(316,368,o),
(319,363,q),
(324,192,o),
(319,11,qs),
(319,5,o),
(324,1,qs),
(326,0,o),
(329,1,q),
(354,39,l),
(407,179,o),
(412,252,q),
(432,363,o),
(427,648,qs),
(424,813,o)
);
},
{
closed = 1;
nodes = (
(306,581,q),
(296,576,o),
(238,581,q),
(152,611,o),
(142,668,q),
(152,760,o),
(238,760,qs),
(260,760,o),
(306,744,q),
(329,724,o),
(336,704,q),
(359,679,o),
(359,623,q),
(344,586,o)
);
}
);
width = 512;
}
);
note = u06F9;
unicode = 1785;
},
{
glyphname = u200C;
layers = (
{
.lastUpdate = 730757475.311;
layerId = m01;
shapes = (
{
closed = 1;
nodes = (
(0,1628,l),
(0,0,l),
(45,0,l),
(45,1628,l)
);
}
);
width = 45;
}
);
note = u200C;
unicode = 8204;
},
{
glyphname = u200D;
layers = (
{
.lastUpdate = 730757475.311;
layerId = m01;
shapes = (
{
closed = 1;
nodes = (
(160,1710,l),
(130,1740,l),
(23,1633,l),
(-84,1740,l),
(-114,1710,l),
(-7,1603,l),
(-114,1496,l),
(-84,1466,l),
(0,1550,l),
(0,0,l),
(45,0,l),
(45,1551,l),
(130,1466,l),
(160,1496,l),
(53,1603,l)
);
}
);
width = 45;
}
);
note = u200D;
unicode = 8205;
},
{
glyphname = u200E;
layers = (
{
.lastUpdate = 730757475.311;
layerId = m01;
shapes = (
{
closed = 1;
nodes = (
(135,1710,l),
(217,1628,l),
(0,1628,l),
(0,0,l),
(45,0,l),
(45,1583,l),
(221,1583,l),
(135,1497,l),
(166,1466,l),
(303,1604,l),
(166,1741,l)
);
}
);
width = 45;
}
);
note = u200E;
unicode = 8206;
},
{
glyphname = u200F;
layers = (
{
.lastUpdate = 730757475.311;
layerId = m01;
shapes = (
{
closed = 1;
nodes = (
(-172,1628,l),
(-90,1710,l),
(-121,1741,l),
(-258,1604,l),
(-121,1466,l),
(-90,1497,l),
(-176,1583,l),
(0,1583,l),
(0,0,l),
(45,0,l),
(45,1628,l)
);
}
);
width = 45;
}
);
note = u200F;
unicode = 8207;
},
{
glyphname = u2421;
layers = (
{
.lastUpdate = 730757475.311;
layerId = m01;
shapes = (
{
closed = 1;
nodes = (
(1232,198,l),
(1232,715,l),
(1154,715,l),
(1154,129,l),
(1520,129,l),
(1520,198,l)
);
},
{
closed = 1;
nodes = (
(720,198,l),
(720,398,l),
(1044,398,l),
(1044,467,l),
(720,467,l),
(720,646,l),
(1066,646,l),
(1066,715,l),
(642,715,l),
(642,129,l),
(1080,129,l),
(1080,198,l)
);
},
{
closed = 1;
nodes = (
(549,565,qs),
(505,681,o),
(393,707,qs),
(358,715,o),
(289,715,qs),
(87,715,l),
(87,129,l),
(298,129,ls),
(352,129,o),
(393,139,qs),
(572,183,o),
(572,425,qs),
(572,504,o)
);
},
{
closed = 1;
nodes = (
(433,239,qs),
(392,198,o),
(290,198,qs),
(164,198,l),
(164,646,l),
(288,646,ls),
(357,646,o),
(388,634,qs),
(492,594,o),
(492,427,qs),
(492,298,o)
);
}
);
width = 1600;
}
);
note = u2421;
unicode = 9249;
},
{
glyphname = uniE00E;
layers = (
{
.lastUpdate = 730757475.311;
layerId = m01;
shapes = (
{
closed = 1;
nodes = (
(155,373,o),
(155,391,qs),
(155,455,o),
(294,482,q),
(400,519,o),
(428,541,q),
(372,492,o),
(302,473,qs),
(173,438,o),
(173,378,qs),
(173,358,o),
(191,336,q),
(168,354,l)
);
},
{
closed = 1;
nodes = (
(74,390,o),
(74,409,qs),
(74,447,o),
(121,474,qs),
(165,499,o),
(213,499,qs),
(285,499,o),
(347,558,q),
(291,508,o),
(221,489,qs),
(92,455,o),
(92,395,qs),
(92,374,o),
(110,353,q),
(87,370,l)
);
},
{
closed = 1;
nodes = (
(155,-38,o),
(155,-56,qs),
(155,-120,o),
(294,-147,q),
(400,-184,o),
(428,-206,q),
(372,-157,o),
(302,-138,qs),
(173,-103,o),
(173,-43,qs),
(173,-23,o),
(191,-1,q),
(168,-19,l)
);
},
{
closed = 1;
nodes = (
(74,-55,o),
(74,-72,qs),
(74,-137,o),
(213,-164,q),
(318,-201,o),
(347,-223,q),
(291,-173,o),
(220,-154,qs),
(92,-120,o),
(92,-59,qs),
(92,-39,o),
(110,-18,q),
(87,-35,l)
);
},
{
closed = 1;
nodes = (
(16,242,o),
(16,169,qs),
(16,96,o),
(75,-8,o),
(117,-13,q),
(35,21,o),
(35,169,qs),
(35,313,o),
(115,349,q),
(73,344,o)
);
},
{
closed = 1;
nodes = (
(301,406,o),
(109,267,o),
(109,170,qs),
(109,72,o),
(301,-69,o),
(433,-70,q),
(433,-101,l),
(299,-100,o),
(103,57,o),
(103,166,qs),
(103,275,o),
(298,431,o),
(433,432,q),
(433,408,l)
);
},
{
closed = 1;
nodes = (
(433,-271,q),
(384,-267,o),
(392,-235,q),
(392,-233,o),
(389,-232,q),
(345,-231,o),
(343,-205,q),
(347,-184,o),
(368,-171,q),
(368,-168,o),
(366,-167,q),
(340,-193,o),
(339,-204,qs),
(339,-205,ls),
(340,-234,o),
(387,-237,q),
(383,-258,o),
(407,-269,q),
(422,-273,o),
(433,-275,q),
(434,-273,o)
);
},
{
closed = 1;
nodes = (
(432,607,q),
(377,603,o),
(382,570,q),
(336,566,o),
(334,537,q),
(335,515,o),
(361,499,q),
(364,500,o),
(364,503,q),
(343,516,o),
(339,537,q),
(340,554,o),
(362,561,qs),
(372,564,o),
(385,565,qs),
(387,565,o),
(387,568,q),
(380,597,o),
(433,603,q),
(434,605,o)
);
}
);
width = 432;
}
);
note = uniE00E;
unicode = 57358;
},
{
glyphname = uniE00F;
layers = (
{
.lastUpdate = 730757475.311;
layerId = m01;
shapes = (
{
closed = 1;
nodes = (
(278,373,o),
(278,390,qs),
(278,454,o),
(139,481,q),
(33,519,o),
(5,540,q),
(61,491,o),
(131,472,qs),
(259,438,o),
(259,377,qs),
(259,357,o),
(241,336,q),
(264,353,l)
);
},
{
closed = 1;
nodes = (
(359,389,o),
(359,408,qs),
(359,446,o),
(311,473,qs),
(268,498,o),
(220,498,qs),
(148,498,o),
(86,557,q),
(142,507,o),
(212,489,qs),
(340,454,o),
(340,394,qs),
(340,373,o),
(323,352,q),
(346,369,l)
);
},
{
closed = 1;
nodes = (
(278,-39,o),
(278,-57,qs),
(278,-121,o),
(139,-148,q),
(33,-185,o),
(5,-207,q),
(61,-139,o),
(131,-139,qs),
(175,-139,o),
(259,-83,o),
(259,-46,qs),
(259,-24,o),
(242,-2,q),
(264,-19,l)
);
},
{
closed = 1;
nodes = (
(359,-55,o),
(359,-73,qs),
(359,-137,o),
(220,-164,q),
(114,-201,o),
(86,-223,q),
(142,-174,o),
(212,-155,qs),
(340,-121,o),
(340,-60,qs),
(340,-40,o),
(323,-18,q),
(346,-36,l)
);
},
{
closed = 1;
nodes = (
(417,241,o),
(417,168,qs),
(417,95,o),
(357,-9,o),
(315,-14,q),
(397,21,o),
(397,168,qs),
(397,312,o),
(317,348,q),
(359,343,o)
);
},
{
closed = 1;
nodes = (
(131,406,o),
(323,266,o),
(323,169,qs),
(323,71,o),
(131,-70,o),
(0,-71,q),
(0,-102,l),
(134,-101,o),
(330,56,o),
(330,165,qs),
(330,274,o),
(134,430,o),
(0,432,q),
(0,407,l)
);
},
{
closed = 1;
nodes = (
(0,-271,q),
(48,-268,o),
(41,-236,q),
(40,-234,o),
(43,-233,q),
(87,-232,o),
(89,-206,q),
(85,-184,o),
(64,-172,q),
(64,-169,o),
(67,-167,q),
(92,-194,o),
(94,-205,qs),
(94,-206,ls),
(92,-234,o),
(46,-238,q),
(49,-259,o),
(26,-269,q),
(10,-274,o),
(0,-276,q),
(-2,-274,o)
);
},
{
closed = 1;
nodes = (
(0,607,q),
(56,602,o),
(50,569,q),
(97,565,o),
(98,537,qs),
(97,514,o),
(71,498,q),
(69,500,o),
(69,502,q),
(90,515,o),
(93,537,q),
(92,553,o),
(70,560,qs),
(61,563,o),
(47,564,qs),
(45,564,o),
(45,567,q),
(52,596,o),
(0,602,q),
(-1,604,o)
);
}
);
width = 443;
}
);
note = uniE00F;
unicode = 57359;
},
{
glyphname = uniE010;
layers = (
{
.lastUpdate = 730757475.311;
layerId = m01;
shapes = (
{
closed = 1;
nodes = (
(0,-71,l),
(0,-102,l),
(273,-102,l),
(273,-71,l)
);
},
{
closed = 1;
nodes = (
(-2,-271,l),
(-2,-276,l),
(271,-276,l),
(271,-271,l)
);
},
{
closed = 1;
nodes = (
(-2,-205,l),
(-2,-210,l),
(271,-210,l),
(271,-205,l)
);
},
{
closed = 1;
nodes = (
(0,543,l),
(0,538,l),
(273,538,l),
(273,543,l)
);
},
{
closed = 1;
nodes = (
(0,607,l),
(0,602,l),
(273,602,l),
(273,607,l)
);
},
{
closed = 1;
nodes = (
(0,433,l),
(0,407,l),
(273,407,l),
(273,433,l)
);
},
{
closed = 1;
nodes = (
(221,192,q),
(177,223,o),
(148,262,q),
(146,262,l),
(111,207,o),
(91,171,q),
(91,166,l),
(132,115,o),
(158,100,q),
(166,97,o),
(169,98,q),
(222,188,l),
(222,190,o)
);
}
);
width = 274;
}
);
note = uniE010;
unicode = 57360;
},
{
glyphname = uniE011;
layers = (
{
.lastUpdate = 730757475.311;
layerId = m01;
shapes = (
{
closed = 1;
nodes = (
(0,-71,l),
(0,-102,l),
(273,-102,l),
(273,-71,l)
);
},
{
closed = 1;
nodes = (
(-2,-271,l),
(-2,-276,l),
(271,-276,l),
(271,-271,l)
);
},
{
closed = 1;
nodes = (
(-2,-205,l),
(-2,-210,l),
(271,-210,l),
(271,-205,l)
);
},
{
closed = 1;
nodes = (
(0,543,l),
(0,538,l),
(273,538,l),
(273,543,l)
);
},
{
closed = 1;
nodes = (
(0,607,l),
(0,602,l),
(273,602,l),
(273,607,l)
);
},
{
closed = 1;
nodes = (
(0,433,l),
(0,407,l),
(273,407,l),
(273,433,l)
);
},
{
closed = 1;
nodes = (
(175,333,q),
(174,335,o),
(173,350,o),
(172,353,q),
(169,354,o),
(164,351,q),
(151,316,o),
(138,279,q),
(136,260,o),
(138,228,qs),
(139,195,o),
(140,178,qs),
(145,22,l),
(146,19,l),
(150,13,o),
(153,21,qs),
(166,62,o),
(171,81,q),
(175,171,o),
(175,255,qs),
(175,333,o)
);
}
);
width = 274;
}
);
note = uniE011;
unicode = 57361;
},
{
glyphname = uniE012;
layers = (
{
.lastUpdate = 730757475.311;
layerId = m01;
shapes = (
{
closed = 1;
nodes = (
(0,-71,l),
(0,-102,l),
(273,-102,l),
(273,-71,l)
);
},
{
closed = 1;
nodes = (
(-2,-271,l),
(-2,-276,l),
(271,-276,l),
(271,-271,l)
);
},
{
closed = 1;
nodes = (
(-2,-205,l),
(-2,-210,l),
(271,-210,l),
(271,-205,l)
);
},
{
closed = 1;
nodes = (
(0,543,l),
(0,538,l),
(273,538,l),
(273,543,l)
);
},
{
closed = 1;
nodes = (
(0,607,l),
(0,602,l),
(273,602,l),
(273,607,l)
);
},
{
closed = 1;
nodes = (
(0,433,l),
(0,407,l),
(273,407,l),
(273,433,l)
);
},
{
closed = 1;
nodes = (
(226,345,q),
(219,340,o),
(219,335,q),
(191,289,o),
(171,289,qs),
(139,290,o),
(118,330,q),
(104,347,o),
(109,347,q),
(107,346,o),
(106,346,q),
(86,296,o),
(77,272,q),
(88,176,o),
(90,127,q),
(89,112,o),
(90,88,qs),
(92,58,o),
(92,49,qs),
(91,32,ls),
(90,20,o),
(91,16,q),
(93,16,o),
(96,20,q),
(113,63,o),
(120,80,q),
(127,172,o),
(128,218,q),
(141,213,o),
(143,212,q),
(150,212,ls),
(179,212,o),
(206,265,qs),
(227,307,o),
(232,343,q),
(230,346,o)
);
}
);
width = 274;
}
);
note = uniE012;
unicode = 57362;
},
{
glyphname = uniE013;
layers = (
{
.lastUpdate = 730757475.311;
layerId = m01;
shapes = (
{
closed = 1;
nodes = (
(0,-71,l),
(0,-102,l),
(273,-102,l),
(273,-71,l)
);
},
{
closed = 1;
nodes = (
(-2,-271,l),
(-2,-276,l),
(271,-276,l),
(271,-271,l)
);
},
{
closed = 1;
nodes = (
(-2,-205,l),
(-2,-210,l),
(271,-210,l),
(271,-205,l)
);
},
{
closed = 1;
nodes = (
(0,543,l),
(0,538,l),
(273,538,l),
(273,543,l)
);
},
{
closed = 1;
nodes = (
(0,607,l),
(0,602,l),
(273,602,l),
(273,607,l)
);
},
{
closed = 1;
nodes = (
(0,433,l),
(0,407,l),
(273,407,l),
(273,433,l)
);
},
{
closed = 1;
nodes = (
(254,324,q),
(228,284,o),
(212,277,q),
(191,274,o),
(181,284,q),
(170,307,o),
(171,319,q),
(170,320,o),
(164,317,q),
(161,307,o),
(150,289,q),
(131,265,o),
(114,265,qs),
(71,265,o),
(56,322,q),
(51,322,o),
(49,321,q),
(25,265,o),
(20,247,q),
(26,192,o),
(28,170,qs),
(35,97,o),
(31,8,qs),
(30,-1,o),
(31,-7,q),
(33,-6,o),
(36,-5,q),
(53,34,o),
(60,49,q),
(70,144,o),
(70,192,q),
(71,194,l),
(81,188,o),
(93,188,qs),
(121,188,o),
(148,235,q),
(150,235,l),
(157,224,o),
(159,221,q),
(168,213,o),
(182,213,qs),
(192,213,o),
(201,218,q),
(229,242,o),
(260,306,o),
(260,321,q),
(259,324,o)
);
}
);
width = 274;
}
);
note = uniE013;
unicode = 57363;
},
{
glyphname = uniE014;
layers = (
{
.lastUpdate = 730757475.311;
layerId = m01;
shapes = (
{
closed = 1;
nodes = (
(0,-71,l),
(0,-102,l),
(273,-102,l),
(273,-71,l)
);
},
{
closed = 1;
nodes = (
(-2,-271,l),
(-2,-276,l),
(271,-276,l),
(271,-271,l)
);
},
{
closed = 1;
nodes = (
(-2,-205,l),
(-2,-210,l),
(271,-210,l),
(271,-205,l)
);
},
{
closed = 1;
nodes = (
(0,543,l),
(0,538,l),
(273,538,l),
(273,543,l)
);
},
{
closed = 1;
nodes = (
(0,607,l),
(0,602,l),
(273,602,l),
(273,607,l)
);
},
{
closed = 1;
nodes = (
(0,433,l),
(0,407,l),
(273,407,l),
(273,433,l)
);
},
{
closed = 1;
nodes = (
(239,359,q),
(200,332,o),
(171,272,q),
(170,272,l),
(169,341,o),
(119,341,qs),
(108,341,o),
(97,335,qs),
(78,327,o),
(66,302,qs),
(47,256,ls),
(33,223,o),
(33,176,qs),
(33,154,o),
(36,123,qs),
(40,78,o),
(40,71,qs),
(43,18,o),
(45,10,q),
(47,9,o),
(49,14,o),
(50,14,q),
(62,67,o),
(65,79,q),
(65,161,ls),
(65,262,o),
(62,241,q),
(64,259,o),
(82,266,q),
(87,269,o),
(95,269,qs),
(137,269,o),
(137,220,qs),
(137,214,o),
(132,184,q),
(131,181,o),
(130,175,qs),
(129,168,o),
(132,165,qs),
(135,162,o),
(139,167,q),
(170,253,o),
(227,303,q),
(238,328,o),
(246,357,q),
(244,359,o)
);
}
);
width = 274;
}
);
note = uniE014;
unicode = 57364;
},
{
glyphname = uniE015;
layers = (
{
.lastUpdate = 730757475.311;
layerId = m01;
shapes = (
{
closed = 1;
nodes = (
(0,-71,l),
(0,-102,l),
(273,-102,l),
(273,-71,l)
);
},
{
closed = 1;
nodes = (
(-2,-271,l),
(-2,-276,l),
(271,-276,l),
(271,-271,l)
);
},
{
closed = 1;
nodes = (
(-2,-205,l),
(-2,-210,l),
(271,-210,l),
(271,-205,l)
);
},
{
closed = 1;
nodes = (
(0,543,l),
(0,538,l),
(273,538,l),
(273,543,l)
);
},
{
closed = 1;
nodes = (
(0,607,l),
(0,602,l),
(273,602,l),
(273,607,l)
);
},
{
closed = 1;
nodes = (
(0,433,l),
(0,407,l),
(273,407,l),
(273,433,l)
);
},
{
closed = 1;
nodes = (
(191,281,qs),
(143,356,o),
(143,357,q),
(139,355,o),
(138,355,q),
(74,231,l),
(62,201,l),
(47,144,o),
(47,91,qs),
(47,74,o),
(48,70,qs),
(53,31,o),
(73,21,q),
(99,16,o),
(124,54,q),
(125,52,o),
(126,51,q),
(126,50,o),
(126,48,q),
(137,17,o),
(162,21,qs),
(191,26,o),
(206,56,q),
(206,57,o),
(226,114,qs),
(236,144,o),
(236,168,qs),
(236,209,o)
);
},
{
closed = 1;
nodes = (
(202,105,q),
(193,99,o),
(190,97,q),
(157,97,o),
(146,121,q),
(140,139,o),
(138,149,q),
(136,150,o),
(135,147,qs),
(129,133,o),
(124,119,q),
(115,103,o),
(102,101,qs),
(66,95,o),
(66,137,qs),
(66,166,o),
(83,200,qs),
(101,238,o),
(125,283,q),
(179,202,ls),
(205,163,o),
(210,116,q),
(207,110,o)
);
}
);
width = 274;
}
);
note = uniE015;
unicode = 57365;
},
{
glyphname = uniE016;
layers = (
{
.lastUpdate = 730757475.311;
layerId = m01;
shapes = (
{
closed = 1;
nodes = (
(0,-71,l),
(0,-102,l),
(273,-102,l),
(273,-71,l)
);
},
{
closed = 1;
nodes = (
(-2,-271,l),
(-2,-276,l),
(271,-276,l),
(271,-271,l)
);
},
{
closed = 1;
nodes = (
(-2,-205,l),
(-2,-210,l),
(271,-210,l),
(271,-205,l)
);
},
{
closed = 1;
nodes = (
(0,543,l),
(0,538,l),
(273,538,l),
(273,543,l)
);
},
{
closed = 1;
nodes = (
(0,607,l),
(0,602,l),
(273,602,l),
(273,607,l)
);
},
{
closed = 1;
nodes = (
(0,433,l),
(0,407,l),
(273,407,l),
(273,433,l)
);
},
{
closed = 1;
nodes = (
(198,327,o),
(195,338,o),
(191,346,o),
(188,347,q),
(183,339,o),
(182,333,q),
(160,280,o),
(134,275,q),
(104,275,o),
(90,302,qs),
(70,339,o),
(68,344,q),
(62,349,o),
(61,341,qs),
(60,321,o),
(70,294,qs),
(101,212,o),
(133,200,qs),
(142,197,o),
(155,200,q),
(152,107,o),
(180,27,qs),
(185,14,o),
(191,14,q),
(196,19,l),
(193,43,ls),
(192,52,o),
(192,95,qs),
(192,191,o),
(208,275,q),
(211,282,o),
(211,288,qs),
(211,298,o)
);
}
);
width = 274;
}
);
note = uniE016;
unicode = 57366;
},
{
glyphname = uniE017;
layers = (
{
.lastUpdate = 730757475.311;
layerId = m01;
shapes = (
{
closed = 1;
nodes = (
(0,-71,l),
(0,-102,l),
(273,-102,l),
(273,-71,l)
);
},
{
closed = 1;
nodes = (
(-2,-271,l),
(-2,-276,l),
(271,-276,l),
(271,-271,l)
);
},
{
closed = 1;
nodes = (
(-2,-205,l),
(-2,-210,l),
(271,-210,l),
(271,-205,l)
);
},
{
closed = 1;
nodes = (
(0,543,l),
(0,538,l),
(273,538,l),
(273,543,l)
);
},
{
closed = 1;
nodes = (
(0,607,l),
(0,602,l),
(273,602,l),
(273,607,l)
);
},
{
closed = 1;
nodes = (
(0,433,l),
(0,407,l),
(273,407,l),
(273,433,l)
);
},
{
closed = 1;
nodes = (
(263,106,q),
(245,104,ls),
(165,94,o),
(73,94,q),
(72,95,l),
(77,104,o),
(91,124,qs),
(149,205,ls),
(197,272,o),
(203,283,q),
(212,332,l),
(211,333,o),
(209,334,q),
(157,260,o),
(136,233,qs),
(79,153,ls),
(25,78,o),
(25,37,qs),
(25,33,o),
(25,31,q),
(39,18,o),
(54,18,qs),
(148,17,o),
(241,30,q),
(245,29,o),
(248,36,q),
(258,71,o),
(264,92,q),
(265,104,o)
);
}
);
width = 274;
}
);
note = uniE017;
unicode = 57367;
},
{
glyphname = uniE018;
layers = (
{
.lastUpdate = 730757475.311;
layerId = m01;
shapes = (
{
closed = 1;
nodes = (
(0,-71,l),
(0,-102,l),
(273,-102,l),
(273,-71,l)
);
},
{
closed = 1;
nodes = (
(-2,-271,l),
(-2,-276,l),
(271,-276,l),
(271,-271,l)
);
},
{
closed = 1;
nodes = (
(-2,-205,l),
(-2,-210,l),
(271,-210,l),
(271,-205,l)
);
},
{
closed = 1;
nodes = (
(0,543,l),
(0,538,l),
(273,538,l),
(273,543,l)
);
},
{
closed = 1;
nodes = (
(0,607,l),
(0,602,l),
(273,602,l),
(273,607,l)
);
},
{
closed = 1;
nodes = (
(0,433,l),
(0,407,l),
(273,407,l),
(273,433,l)
);
},
{
closed = 1;
nodes = (
(151,344,qs),
(147,353,o),
(141,353,qs),
(138,353,o),
(137,348,qs),
(94,214,ls),
(67,130,o),
(48,82,q),
(40,71,o),
(40,52,qs),
(40,46,o),
(43,22,o),
(46,10,o),
(48,12,q),
(67,62,o),
(81,104,qs),
(128,244,l),
(129,244,l),
(138,218,o),
(142,207,qs),
(197,64,l),
(211,35,o),
(220,16,q),
(223,12,o),
(226,19,q),
(246,84,o),
(247,99,q),
(176,272,o)
);
}
);
width = 274;
}
);
note = uniE018;
unicode = 57368;
},
{
glyphname = uniE019;
layers = (
{
.lastUpdate = 730757475.311;
layerId = m01;
shapes = (
{
closed = 1;
nodes = (
(0,-71,l),
(0,-102,l),
(273,-102,l),
(273,-71,l)
);
},
{
closed = 1;
nodes = (
(-2,-271,l),
(-2,-276,l),
(271,-276,l),
(271,-271,l)
);
},
{
closed = 1;
nodes = (
(-2,-205,l),
(-2,-210,l),
(271,-210,l),
(271,-205,l)
);
},
{
closed = 1;
nodes = (
(0,543,l),
(0,538,l),
(273,538,l),
(273,543,l)
);
},
{
closed = 1;
nodes = (
(0,607,l),
(0,602,l),
(273,602,l),
(273,607,l)
);
},
{
closed = 1;
nodes = (
(0,433,l),
(0,407,l),
(273,407,l),
(273,433,l)
);
},
{
closed = 1;
nodes = (
(162,328,q),
(148,347,o),
(126,344,qs),
(83,337,o),
(62,243,qs),
(56,213,o),
(56,191,qs),
(56,116,o),
(115,116,qs),
(129,116,o),
(144,121,q),
(145,122,o),
(146,120,q),
(147,53,o),
(146,-18,qs),
(146,-20,o),
(147,-21,qs),
(148,-22,o),
(150,-21,q),
(157,-5,l),
(175,48,o),
(176,77,q),
(183,120,o),
(181,231,qs),
(180,295,o)
);
},
{
closed = 1;
nodes = (
(138,198,qs),
(133,197,o),
(114,198,q),
(84,209,o),
(80,231,q),
(84,264,o),
(113,264,qs),
(122,264,o),
(138,258,q),
(147,251,o),
(149,243,q),
(156,233,o),
(156,213,q),
(151,200,o)
);
}
);
width = 274;
}
);
note = uniE019;
unicode = 57369;
},
{
glyphname = uniE01A;
layers = (
{
.lastUpdate = 730757475.311;
layerId = m01;
shapes = (
{
closed = 1;
nodes = (
(284,1662,q),
(241,1606,o),
(236,1576,q),
(285,1544,o),
(302,1533,q),
(348,1592,o),
(354,1622,q),
(324,1641,o)
);
},
{
closed = 1;
nodes = (
(-569,1114,q),
(-602,1114,o),
(-617,1054,q),
(-617,1048,l),
(-611,1042,l),
(-593,1063,o),
(-582,1063,qs),
(-562,1063,l),
(-614,1018,o),
(-614,941,qs),
(-614,894,o),
(-590,860,q),
(-569,820,o),
(-493,820,q),
(-436,829,o),
(-417,837,qs),
(-369,854,o),
(-369,867,qs),
(-369,871,l),
(-373,875,l),
(-390,875,l),
(-471,869,l),
(-522,873,l),
(-594,897,o),
(-594,957,qs),
(-594,1002,o),
(-551,1037,qs),
(-511,1066,o),
(-478,1066,qs),
(-451,1066,o),
(-442,1109,q),
(-442,1113,l),
(-445,1118,l),
(-563,1112,o)
);
},
{
closed = 1;
nodes = (
(339,1531,qs),
(286,1521,o),
(231,1417,qs),
(209,1374,o),
(187,1315,qs),
(172,1274,o),
(131,1274,qs),
(118,1274,o),
(110,1281,q),
(93,1292,o),
(81,1337,o),
(81,1362,qs),
(81,1388,o),
(88,1429,qs),
(96,1466,o),
(95,1476,qs),
(94,1493,o),
(85,1496,q),
(80,1496,o),
(74,1480,qs),
(67,1456,ls),
(52,1402,o),
(52,1338,qs),
(52,1253,o),
(116,1183,o),
(142,1183,qs),
(192,1183,o),
(220,1289,qs),
(245,1385,o),
(292,1423,qs),
(312,1438,o),
(334,1442,q),
(345,1435,o),
(356,1451,q),
(362,1489,o),
(365,1510,q),
(364,1536,o)
);
}
);
width = 403;
}
);
note = uniE01A;
unicode = 57370;
},
{
glyphname = uniE01B;
layers = (
{
.lastUpdate = 730757475.311;
layerId = m01;
shapes = (
{
closed = 1;
nodes = (
(-569,1114,q),
(-602,1114,o),
(-617,1054,q),
(-617,1048,l),
(-611,1042,l),
(-593,1063,o),
(-582,1063,qs),
(-562,1063,l),
(-614,1018,o),
(-614,941,qs),
(-614,894,o),
(-590,860,q),
(-569,820,o),
(-493,820,q),
(-436,829,o),
(-417,837,qs),
(-369,854,o),
(-369,867,qs),
(-369,871,l),
(-373,875,l),
(-390,875,l),
(-471,869,l),
(-522,873,l),
(-594,897,o),
(-594,957,qs),
(-594,1002,o),
(-551,1037,qs),
(-511,1066,o),
(-478,1066,qs),
(-451,1066,o),
(-442,1109,q),
(-442,1113,l),
(-445,1118,l),
(-563,1112,o)
);
},
{
closed = 1;
nodes = (
(512,1582,q),
(506,1582,l),
(454,1593,o),
(412,1642,q),
(405,1647,o),
(397,1633,q),
(397,1551,l),
(445,1476,o),
(445,1464,q),
(442,1441,o),
(439,1418,q),
(373,1325,o),
(253,1325,qs),
(186,1325,o),
(135,1356,q),
(75,1422,o),
(75,1460,qs),
(75,1477,ls),
(75,1512,o),
(95,1538,qs),
(150,1613,o),
(150,1628,qs),
(150,1636,l),
(137,1636,l),
(119,1626,l),
(62,1573,o),
(35,1448,q),
(34,1383,o),
(53,1327,q),
(116,1209,o),
(223,1209,qs),
(229,1209,ls),
(297,1209,o),
(371,1260,q),
(472,1354,o),
(472,1453,qs),
(472,1482,l),
(510,1469,o),
(575,1469,qs),
(582,1469,ls),
(697,1469,o),
(754,1518,qs),
(784,1542,o),
(807,1630,q),
(807,1638,ls),
(807,1721,o),
(695,1732,q),
(681,1732,ls),
(578,1732,o)
);
},
{
closed = 1;
nodes = (
(681,1640,qs),
(695,1640,ls),
(738,1640,o),
(767,1611,q),
(767,1614,l),
(704,1575,o),
(602,1575,q),
(561,1581,l),
(600,1640,o)
);
}
);
width = 809;
}
);
note = uniE01B;
unicode = 57371;
},
{
glyphname = uniE01C;
layers = (
{
.lastUpdate = 730757475.311;
layerId = m01;
shapes = (
{
closed = 1;
nodes = (
(289,1691,q),
(325,1654,o),
(347,1654,qs),
(357,1654,l),
(395,1701,o),
(395,1720,qs),
(395,1726,l),
(359,1759,o),
(326,1766,q),
(297,1742,o)
);
},
{
closed = 1;
nodes = (
(178,1674,qs),
(178,1669,l),
(209,1637,o),
(236,1634,qs),
(245,1634,ls),
(251,1635,o),
(286,1697,q),
(286,1704,l),
(248,1741,o),
(210,1751,q),
(182,1712,o)
);
},
{
closed = 1;
nodes = (
(249,1602,o),
(242,1507,qs),
(242,1501,ls),
(242,1442,o),
(326,1433,q),
(373,1445,l),
(389,1430,o),
(389,1417,qs),
(389,1410,l),
(314,1303,o),
(196,1303,qs),
(194,1303,l),
(140,1308,l),
(38,1340,o),
(38,1447,q),
(41,1475,o),
(76,1525,o),
(95,1572,q),
(95,1587,o),
(85,1587,q),
(67,1573,l),
(5,1506,o),
(5,1402,qs),
(5,1399,l),
(11,1348,l),
(50,1208,o),
(200,1208,qs),
(290,1208,o),
(375,1317,q),
(412,1374,o),
(412,1408,qs),
(412,1454,l),
(386,1604,o),
(311,1604,qs),
(305,1604,l),
(287,1602,l)
);
},
{
closed = 1;
nodes = (
(-569,1114,q),
(-602,1114,o),
(-617,1054,q),
(-617,1048,l),
(-611,1042,l),
(-593,1063,o),
(-582,1063,qs),
(-562,1063,l),
(-614,1018,o),
(-614,941,qs),
(-614,894,o),
(-590,860,q),
(-569,820,o),
(-493,820,q),
(-436,829,o),
(-417,837,qs),
(-369,854,o),
(-369,867,qs),
(-369,871,l),
(-373,875,l),
(-390,875,l),
(-471,869,l),
(-522,873,l),
(-594,897,o),
(-594,957,qs),
(-594,1002,o),
(-551,1037,qs),
(-511,1066,o),
(-478,1066,qs),
(-451,1066,o),
(-442,1109,q),
(-442,1113,l),
(-445,1118,l),
(-563,1112,o)
);
}
);
width = 405;
}
);
note = uniE01C;
unicode = 57372;
},
{
glyphname = uniE01D;
layers = (
{
.lastUpdate = 730757475.311;
layerId = m01;
shapes = (
{
closed = 1;
nodes = (
(798,1465,qs),
(810,1465,l),
(871,1452,o),
(871,1420,q),
(798,1389,o),
(694,1389,qs),
(688,1389,l),
(725,1465,o)
);
},
{
closed = 1;
nodes = (
(410,1420,q),
(389,1450,o),
(374,1564,q),
(352,1795,o),
(343,1795,q),
(339,1796,o),
(334,1795,q),
(316,1734,l),
(346,1470,o),
(362,1406,q),
(367,1376,o),
(359,1351,q),
(282,1272,o),
(204,1272,qs),
(179,1272,l),
(39,1303,o),
(39,1397,qs),
(39,1433,o),
(109,1531,q),
(126,1560,o),
(85,1534,q),
(6,1454,o),
(6,1375,qs),
(6,1320,o),
(30,1278,q),
(93,1187,o),
(173,1187,qs),
(191,1187,ls),
(262,1187,o),
(322,1245,q),
(365,1275,o),
(386,1351,q),
(389,1351,l),
(417,1307,o),
(460,1306,qs),
(537,1303,o),
(560,1380,q),
(586,1335,o),
(630,1310,q),
(630,1304,l),
(621,1252,l),
(621,1249,l),
(624,1246,l),
(630,1246,o),
(652,1304,q),
(697,1301,l),
(904,1301,o),
(904,1468,qs),
(904,1486,l),
(873,1541,o),
(807,1541,qs),
(724,1541,o),
(658,1395,q),
(655,1398,l),
(617,1398,o),
(591,1447,q),
(595,1454,o),
(597,1471,q),
(588,1480,l),
(585,1480,ls),
(579,1479,o),
(573,1465,q),
(532,1399,o),
(472,1400,qs),
(460,1400,ls),
(428,1400,o)
);
}
);
width = 904;
}
);
note = uniE01D;
unicode = 57373;
},
{
glyphname = uniE01E;
layers = (
{
.lastUpdate = 730757475.311;
layerId = m01;
shapes = (
{
closed = 1;
nodes = (
(702,1689,q),
(642,1723,o),
(633,1723,qs),
(619,1723,o),
(598,1641,q),
(628,1610,o),
(669,1602,q),
(676,1603,o),
(702,1652,q),
(702,1651,l),
(768,1622,o),
(781,1622,q),
(823,1666,o),
(823,1687,qs),
(823,1693,l),
(786,1728,o),
(735,1744,q),
(702,1700,o)
);
},
{
closed = 1;
nodes = (
(402,1612,q),
(407,1591,l),
(451,1576,o),
(468,1560,q),
(473,1560,l),
(506,1600,o),
(509,1625,q),
(509,1642,l),
(503,1659,o),
(445,1682,q),
(432,1682,o)
);
},
{
closed = 1;
nodes = (
(491,1436,qs),
(497,1436,ls),
(529,1436,o),
(546,1406,q),
(546,1403,l),
(501,1386,l),
(462,1409,o),
(452,1427,q),
(452,1434,o)
);
},
{
closed = 1;
nodes = (
(598,1369,q),
(561,1364,l),
(561,1364,l),
(561,1361,l),
(570,1388,o),
(576,1453,q),
(576,1518,o),
(515,1534,q),
(489,1534,ls),
(419,1534,o),
(419,1413,q),
(428,1366,l),
(379,1353,o),
(313,1353,qs),
(277,1353,ls),
(115,1353,o),
(90,1451,q),
(90,1451,l),
(123,1512,o),
(123,1529,q),
(114,1537,l),
(75,1537,o),
(56,1402,q),
(60,1373,l),
(111,1258,o),
(253,1258,qs),
(291,1258,ls),
(396,1258,o),
(489,1297,q),
(529,1267,o),
(576,1267,qs),
(579,1267,ls),
(600,1267,o),
(620,1267,qs),
(720,1267,o),
(749,1285,q),
(830,1322,o),
(831,1437,qs),
(831,1443,l),
(827,1475,l),
(790,1590,o),
(719,1587,qs),
(703,1587,ls),
(660,1587,o),
(653,1478,qs),
(653,1476,ls),
(655,1416,o),
(737,1407,qs),
(741,1407,ls),
(767,1407,o),
(788,1419,q),
(797,1419,o),
(800,1410,q),
(796,1402,l),
(751,1366,o),
(677,1371,q),
(614,1371,l),
(614,1370,l),
(608,1369,o)
);
}
);
width = 864;
}
);
note = uniE01E;
unicode = 57374;
},
{
glyphname = uniE01F;
layers = (
{
.lastUpdate = 730757475.311;
layerId = m01;
shapes = (
{
closed = 1;
nodes = (
(127,1442,o),
(127,1441,o)
);
},
{
closed = 1;
nodes = (
(232,1747,q),
(255,1719,o),
(303,1701,q),
(336,1748,o),
(341,1764,q),
(341,1786,o),
(271,1817,q),
(249,1798,o)
);
},
{
closed = 1;
nodes = (
(141,1731,qs),
(141,1726,l),
(176,1690,o),
(196,1690,qs),
(203,1690,l),
(236,1740,o),
(236,1759,q),
(191,1803,o),
(172,1803,q),
(141,1751,o)
);
},
{
closed = 1;
nodes = (
(829,1710,q),
(768,1743,o),
(758,1743,qs),
(744,1743,o),
(722,1661,q),
(753,1631,o),
(795,1623,q),
(801,1624,o),
(829,1673,q),
(829,1672,l),
(897,1643,o),
(911,1643,q),
(952,1687,o),
(952,1708,qs),
(952,1714,l),
(915,1748,o),
(862,1763,q),
(829,1720,o)
);
},
{
closed = 1;
nodes = (
(496,1647,q),
(504,1636,o),
(567,1606,q),
(584,1606,o),
(615,1673,q),
(578,1725,o),
(536,1725,q),
(496,1679,o)
);
},
{
closed = 1;
nodes = (
(553,1482,q),
(616,1476,o),
(627,1443,q),
(604,1429,o),
(577,1423,q),
(538,1436,o),
(522,1465,q),
(522,1468,ls),
(522,1473,o)
);
},
{
closed = 1;
nodes = (
(997,1587,o),
(984,1490,q),
(984,1485,ls),
(984,1423,o),
(1071,1423,qs),
(1086,1423,l),
(1114,1433,l),
(1114,1434,l),
(1112,1427,l),
(1112,1408,o),
(910,1304,q),
(916,1291,o),
(932,1284,q),
(1052,1299,o),
(1084,1327,q),
(1133,1380,o),
(1148,1437,q),
(1149,1452,o),
(1148,1468,qs),
(1145,1497,l),
(1118,1590,o),
(1061,1590,qs),
(1049,1590,l),
(1034,1587,l)
);
},
{
closed = 1;
nodes = (
(472,1296,ls),
(486,1296,o),
(567,1318,q),
(613,1296,o),
(700,1296,qs),
(731,1296,ls),
(812,1296,o),
(842,1314,q),
(926,1350,o),
(926,1462,qs),
(926,1467,l),
(922,1499,l),
(886,1609,o),
(811,1609,qs),
(796,1609,ls),
(751,1609,o),
(743,1504,qs),
(743,1500,ls),
(743,1442,o),
(829,1434,qs),
(833,1434,ls),
(849,1434,o),
(883,1445,qs),
(889,1447,o),
(893,1437,q),
(890,1429,l),
(844,1394,o),
(748,1399,qs),
(731,1399,ls),
(717,1399,o),
(705,1397,q),
(695,1397,ls),
(643,1397,o),
(644,1400,q),
(664,1439,o),
(664,1482,qs),
(664,1498,l),
(654,1577,o),
(575,1581,qs),
(534,1583,o),
(461,1518,o),
(481,1415,q),
(491,1400,l),
(473,1397,ls),
(438,1393,o),
(400,1395,qs),
(395,1395,ls),
(318,1404,o),
(311,1490,qs),
(307,1529,o),
(304,1569,qs),
(300,1618,o),
(255,1599,q),
(255,1599,l),
(202,1558,o),
(188,1545,qs),
(128,1488,o),
(127,1442,q),
(128,1428,o),
(154,1449,qs),
(228,1507,ls),
(261,1533,o),
(270,1491,qs),
(288,1400,l),
(295,1380,ls),
(323,1296,o),
(406,1296,q),
(406,1296,l)
);
}
);
width = 1274;
}
);
note = uniE01F;
unicode = 57375;
},
{
glyphname = uniE020;
layers = (
{
.lastUpdate = 730757475.311;
layerId = m01;
shapes = (
{
closed = 1;
nodes = (
(418,1849,q),
(468,1424,l),
(464,1413,ls),
(437,1347,o),
(196,1348,qs),
(114,1349,o),
(88,1363,qs),
(16,1400,o),
(16,1435,qs),
(16,1446,ls),
(16,1477,o),
(48,1554,q),
(48,1564,l),
(44,1568,l),
(-24,1518,o),
(-24,1406,qs),
(-24,1378,o),
(-10,1345,qs),
(37,1244,o),
(188,1244,q),
(376,1234,o),
(450,1305,qs),
(492,1347,o),
(497,1449,qs),
(497,1500,ls),
(497,1567,o),
(482,1708,q),
(500,1779,o),
(500,1802,q),
(479,1834,l),
(454,1924,o),
(446,1928,q),
(434,1928,o)
);
},
{
closed = 1;
nodes = (
(177,1518,q),
(187,1496,o),
(220,1496,q),
(296,1503,l),
(324,1503,o),
(328,1489,q),
(328,1482,l),
(289,1471,l),
(119,1457,o),
(119,1449,qs),
(119,1446,ls),
(119,1429,o),
(220,1424,qs),
(224,1424,l),
(230,1424,ls),
(361,1428,o),
(361,1496,qs),
(361,1550,o),
(310,1550,q),
(231,1543,l),
(208,1543,o),
(206,1554,q),
(210,1565,o),
(235,1575,q),
(263,1568,l),
(278,1577,o),
(278,1597,qs),
(278,1604,ls),
(278,1613,o),
(256,1615,qs),
(242,1615,l),
(184,1601,o)
);
}
);
width = 599;
}
);
note = uniE020;
unicode = 57376;
},
{
glyphname = uniE021;
layers = (
{
.lastUpdate = 730757475.311;
layerId = m01;
shapes = (
{
closed = 1;
nodes = (
(-346,1512,qs),
(-405,1601,o),
(-405,1594,q),
(-406,1593,o),
(-408,1593,q),
(-481,1457,l),
(-497,1424,l),
(-513,1362,o),
(-513,1303,qs),
(-513,1284,o),
(-512,1279,qs),
(-506,1234,o),
(-481,1223,q),
(-451,1217,o),
(-423,1257,q),
(-424,1258,o),
(-424,1258,q),
(-424,1259,o),
(-424,1256,q),
(-411,1219,o),
(-381,1223,qs),
(-337,1229,o),
(-326,1270,q),
(-306,1326,ls),
(-294,1360,o),
(-294,1387,qs),
(-294,1433,o)
);
},
{
closed = 1;
nodes = (
(-337,1323,q),
(-347,1317,o),
(-349,1315,q),
(-386,1315,o),
(-396,1338,q),
(-402,1357,o),
(-405,1370,q),
(-412,1373,o),
(-414,1366,qs),
(-419,1352,o),
(-426,1337,qs),
(-434,1321,o),
(-448,1319,qs),
(-465,1317,o),
(-473,1321,qs),
(-486,1328,o),
(-486,1353,qs),
(-486,1383,o),
(-468,1418,qs),
(-447,1459,o),
(-423,1504,q),
(-364,1419,ls),
(-336,1379,o),
(-330,1331,q),
(-331,1328,o)
);
}
);
width = 0;
}
);
note = uniE021;
unicode = 57377;
},
{
glyphname = uniE022;
layers = (
{
.lastUpdate = 730757475.311;
layerId = m01;
shapes = (
{
closed = 1;
nodes = (
(-626,1644,o),
(-687,1583,o),
(-730,1511,o),
(-753,1425,o),
(-753,1336,o),
(-730,1250,o),
(-687,1178,o),
(-626,1117,o),
(-554,1074,o),
(-468,1050,o),
(-378,1050,o),
(-292,1074,o),
(-220,1117,o),
(-159,1178,o),
(-116,1250,o),
(-93,1336,o),
(-93,1425,o),
(-116,1511,o),
(-159,1583,o),
(-220,1644,o),
(-292,1687,o),
(-378,1711,o),
(-468,1711,o),
(-554,1687,o)
);
},
{
closed = 1;
nodes = (
(-401,1142,qs),
(-431,1142,o),
(-484,1153,o),
(-530,1177,o),
(-563,1212,o),
(-582,1262,o),
(-582,1292,qs),
(-582,1364,o),
(-515,1423,q),
(-548,1446,o),
(-575,1485,o),
(-575,1510,qs),
(-575,1541,o),
(-557,1572,qs),
(-543,1595,o),
(-504,1619,o),
(-482,1619,qs),
(-456,1619,o),
(-414,1594,o),
(-395,1569,q),
(-402,1560,l),
(-431,1573,o),
(-464,1573,qs),
(-496,1573,o),
(-545,1548,o),
(-545,1534,qs),
(-545,1521,o),
(-529,1497,o),
(-510,1483,qs),
(-498,1474,o),
(-473,1461,o),
(-467,1461,qs),
(-460,1461,o),
(-445,1468,qs),
(-389,1495,o),
(-336,1515,q),
(-334,1514,l),
(-349,1461,l),
(-437,1427,o),
(-487,1397,qs),
(-518,1379,o),
(-554,1331,o),
(-554,1308,qs),
(-554,1275,o),
(-508,1223,o),
(-424,1194,o),
(-370,1194,qs),
(-312,1194,o),
(-267,1206,q),
(-264,1199,l),
(-302,1170,o),
(-332,1153,qs),
(-353,1142,o)
);
}
);
width = 0;
}
);
note = uniE022;
unicode = 57378;
},
{
glyphname = uniE023;
layers = (
{
.lastUpdate = 730757475.311;
anchors = (
{
name = _top;
pos = (270,713);
}
);
layerId = m01;
shapes = (
{
closed = 1;
nodes = (
(381,1395,l),
(426,1270,l),
(426,1262,o),
(387,1228,q),
(293,1168,o),
(224,1168,qs),
(197,1168,o),
(122,1196,q),
(45,1250,o),
(45,1324,q),
(48,1363,o),
(61,1385,q),
(106,1448,o),
(106,1456,q),
(99,1462,l),
(93,1462,l),
(90,1459,ls),
(13,1380,o),
(13,1292,qs),
(13,1188,o),
(96,1116,q),
(122,1097,o),
(208,1078,q),
(314,1078,o),
(391,1161,q),
(445,1212,o),
(445,1324,q),
(442,1337,ls),
(399,1481,o),
(387,1481,qs),
(381,1481,l),
(378,1417,l)
);
},
{
closed = 1;
nodes = (
(176,1344,q),
(176,1324,o),
(259,1296,q),
(295,1337,o),
(298,1363,qs),
(298,1369,l),
(263,1407,o),
(218,1417,q),
(211,1417,l),
(196,1401,o)
);
},
{
closed = 1;
nodes = (
(98,918,o),
(43,810,qs),
(31,787,o),
(49,781,q),
(327,921,l),
(440,971,o),
(495,1101,q),
(500,1124,o),
(490,1118,q),
(118,938,l)
);
}
);
width = 0;
}
);
note = uniE023;
unicode = 57379;
},
{
glyphname = uniF500;
layers = (
{
.lastUpdate = 730757475.311;
layerId = m01;
shapes = (
{
closed = 1;
nodes = (
(1241,56,o),
(1168,-68,o),
(1066,-170,o),
(940,-243,o),
(796,-284,o),
(720,-284,qs),
(643,-284,o),
(500,-243,o),
(377,-170,o),
(274,-68,o),
(201,56,o),
(160,199,o),
(160,277,qs),
(160,352,o),
(201,496,o),
(274,622,o),
(377,724,o),
(500,797,o),
(643,836,o),
(722,836,qs),
(799,836,o),
(940,797,o),
(1067,724,o),
(1168,622,o),
(1241,496,o),
(1280,352,o),
(1280,277,qs),
(1280,199,o)
);
},
{
closed = 1;
nodes = (
(1344,541,o),
(1257,690,o),
(1134,814,o),
(985,900,o),
(811,948,o),
(720,948,qs),
(626,948,o),
(453,900,o),
(305,814,o),
(182,690,o),
(95,541,o),
(46,368,o),
(46,276,qs),
(46,183,o),
(95,9,o),
(182,-139,o),
(305,-262,o),
(453,-349,o),
(628,-397,o),
(720,-397,qs),
(813,-397,o),
(985,-349,o),
(1135,-262,o),
(1257,-139,o),
(1344,9,o),
(1393,183,o),
(1393,276,qs),
(1393,368,o)
);
},
{
closed = 1;
nodes = (
(685,29,o),
(692,40,qs),
(702,53,o),
(723,80,o),
(732,98,q),
(740,136,o),
(747,236,o),
(746,346,o),
(737,459,o),
(732,512,q),
(728,535,o),
(719,542,o),
(710,524,qs),
(704,513,o),
(694,494,o),
(683,474,o),
(671,451,o),
(665,435,q),
(668,397,o),
(675,309,o),
(680,208,o),
(681,98,o),
(677,40,qs),
(676,29,o)
);
}
);
width = 1469;
}
);
note = uniF500;
unicode = 62720;
},
{
glyphname = uniF501;
layers = (
{
.lastUpdate = 730757475.311;
layerId = m01;
shapes = (
{
closed = 1;
nodes = (
(1241,56,o),
(1168,-68,o),
(1066,-170,o),
(940,-243,o),
(796,-284,o),
(720,-284,qs),
(643,-284,o),
(500,-243,o),
(377,-170,o),
(274,-68,o),
(201,56,o),
(160,199,o),
(160,277,qs),
(160,352,o),
(201,496,o),
(274,622,o),
(377,724,o),
(500,797,o),
(643,836,o),
(722,836,qs),
(799,836,o),
(940,797,o),
(1067,724,o),
(1168,622,o),
(1241,496,o),
(1280,352,o),
(1280,277,qs),
(1280,199,o)
);
},
{
closed = 1;
nodes = (
(1344,541,o),
(1257,690,o),
(1134,814,o),
(985,900,o),
(811,948,o),
(720,948,qs),
(626,948,o),
(453,900,o),
(305,814,o),
(182,690,o),
(95,541,o),
(46,368,o),
(46,276,qs),
(46,183,o),
(95,9,o),
(182,-139,o),
(305,-262,o),
(453,-349,o),
(628,-397,o),
(720,-397,qs),
(813,-397,o),
(985,-349,o),
(1135,-262,o),
(1257,-139,o),
(1344,9,o),
(1393,183,o),
(1393,276,qs),
(1393,368,o)
);
},
{
closed = 1;
nodes = (
(637,28,o),
(644,40,qs),
(652,53,o),
(673,81,o),
(682,99,q),
(687,122,o),
(689,184,o),
(689,249,o),
(688,316,o),
(687,348,q),
(695,345,o),
(720,340,o),
(728,340,qs),
(764,340,o),
(814,374,o),
(847,426,o),
(866,486,o),
(871,512,qs),
(873,523,o),
(868,536,o),
(860,538,o),
(850,531,o),
(847,525,qs),
(839,506,o),
(814,481,o),
(787,465,o),
(758,460,o),
(744,460,qs),
(718,460,o),
(686,483,o),
(666,511,o),
(656,534,o),
(652,534,qs),
(650,534,o),
(633,511,o),
(613,479,o),
(593,446,o),
(587,433,q),
(600,359,o),
(628,157,o),
(629,39,qs),
(629,28,o)
);
}
);
width = 1469;
}
);
note = uniF501;
unicode = 62721;
},
{
glyphname = uniF502;
layers = (
{
.lastUpdate = 730757475.311;
layerId = m01;
shapes = (
{
closed = 1;
nodes = (
(1241,56,o),
(1168,-68,o),
(1066,-170,o),
(940,-243,o),
(796,-284,o),
(720,-284,qs),
(643,-284,o),
(500,-243,o),
(377,-170,o),
(274,-68,o),
(201,56,o),
(160,199,o),
(160,277,qs),
(160,352,o),
(201,496,o),
(274,622,o),
(377,724,o),
(500,797,o),
(643,836,o),
(722,836,qs),
(799,836,o),
(940,797,o),
(1067,724,o),
(1168,622,o),
(1241,496,o),
(1280,352,o),
(1280,277,qs),
(1280,199,o)
);
},
{
closed = 1;
nodes = (
(1344,541,o),
(1257,690,o),
(1134,814,o),
(985,900,o),
(811,948,o),
(720,948,qs),
(626,948,o),
(453,900,o),
(305,814,o),
(182,690,o),
(95,541,o),
(46,368,o),
(46,276,qs),
(46,183,o),
(95,9,o),
(182,-139,o),
(305,-262,o),
(453,-349,o),
(628,-397,o),
(720,-397,qs),
(813,-397,o),
(985,-349,o),
(1135,-262,o),
(1257,-139,o),
(1344,9,o),
(1393,183,o),
(1393,276,qs),
(1393,368,o)
);
},
{
closed = 1;
nodes = (
(568,29,o),
(574,40,qs),
(582,54,o),
(602,82,o),
(610,99,q),
(620,160,o),
(618,282,o),
(616,341,q),
(630,332,o),
(664,324,o),
(699,333,o),
(735,360,o),
(749,385,q),
(785,361,o),
(837,367,o),
(872,409,o),
(891,479,o),
(896,520,q),
(899,529,o),
(894,539,o),
(886,542,o),
(878,536,o),
(876,529,qs),
(868,500,o),
(835,469,o),
(801,467,o),
(770,493,o),
(766,521,q),
(764,528,o),
(756,535,o),
(749,522,qs),
(729,483,o),
(689,455,o),
(666,456,qs),
(639,457,o),
(610,484,o),
(594,515,o),
(587,541,o),
(583,541,qs),
(581,541,o),
(566,516,o),
(546,482,o),
(527,446,o),
(522,434,q),
(535,360,o),
(559,158,o),
(559,40,qs),
(559,29,o)
);
}
);
width = 1469;
}
);
note = uniF502;
unicode = 62722;
},
{
glyphname = uniF503;
layers = (
{
.lastUpdate = 730757475.311;
layerId = m01;
shapes = (
{
closed = 1;
nodes = (
(1241,56,o),
(1168,-68,o),
(1066,-170,o),
(940,-243,o),
(796,-284,o),
(720,-284,qs),
(643,-284,o),
(500,-243,o),
(377,-170,o),
(274,-68,o),
(201,56,o),
(160,199,o),
(160,277,qs),
(160,352,o),
(201,496,o),
(274,622,o),
(377,724,o),
(500,797,o),
(643,836,o),
(722,836,qs),
(799,836,o),
(940,797,o),
(1067,724,o),
(1168,622,o),
(1241,496,o),
(1280,352,o),
(1280,277,qs),
(1280,199,o)
);
},
{
closed = 1;
nodes = (
(1344,541,o),
(1257,690,o),
(1134,814,o),
(985,900,o),
(811,948,o),
(720,948,qs),
(626,948,o),
(453,900,o),
(305,814,o),
(182,690,o),
(95,541,o),
(46,368,o),
(46,276,qs),
(46,183,o),
(95,9,o),
(182,-139,o),
(305,-262,o),
(453,-349,o),
(628,-397,o),
(720,-397,qs),
(813,-397,o),
(985,-349,o),
(1135,-262,o),
(1257,-139,o),
(1344,9,o),
(1393,183,o),
(1393,276,qs),
(1393,368,o)
);
},
{
closed = 1;
nodes = (
(746,464,o),
(720,498,o),
(686,520,o),
(666,520,qs),
(630,520,o),
(580,471,o),
(550,396,o),
(537,306,o),
(537,265,qs),
(537,207,o),
(547,86,o),
(554,40,qs),
(555,28,o),
(560,34,qs),
(563,38,o),
(572,57,o),
(582,82,o),
(592,108,o),
(594,116,q),
(591,174,o),
(590,306,o),
(588,362,q),
(599,378,o),
(640,395,o),
(681,390,o),
(711,363,o),
(711,334,qs),
(711,332,o),
(709,304,o),
(702,282,qs),
(698,271,o),
(702,258,o),
(708,255,o),
(718,263,o),
(722,271,qs),
(735,301,o),
(764,340,o),
(797,372,o),
(835,402,o),
(859,420,q),
(862,430,o),
(869,461,o),
(877,493,o),
(884,522,o),
(886,530,q),
(881,535,o),
(876,535,q),
(814,496,o),
(764,407,q),
(762,425,o)
);
}
);
width = 1469;
}
);
note = uniF503;
unicode = 62723;
},
{
glyphname = uniF504;
layers = (
{
.lastUpdate = 730757475.311;
layerId = m01;
shapes = (
{
closed = 1;
nodes = (
(1241,56,o),
(1168,-68,o),
(1066,-170,o),
(940,-243,o),
(796,-284,o),
(720,-284,qs),
(643,-284,o),
(500,-243,o),
(377,-170,o),
(274,-68,o),
(201,56,o),
(160,199,o),
(160,277,qs),
(160,352,o),
(201,496,o),
(274,622,o),
(377,724,o),
(500,797,o),
(643,836,o),
(722,836,qs),
(799,836,o),
(940,797,o),
(1067,724,o),
(1168,622,o),
(1241,496,o),
(1280,352,o),
(1280,277,qs),
(1280,199,o)
);
},
{
closed = 1;
nodes = (
(1344,541,o),
(1257,690,o),
(1134,814,o),
(985,900,o),
(811,948,o),
(720,948,qs),
(626,948,o),
(453,900,o),
(305,814,o),
(182,690,o),
(95,541,o),
(46,368,o),
(46,276,qs),
(46,183,o),
(95,9,o),
(182,-139,o),
(305,-262,o),
(453,-349,o),
(628,-397,o),
(720,-397,qs),
(813,-397,o),
(985,-349,o),
(1135,-262,o),
(1257,-139,o),
(1344,9,o),
(1393,183,o),
(1393,276,qs),
(1393,368,o)
);
},
{
closed = 1;
nodes = (
(629,423,o),
(579,333,o),
(544,230,o),
(544,165,qs),
(544,108,o),
(577,46,o),
(610,46,qs),
(639,46,o),
(673,71,o),
(691,100,q),
(700,72,o),
(734,46,o),
(773,45,o),
(813,68,o),
(827,87,qs),
(834,97,o),
(851,148,o),
(868,207,o),
(880,261,o),
(882,275,qs),
(883,297,o),
(865,345,o),
(837,396,o),
(802,445,o),
(765,490,o),
(732,529,o),
(721,543,q),
(714,549,o),
(713,553,o),
(709,544,qs),
(686,503,o)
);
},
{
closed = 1;
nodes = (
(667,192,o),
(654,180,o),
(642,177,o),
(636,177,qs),
(593,177,o),
(593,229,qs),
(593,249,o),
(614,302,o),
(644,356,o),
(678,405,o),
(691,424,q),
(702,412,o),
(747,370,o),
(791,318,o),
(824,254,o),
(823,220,qs),
(821,195,o),
(789,171,o),
(768,172,q),
(750,175,o),
(722,206,o),
(720,231,q),
(715,243,o),
(704,244,o),
(694,229,qs),
(684,212,o)
);
}
);
width = 1469;
}
);
note = uniF504;
unicode = 62724;
},
{
glyphname = uniF505;
layers = (
{
.lastUpdate = 730757475.311;
layerId = m01;
shapes = (
{
closed = 1;
nodes = (
(1241,56,o),
(1168,-68,o),
(1066,-170,o),
(940,-243,o),
(796,-284,o),
(720,-284,qs),
(643,-284,o),
(500,-243,o),
(377,-170,o),
(274,-68,o),
(201,56,o),
(160,199,o),
(160,277,qs),
(160,352,o),
(201,496,o),
(274,622,o),
(377,724,o),
(500,797,o),
(643,836,o),
(722,836,qs),
(799,836,o),
(940,797,o),
(1067,724,o),
(1168,622,o),
(1241,496,o),
(1280,352,o),
(1280,277,qs),
(1280,199,o)
);
},
{
closed = 1;
nodes = (
(1344,541,o),
(1257,690,o),
(1134,814,o),
(985,900,o),
(811,948,o),
(720,948,qs),
(626,948,o),
(453,900,o),
(305,814,o),
(182,690,o),
(95,541,o),
(46,368,o),
(46,276,qs),
(46,183,o),
(95,9,o),
(182,-139,o),
(305,-262,o),
(453,-349,o),
(628,-397,o),
(720,-397,qs),
(813,-397,o),
(985,-349,o),
(1135,-262,o),
(1257,-139,o),
(1344,9,o),
(1393,183,o),
(1393,276,qs),
(1393,368,o)
);
},
{
closed = 1;
nodes = (
(829,359,o),
(842,433,q),
(837,445,o),
(817,479,o),
(796,511,o),
(779,534,o),
(777,534,qs),
(772,534,o),
(763,511,o),
(744,483,o),
(711,460,o),
(686,460,qs),
(672,460,o),
(642,465,o),
(615,481,o),
(590,506,o),
(582,525,qs),
(580,532,o),
(570,538,o),
(561,536,o),
(557,524,o),
(558,512,q),
(563,486,o),
(582,426,o),
(616,374,o),
(666,340,o),
(702,340,qs),
(710,340,o),
(735,345,o),
(742,348,q),
(742,316,o),
(740,249,o),
(740,184,o),
(743,122,o),
(747,99,q),
(756,81,o),
(777,53,o),
(785,40,qs),
(792,28,o),
(801,28,o),
(801,39,qs),
(802,157,o)
);
}
);
width = 1469;
}
);
note = uniF505;
unicode = 62725;
},
{
glyphname = uniF506;
layers = (
{
.lastUpdate = 730757475.311;
layerId = m01;
shapes = (
{
closed = 1;
nodes = (
(1241,56,o),
(1168,-68,o),
(1066,-170,o),
(940,-243,o),
(796,-284,o),
(720,-284,qs),
(643,-284,o),
(500,-243,o),
(377,-170,o),
(274,-68,o),
(201,56,o),
(160,199,o),
(160,277,qs),
(160,352,o),
(201,496,o),
(274,622,o),
(377,724,o),
(500,797,o),
(643,836,o),
(722,836,qs),
(799,836,o),
(940,797,o),
(1067,724,o),
(1168,622,o),
(1241,496,o),
(1280,352,o),
(1280,277,qs),
(1280,199,o)
);
},
{
closed = 1;
nodes = (
(1344,541,o),
(1257,690,o),
(1134,814,o),
(985,900,o),
(811,948,o),
(720,948,qs),
(626,948,o),
(453,900,o),
(305,814,o),
(182,690,o),
(95,541,o),
(46,368,o),
(46,276,qs),
(46,183,o),
(95,9,o),
(182,-139,o),
(305,-262,o),
(453,-349,o),
(628,-397,o),
(720,-397,qs),
(813,-397,o),
(985,-349,o),
(1135,-262,o),
(1257,-139,o),
(1344,9,o),
(1393,183,o),
(1393,276,qs),
(1393,368,o)
);
},
{
closed = 1;
nodes = (
(879,171,o),
(873,171,qs),
(813,167,o),
(686,163,o),
(609,164,q),
(623,187,o),
(670,249,o),
(726,317,o),
(790,386,o),
(821,418,q),
(822,427,o),
(826,454,o),
(829,484,o),
(833,512,o),
(835,521,q),
(833,522,o),
(830,522,q),
(808,501,o),
(747,441,o),
(682,368,o),
(619,285,o),
(569,200,o),
(538,114,o),
(538,76,qs),
(538,49,o),
(587,46,qs),
(611,45,o),
(660,45,o),
(724,47,o),
(806,52,o),
(864,56,qs),
(867,56,o),
(875,59,o),
(877,63,qs),
(884,76,o),
(894,120,o),
(901,151,qs),
(906,172,o),
(899,172,qs),
(892,172,o)
);
}
);
width = 1469;
}
);
note = uniF506;
unicode = 62726;
},
{
glyphname = uniF507;
layers = (
{
.lastUpdate = 730757475.311;
layerId = m01;
shapes = (
{
closed = 1;
nodes = (
(1241,56,o),
(1168,-68,o),
(1066,-170,o),
(940,-243,o),
(796,-284,o),
(720,-284,qs),
(643,-284,o),
(500,-243,o),
(377,-170,o),
(274,-68,o),
(201,56,o),
(160,199,o),
(160,277,qs),
(160,352,o),
(201,496,o),
(274,622,o),
(377,724,o),
(500,797,o),
(643,836,o),
(722,836,qs),
(799,836,o),
(940,797,o),
(1067,724,o),
(1168,622,o),
(1241,496,o),
(1280,352,o),
(1280,277,qs),
(1280,199,o)
);
},
{
closed = 1;
nodes = (
(1344,541,o),
(1257,690,o),
(1134,814,o),
(985,900,o),
(811,948,o),
(720,948,qs),
(626,948,o),
(453,900,o),
(305,814,o),
(182,690,o),
(95,541,o),
(46,368,o),
(46,276,qs),
(46,183,o),
(95,9,o),
(182,-139,o),
(305,-262,o),
(453,-349,o),
(628,-397,o),
(720,-397,qs),
(813,-397,o),
(985,-349,o),
(1135,-262,o),
(1257,-139,o),
(1344,9,o),
(1393,183,o),
(1393,276,qs),
(1393,368,o)
);
},
{
closed = 1;
nodes = (
(812,346,o),
(768,434,o),
(736,496,o),
(728,513,qs),
(715,538,o),
(697,534,o),
(683,504,qs),
(666,467,o),
(626,371,o),
(585,270,o),
(549,173,o),
(537,135,q),
(539,106,o),
(542,52,o),
(544,39,qs),
(544,34,o),
(552,33,o),
(554,39,qs),
(575,97,o),
(608,180,o),
(638,251,o),
(666,321,o),
(685,365,q),
(687,365,l),
(722,283,o),
(803,114,o),
(842,35,q),
(847,32,o),
(853,38,q),
(872,91,o),
(899,162,o),
(899,169,q),
(866,234,o)
);
}
);
width = 1469;
}
);
note = uniF507;
unicode = 62727;
},
{
glyphname = uniF508;
layers = (
{
.lastUpdate = 730757475.311;
layerId = m01;
shapes = (
{
closed = 1;
nodes = (
(1241,56,o),
(1168,-68,o),
(1066,-170,o),
(940,-243,o),
(796,-284,o),
(720,-284,qs),
(643,-284,o),
(500,-243,o),
(377,-170,o),
(274,-68,o),
(201,56,o),
(160,199,o),
(160,277,qs),
(160,352,o),
(201,496,o),
(274,622,o),
(377,724,o),
(500,797,o),
(643,836,o),
(722,836,qs),
(799,836,o),
(940,797,o),
(1067,724,o),
(1168,622,o),
(1241,496,o),
(1280,352,o),
(1280,277,qs),
(1280,199,o)
);
},
{
closed = 1;
nodes = (
(1344,541,o),
(1257,690,o),
(1134,814,o),
(985,900,o),
(811,948,o),
(720,948,qs),
(626,948,o),
(453,900,o),
(305,814,o),
(182,690,o),
(95,541,o),
(46,368,o),
(46,276,qs),
(46,183,o),
(95,9,o),
(182,-139,o),
(305,-262,o),
(453,-349,o),
(628,-397,o),
(720,-397,qs),
(813,-397,o),
(985,-349,o),
(1135,-262,o),
(1257,-139,o),
(1344,9,o),
(1393,183,o),
(1393,276,qs),
(1393,368,o)
);
},
{
closed = 1;
nodes = (
(756,31,o),
(763,42,q),
(766,49,o),
(778,68,o),
(791,89,o),
(801,110,o),
(803,117,q),
(810,160,o),
(817,277,o),
(817,335,qs),
(817,375,o),
(811,452,o),
(792,512,o),
(753,549,o),
(721,549,qs),
(689,549,o),
(644,507,o),
(616,443,o),
(602,369,o),
(602,335,qs),
(602,302,o),
(625,255,o),
(665,230,o),
(720,229,o),
(752,242,q),
(754,196,o),
(749,92,o),
(747,42,qs),
(747,31,o)
);
},
{
closed = 1;
nodes = (
(763,395,o),
(763,375,q),
(749,361,o),
(708,351,o),
(670,357,o),
(644,376,o),
(644,391,qs),
(644,396,o),
(652,410,o),
(667,423,o),
(688,432,o),
(700,432,qs),
(734,432,o)
);
},
{
closed = 1;
nodes = (
(716,-404,l)
);
}
);
width = 1469;
}
);
note = uniF508;
unicode = 62728;
},
{
glyphname = uniF509;
layers = (
{
.lastUpdate = 730757475.311;
layerId = m01;
shapes = (
{
closed = 1;
nodes = (
(1241,56,o),
(1168,-68,o),
(1066,-170,o),
(940,-243,o),
(796,-284,o),
(720,-284,qs),
(643,-284,o),
(500,-243,o),
(377,-170,o),
(274,-68,o),
(201,56,o),
(160,199,o),
(160,277,qs),
(160,352,o),
(201,496,o),
(274,622,o),
(377,724,o),
(500,797,o),
(643,836,o),
(722,836,qs),
(799,836,o),
(940,797,o),
(1067,724,o),
(1168,622,o),
(1241,496,o),
(1280,352,o),
(1280,277,qs),
(1280,199,o)
);
},
{
closed = 1;
nodes = (
(1344,541,o),
(1257,690,o),
(1134,814,o),
(985,900,o),
(811,948,o),
(720,948,qs),
(626,948,o),
(453,900,o),
(305,814,o),
(182,690,o),
(95,541,o),
(46,368,o),
(46,276,qs),
(46,183,o),
(95,9,o),
(182,-139,o),
(305,-262,o),
(453,-349,o),
(628,-397,o),
(720,-397,qs),
(813,-397,o),
(985,-349,o),
(1135,-262,o),
(1257,-139,o),
(1344,9,o),
(1393,183,o),
(1393,276,qs),
(1393,368,o)
);
},
{
closed = 1;
nodes = (
(819,211,q),
(830,207,o),
(833,209,q),
(904,314,l),
(903,318,o),
(902,319,q),
(842,354,o),
(803,398,q),
(800,398,l),
(751,331,o),
(726,292,q),
(726,287,l),
(782,230,o)
);
},
{
closed = 1;
nodes = (
(584,29,o),
(591,40,qs),
(600,53,o),
(621,80,o),
(630,98,q),
(639,136,o),
(645,236,o),
(644,346,o),
(636,459,o),
(630,512,qs),
(627,535,o),
(617,542,o),
(608,524,qs),
(603,513,o),
(593,494,o),
(581,474,o),
(569,451,o),
(563,435,q),
(567,397,o),
(574,309,o),
(579,208,o),
(580,98,o),
(576,40,qs),
(575,29,o)
);
}
);
width = 1469;
}
);
note = uniF509;
unicode = 62729;
},
{
glyphname = uniF50A;
layers = (
{
.lastUpdate = 730757475.311;
layerId = m01;
shapes = (
{
closed = 1;
nodes = (
(1241,56,o),
(1168,-68,o),
(1066,-170,o),
(940,-243,o),
(796,-284,o),
(720,-284,qs),
(643,-284,o),
(500,-243,o),
(377,-170,o),
(274,-68,o),
(201,56,o),
(160,199,o),
(160,277,qs),
(160,352,o),
(201,496,o),
(274,622,o),
(377,724,o),
(500,797,o),
(643,836,o),
(722,836,qs),
(799,836,o),
(940,797,o),
(1067,724,o),
(1168,622,o),
(1241,496,o),
(1280,352,o),
(1280,277,qs),
(1280,199,o)
);
},
{
closed = 1;
nodes = (
(1344,541,o),
(1257,690,o),
(1134,814,o),
(985,900,o),
(811,948,o),
(720,948,qs),
(626,948,o),
(453,900,o),
(305,814,o),
(182,690,o),
(95,541,o),
(46,368,o),
(46,276,qs),
(46,183,o),
(95,9,o),
(182,-139,o),
(305,-262,o),
(453,-349,o),
(628,-397,o),
(720,-397,qs),
(813,-397,o),
(985,-349,o),
(1135,-262,o),
(1257,-139,o),
(1344,9,o),
(1393,183,o),
(1393,276,qs),
(1393,368,o)
);
},
{
closed = 1;
nodes = (
(777,39,o),
(784,49,qs),
(793,62,o),
(815,90,o),
(824,107,q),
(832,146,o),
(839,245,o),
(838,355,o),
(829,468,o),
(824,521,q),
(820,544,o),
(811,551,o),
(802,534,qs),
(796,522,o),
(786,503,o),
(775,483,o),
(763,460,o),
(756,444,q),
(760,406,o),
(768,318,o),
(772,217,o),
(773,107,o),
(770,49,qs),
(769,39,o)
);
},
{
closed = 1;
nodes = (
(602,29,o),
(609,40,qs),
(618,53,o),
(640,80,o),
(649,98,q),
(657,136,o),
(664,236,o),
(663,346,o),
(654,459,o),
(649,512,q),
(645,535,o),
(636,542,o),
(627,524,qs),
(621,513,o),
(611,494,o),
(600,474,o),
(588,451,o),
(581,435,q),
(585,397,o),
(593,309,o),
(597,208,o),
(598,98,o),
(594,40,qs),
(594,29,o)
);
}
);
width = 1469;
}
);
note = uniF50A;
unicode = 62730;
},
{
glyphname = uniF50B;
layers = (
{
.lastUpdate = 730757475.311;
layerId = m01;
shapes = (
{
closed = 1;
nodes = (
(1241,56,o),
(1168,-68,o),
(1066,-170,o),
(940,-243,o),
(796,-284,o),
(720,-284,qs),
(643,-284,o),
(500,-243,o),
(377,-170,o),
(274,-68,o),
(201,56,o),
(160,199,o),
(160,277,qs),
(160,352,o),
(201,496,o),
(274,622,o),
(377,724,o),
(500,797,o),
(643,836,o),
(722,836,qs),
(799,836,o),
(940,797,o),
(1067,724,o),
(1168,622,o),
(1241,496,o),
(1280,352,o),
(1280,277,qs),
(1280,199,o)
);
},
{
closed = 1;
nodes = (
(1344,541,o),
(1257,690,o),
(1134,814,o),
(985,900,o),
(811,948,o),
(720,948,qs),
(626,948,o),
(453,900,o),
(305,814,o),
(182,690,o),
(95,541,o),
(46,368,o),
(46,276,qs),
(46,183,o),
(95,9,o),
(182,-139,o),
(305,-262,o),
(453,-349,o),
(628,-397,o),
(720,-397,qs),
(813,-397,o),
(985,-349,o),
(1135,-262,o),
(1257,-139,o),
(1344,9,o),
(1393,183,o),
(1393,276,qs),
(1393,368,o)
);
},
{
closed = 1;
nodes = (
(738,19,o),
(746,31,qs),
(754,43,o),
(774,72,o),
(783,90,q),
(788,113,o),
(791,174,o),
(791,239,o),
(789,307,o),
(788,339,q),
(796,335,o),
(821,331,o),
(829,331,qs),
(865,331,o),
(915,365,o),
(948,417,o),
(968,477,o),
(972,502,qs),
(974,514,o),
(969,527,o),
(961,529,o),
(951,522,o),
(948,516,qs),
(940,497,o),
(916,472,o),
(888,456,o),
(859,450,o),
(845,450,qs),
(819,450,o),
(787,474,o),
(768,501,o),
(757,524,o),
(753,524,qs),
(751,524,o),
(734,501,o),
(714,470,o),
(694,436,o),
(688,424,q),
(702,349,o),
(729,148,o),
(730,30,qs),
(730,19,o)
);
},
{
closed = 1;
nodes = (
(537,20,o),
(544,31,q),
(554,43,o),
(575,71,o),
(584,89,q),
(593,127,o),
(599,227,o),
(598,337,o),
(590,450,o),
(584,502,qs),
(580,525,o),
(571,533,o),
(562,515,qs),
(557,503,o),
(546,485,o),
(536,464,o),
(523,441,o),
(517,426,q),
(521,388,o),
(528,300,o),
(533,199,o),
(534,89,o),
(530,31,qs),
(529,20,o)
);
}
);
width = 1469;
}
);
note = uniF50B;
unicode = 62731;
},
{
glyphname = uniF50C;
layers = (
{
.lastUpdate = 730757475.311;
layerId = m01;
shapes = (
{
closed = 1;
nodes = (
(1241,56,o),
(1168,-68,o),
(1066,-170,o),
(940,-243,o),
(796,-284,o),
(720,-284,qs),
(643,-284,o),
(500,-243,o),
(377,-170,o),
(274,-68,o),
(201,56,o),
(160,199,o),
(160,277,qs),
(160,352,o),
(201,496,o),
(274,622,o),
(377,724,o),
(500,797,o),
(643,836,o),
(722,836,qs),
(799,836,o),
(940,797,o),
(1067,724,o),
(1168,622,o),
(1241,496,o),
(1280,352,o),
(1280,277,qs),
(1280,199,o)
);
},
{
closed = 1;
nodes = (
(1344,541,o),
(1257,690,o),
(1134,814,o),
(985,900,o),
(811,948,o),
(720,948,qs),
(626,948,o),
(453,900,o),
(305,814,o),
(182,690,o),
(95,541,o),
(46,368,o),
(46,276,qs),
(46,183,o),
(95,9,o),
(182,-139,o),
(305,-262,o),
(453,-349,o),
(628,-397,o),
(720,-397,qs),
(813,-397,o),
(985,-349,o),
(1135,-262,o),
(1257,-139,o),
(1344,9,o),
(1393,183,o),
(1393,276,qs),
(1393,368,o)
);
},
{
closed = 1;
nodes = (
(688,19,o),
(695,31,qs),
(703,43,o),
(723,72,o),
(731,90,q),
(741,150,o),
(739,272,o),
(737,331,q),
(750,322,o),
(784,314,o),
(820,323,o),
(856,350,o),
(870,375,q),
(906,351,o),
(958,357,o),
(993,399,o),
(1012,469,o),
(1017,510,qs),
(1019,519,o),
(1015,529,o),
(1006,532,o),
(998,525,o),
(996,519,qs),
(989,489,o),
(956,459,o),
(922,457,o),
(891,483,o),
(886,511,qs),
(885,518,o),
(877,525,o),
(870,512,qs),
(850,473,o),
(810,445,o),
(787,446,qs),
(760,447,o),
(731,474,o),
(715,505,o),
(708,531,o),
(704,531,qs),
(702,531,o),
(687,506,o),
(667,472,o),
(648,436,o),
(642,424,q),
(655,349,o),
(680,148,o),
(680,30,qs),
(680,19,o)
);
},
{
closed = 1;
nodes = (
(491,20,o),
(499,31,qs),
(508,43,o),
(529,71,o),
(538,89,q),
(546,127,o),
(553,227,o),
(552,337,o),
(544,450,o),
(538,502,qs),
(535,525,o),
(525,533,o),
(516,515,qs),
(511,503,o),
(500,485,o),
(489,464,o),
(477,441,o),
(471,426,q),
(475,388,o),
(482,300,o),
(486,199,o),
(487,89,o),
(484,31,qs),
(483,20,o)
);
}
);
width = 1469;
}
);
note = uniF50C;
unicode = 62732;
},
{
glyphname = uniF50D;
layers = (
{
.lastUpdate = 730757475.311;
layerId = m01;
shapes = (
{
closed = 1;
nodes = (
(1241,56,o),
(1168,-68,o),
(1066,-170,o),
(940,-243,o),
(796,-284,o),
(720,-284,qs),
(643,-284,o),
(500,-243,o),
(377,-170,o),
(274,-68,o),
(201,56,o),
(160,199,o),
(160,277,qs),
(160,352,o),
(201,496,o),
(274,622,o),
(377,724,o),
(500,797,o),
(643,836,o),
(722,836,qs),
(799,836,o),
(940,797,o),
(1067,724,o),
(1168,622,o),
(1241,496,o),
(1280,352,o),
(1280,277,qs),
(1280,199,o)
);
},
{
closed = 1;
nodes = (
(1344,541,o),
(1257,690,o),
(1134,814,o),
(985,900,o),
(811,948,o),
(720,948,qs),
(626,948,o),
(453,900,o),
(305,814,o),
(182,690,o),
(95,541,o),
(46,368,o),
(46,276,qs),
(46,183,o),
(95,9,o),
(182,-139,o),
(305,-262,o),
(453,-349,o),
(628,-397,o),
(720,-397,qs),
(813,-397,o),
(985,-349,o),
(1135,-262,o),
(1257,-139,o),
(1344,9,o),
(1393,183,o),
(1393,276,qs),
(1393,368,o)
);
},
{
closed = 1;
nodes = (
(875,461,o),
(849,494,o),
(814,516,o),
(795,516,qs),
(760,516,o),
(710,467,o),
(679,392,o),
(666,302,o),
(666,261,qs),
(666,203,o),
(676,83,o),
(683,36,qs),
(684,24,o),
(689,31,qs),
(692,34,o),
(702,54,o),
(711,78,o),
(721,104,o),
(723,112,q),
(720,171,o),
(719,302,o),
(717,359,q),
(728,374,o),
(770,391,o),
(810,386,o),
(840,359,o),
(840,331,qs),
(840,328,o),
(837,300,o),
(831,278,qs),
(828,267,o),
(830,254,o),
(837,252,o),
(847,259,o),
(850,267,qs),
(864,297,o),
(893,337,o),
(926,369,o),
(964,398,o),
(988,417,q),
(991,427,o),
(998,457,o),
(1005,489,o),
(1013,518,o),
(1015,526,q),
(1010,531,o),
(1004,531,q),
(943,492,o),
(893,404,q),
(891,421,o)
);
},
{
closed = 1;
nodes = (
(519,20,o),
(526,31,q),
(536,43,o),
(557,71,o),
(566,89,q),
(574,127,o),
(580,227,o),
(580,337,o),
(571,450,o),
(566,502,q),
(562,525,o),
(553,533,o),
(544,515,qs),
(538,503,o),
(528,485,o),
(517,464,o),
(505,441,o),
(499,426,q),
(502,388,o),
(510,300,o),
(514,199,o),
(515,89,o),
(512,31,qs),
(511,20,o)
);
}
);
width = 1469;
}
);
note = uniF50D;
unicode = 62733;
},
{
glyphname = uniF50E;
layers = (
{
.lastUpdate = 730757475.311;
layerId = m01;
shapes = (
{
closed = 1;
nodes = (
(1241,56,o),
(1168,-68,o),
(1066,-170,o),
(940,-243,o),
(796,-284,o),
(720,-284,qs),
(643,-284,o),
(500,-243,o),
(377,-170,o),
(274,-68,o),
(201,56,o),
(160,199,o),
(160,277,qs),
(160,352,o),
(201,496,o),
(274,622,o),
(377,724,o),
(500,797,o),
(643,836,o),
(722,836,qs),
(799,836,o),
(940,797,o),
(1067,724,o),
(1168,622,o),
(1241,496,o),
(1280,352,o),
(1280,277,qs),
(1280,199,o)
);
},
{
closed = 1;
nodes = (
(1344,541,o),
(1257,690,o),
(1134,814,o),
(985,900,o),
(811,948,o),
(720,948,qs),
(626,948,o),
(453,900,o),
(305,814,o),
(182,690,o),
(95,541,o),
(46,368,o),
(46,276,qs),
(46,183,o),
(95,9,o),
(182,-139,o),
(305,-262,o),
(453,-349,o),
(628,-397,o),
(720,-397,qs),
(813,-397,o),
(985,-349,o),
(1135,-262,o),
(1257,-139,o),
(1344,9,o),
(1393,183,o),
(1393,276,qs),
(1393,368,o)
);
},
{
closed = 1;
nodes = (
(721,423,o),
(671,333,o),
(637,230,o),
(637,165,qs),
(637,108,o),
(669,46,o),
(702,46,qs),
(731,46,o),
(765,71,o),
(783,100,q),
(792,72,o),
(827,46,o),
(865,45,o),
(905,68,o),
(919,87,qs),
(926,97,o),
(944,148,o),
(960,207,o),
(972,261,o),
(974,275,qs),
(975,297,o),
(958,345,o),
(929,396,o),
(894,445,o),
(857,490,o),
(824,529,o),
(813,543,q),
(806,549,o),
(806,553,o),
(801,544,qs),
(778,503,o)
);
},
{
closed = 1;
nodes = (
(760,192,o),
(747,180,o),
(734,177,o),
(728,177,qs),
(685,177,o),
(685,229,qs),
(685,249,o),
(706,302,o),
(736,356,o),
(770,405,o),
(783,424,q),
(794,412,o),
(839,370,o),
(883,318,o),
(916,254,o),
(915,220,qs),
(914,195,o),
(881,171,o),
(860,172,q),
(842,175,o),
(814,206,o),
(812,231,q),
(807,243,o),
(796,244,o),
(786,229,qs),
(776,212,o)
);
},
{
closed = 1;
nodes = (
(490,20,o),
(498,31,qs),
(507,43,o),
(528,71,o),
(537,89,q),
(545,127,o),
(552,227,o),
(551,337,o),
(543,450,o),
(537,502,qs),
(534,525,o),
(524,533,o),
(515,515,qs),
(510,503,o),
(500,485,o),
(488,464,o),
(476,441,o),
(470,426,q),
(474,388,o),
(481,300,o),
(486,199,o),
(486,89,o),
(483,31,qs),
(482,20,o)
);
}
);
width = 1469;
}
);
note = uniF50E;
unicode = 62734;
},
{
glyphname = uniF50F;
layers = (
{
.lastUpdate = 730757475.311;
layerId = m01;
shapes = (
{
closed = 1;
nodes = (
(1241,56,o),
(1168,-68,o),
(1066,-170,o),
(940,-243,o),
(796,-284,o),
(720,-284,qs),
(643,-284,o),
(500,-243,o),
(377,-170,o),
(274,-68,o),
(201,56,o),
(160,199,o),
(160,277,qs),
(160,352,o),
(201,496,o),
(274,622,o),
(377,724,o),
(500,797,o),
(643,836,o),
(722,836,qs),
(799,836,o),
(940,797,o),
(1067,724,o),
(1168,622,o),
(1241,496,o),
(1280,352,o),
(1280,277,qs),
(1280,199,o)
);
},
{
closed = 1;
nodes = (
(1344,541,o),
(1257,690,o),
(1134,814,o),
(985,900,o),
(811,948,o),
(720,948,qs),
(626,948,o),
(453,900,o),
(305,814,o),
(182,690,o),
(95,541,o),
(46,368,o),
(46,276,qs),
(46,183,o),
(95,9,o),
(182,-139,o),
(305,-262,o),
(453,-349,o),
(628,-397,o),
(720,-397,qs),
(813,-397,o),
(985,-349,o),
(1135,-262,o),
(1257,-139,o),
(1344,9,o),
(1393,183,o),
(1393,276,qs),
(1393,368,o)
);
},
{
closed = 1;
nodes = (
(943,349,o),
(956,424,q),
(950,436,o),
(930,470,o),
(909,501,o),
(893,524,o),
(890,524,qs),
(886,524,o),
(877,501,o),
(857,474,o),
(825,450,o),
(799,450,qs),
(785,450,o),
(756,456,o),
(728,472,o),
(704,497,o),
(696,516,qs),
(693,522,o),
(683,529,o),
(675,527,o),
(670,514,o),
(672,502,qs),
(676,477,o),
(696,417,o),
(729,365,o),
(778,331,o),
(814,331,qs),
(823,331,o),
(848,336,o),
(855,339,q),
(855,307,o),
(853,239,o),
(853,174,o),
(856,113,o),
(861,90,q),
(870,72,o),
(891,44,o),
(899,31,qs),
(906,19,o),
(914,19,o),
(914,30,qs),
(915,148,o)
);
},
{
closed = 1;
nodes = (
(538,20,o),
(545,31,q),
(555,43,o),
(576,71,o),
(585,89,q),
(594,127,o),
(600,227,o),
(599,337,o),
(590,450,o),
(585,502,q),
(581,525,o),
(572,533,o),
(563,515,qs),
(558,503,o),
(548,485,o),
(536,464,o),
(524,441,o),
(518,426,q),
(522,388,o),
(529,300,o),
(534,199,o),
(535,89,o),
(531,31,qs),
(530,20,o)
);
}
);
width = 1469;
}
);
note = uniF50F;
unicode = 62735;
},
{
glyphname = uniF510;
layers = (
{
.lastUpdate = 730757475.311;
layerId = m01;
shapes = (
{
closed = 1;
nodes = (
(1241,56,o),
(1168,-68,o),
(1066,-170,o),
(940,-243,o),
(796,-284,o),
(720,-284,qs),
(643,-284,o),
(500,-243,o),
(377,-170,o),
(274,-68,o),
(201,56,o),
(160,199,o),
(160,277,qs),
(160,352,o),
(201,496,o),
(274,622,o),
(377,724,o),
(500,797,o),
(643,836,o),
(722,836,qs),
(799,836,o),
(940,797,o),
(1067,724,o),
(1168,622,o),
(1241,496,o),
(1280,352,o),
(1280,277,qs),
(1280,199,o)
);
},
{
closed = 1;
nodes = (
(1344,541,o),
(1257,690,o),
(1134,814,o),
(985,900,o),
(811,948,o),
(720,948,qs),
(626,948,o),
(453,900,o),
(305,814,o),
(182,690,o),
(95,541,o),
(46,368,o),
(46,276,qs),
(46,183,o),
(95,9,o),
(182,-139,o),
(305,-262,o),
(453,-349,o),
(628,-397,o),
(720,-397,qs),
(813,-397,o),
(985,-349,o),
(1135,-262,o),
(1257,-139,o),
(1344,9,o),
(1393,183,o),
(1393,276,qs),
(1393,368,o)
);
},
{
closed = 1;
nodes = (
(1008,162,o),
(1002,161,q),
(942,158,o),
(814,154,o),
(738,155,q),
(752,178,o),
(799,239,o),
(855,308,o),
(918,377,o),
(950,408,q),
(951,418,o),
(955,445,o),
(958,475,o),
(962,503,o),
(964,512,q),
(962,513,o),
(959,513,q),
(937,492,o),
(877,431,o),
(811,359,o),
(748,275,o),
(698,191,o),
(667,105,o),
(667,66,qs),
(667,40,o),
(716,37,qs),
(740,36,o),
(789,36,o),
(852,38,o),
(936,42,o),
(993,47,qs),
(996,47,o),
(1004,50,o),
(1005,54,q),
(1013,66,o),
(1023,110,o),
(1030,142,qs),
(1035,163,o),
(1028,163,qs),
(1022,163,o)
);
},
{
closed = 1;
nodes = (
(537,20,o),
(544,31,q),
(554,43,o),
(575,71,o),
(584,89,q),
(593,127,o),
(599,227,o),
(598,337,o),
(590,450,o),
(584,502,qs),
(580,525,o),
(571,533,o),
(562,515,qs),
(557,503,o),
(546,485,o),
(536,464,o),
(523,441,o),
(517,426,q),
(521,388,o),
(528,300,o),
(533,199,o),
(534,89,o),
(530,31,qs),
(529,20,o)
);
}
);
width = 1469;
}
);
note = uniF510;
unicode = 62736;
},
{
glyphname = uniF511;
layers = (
{
.lastUpdate = 730757475.311;
layerId = m01;
shapes = (
{
closed = 1;
nodes = (
(1241,56,o),
(1168,-68,o),
(1066,-170,o),
(940,-243,o),
(796,-284,o),
(720,-284,qs),
(643,-284,o),
(500,-243,o),
(377,-170,o),
(274,-68,o),
(201,56,o),
(160,199,o),
(160,277,qs),
(160,352,o),
(201,496,o),
(274,622,o),
(377,724,o),
(500,797,o),
(643,836,o),
(722,836,qs),
(799,836,o),
(940,797,o),
(1067,724,o),
(1168,622,o),
(1241,496,o),
(1280,352,o),
(1280,277,qs),
(1280,199,o)
);
},
{
closed = 1;
nodes = (
(1344,541,o),
(1257,690,o),
(1134,814,o),
(985,900,o),
(811,948,o),
(720,948,qs),
(626,948,o),
(453,900,o),
(305,814,o),
(182,690,o),
(95,541,o),
(46,368,o),
(46,276,qs),
(46,183,o),
(95,9,o),
(182,-139,o),
(305,-262,o),
(453,-349,o),
(628,-397,o),
(720,-397,qs),
(813,-397,o),
(985,-349,o),
(1135,-262,o),
(1257,-139,o),
(1344,9,o),
(1393,183,o),
(1393,276,qs),
(1393,368,o)
);
},
{
closed = 1;
nodes = (
(922,335,o),
(878,424,o),
(847,486,o),
(839,502,qs),
(826,528,o),
(807,524,o),
(793,494,qs),
(777,457,o),
(736,361,o),
(696,260,o),
(660,163,o),
(648,126,q),
(650,96,o),
(652,41,o),
(654,28,qs),
(655,24,o),
(663,23,o),
(665,28,qs),
(686,87,o),
(719,171,o),
(748,241,o),
(777,310,o),
(795,355,q),
(797,355,l),
(832,273,o),
(914,104,o),
(952,25,q),
(958,21,o),
(964,27,q),
(982,81,o),
(1009,152,o),
(1009,158,q),
(977,224,o)
);
},
{
closed = 1;
nodes = (
(504,20,o),
(511,31,qs),
(520,43,o),
(541,71,o),
(550,89,q),
(558,127,o),
(565,227,o),
(564,337,o),
(556,450,o),
(550,502,qs),
(546,525,o),
(537,533,o),
(528,515,qs),
(522,503,o),
(513,485,o),
(501,464,o),
(489,441,o),
(483,426,q),
(486,388,o),
(494,300,o),
(499,199,o),
(500,89,o),
(496,31,qs),
(495,20,o)
);
}
);
width = 1469;
}
);
note = uniF511;
unicode = 62737;
},
{
glyphname = uniF512;
layers = (
{
.lastUpdate = 730757475.311;
layerId = m01;
shapes = (
{
closed = 1;
nodes = (
(1241,56,o),
(1168,-68,o),
(1066,-170,o),
(940,-243,o),
(796,-284,o),
(720,-284,qs),
(643,-284,o),
(500,-243,o),
(377,-170,o),
(274,-68,o),
(201,56,o),
(160,199,o),
(160,277,qs),
(160,352,o),
(201,496,o),
(274,622,o),
(377,724,o),
(500,797,o),
(643,836,o),
(722,836,qs),
(799,836,o),
(940,797,o),
(1067,724,o),
(1168,622,o),
(1241,496,o),
(1280,352,o),
(1280,277,qs),
(1280,199,o)
);
},
{
closed = 1;
nodes = (
(1344,541,o),
(1257,690,o),
(1134,814,o),
(985,900,o),
(811,948,o),
(720,948,qs),
(626,948,o),
(453,900,o),
(305,814,o),
(182,690,o),
(95,541,o),
(46,368,o),
(46,276,qs),
(46,183,o),
(95,9,o),
(182,-139,o),
(305,-262,o),
(453,-349,o),
(628,-397,o),
(720,-397,qs),
(813,-397,o),
(985,-349,o),
(1135,-262,o),
(1257,-139,o),
(1344,9,o),
(1393,183,o),
(1393,276,qs),
(1393,368,o)
);
},
{
closed = 1;
nodes = (
(852,18,o),
(859,30,qs),
(862,36,o),
(874,55,o),
(886,76,o),
(897,97,o),
(899,104,q),
(906,148,o),
(913,265,o),
(913,323,qs),
(913,362,o),
(907,439,o),
(887,499,o),
(849,536,o),
(817,536,qs),
(785,536,o),
(740,494,o),
(711,430,o),
(698,356,o),
(698,289,o),
(721,243,o),
(760,217,o),
(815,216,o),
(848,229,q),
(850,184,o),
(845,80,o),
(843,30,qs),
(842,18,o)
);
},
{
closed = 1;
nodes = (
(859,382,o),
(859,362,q),
(845,348,o),
(804,338,o),
(766,344,o),
(739,363,o),
(739,378,qs),
(739,383,o),
(748,397,o),
(763,410,o),
(784,419,o),
(796,419,qs),
(829,419,o)
);
},
{
closed = 1;
nodes = (
(556,20,o),
(563,31,qs),
(572,43,o),
(594,71,o),
(603,89,q),
(611,127,o),
(617,227,o),
(616,337,o),
(608,450,o),
(603,502,q),
(599,525,o),
(590,533,o),
(580,515,qs),
(575,503,o),
(565,485,o),
(554,464,o),
(542,441,o),
(536,426,q),
(539,388,o),
(546,300,o),
(551,199,o),
(552,89,o),
(549,31,qs),
(548,20,o)
);
}
);
width = 1469;
}
);
note = uniF512;
unicode = 62738;
},
{
glyphname = uniF513;
layers = (
{
.lastUpdate = 730757475.311;
layerId = m01;
shapes = (
{
closed = 1;
nodes = (
(1241,56,o),
(1168,-68,o),
(1066,-170,o),
(940,-243,o),
(796,-284,o),
(720,-284,qs),
(643,-284,o),
(500,-243,o),
(377,-170,o),
(274,-68,o),
(201,56,o),
(160,199,o),
(160,277,qs),
(160,352,o),
(201,496,o),
(274,622,o),
(377,724,o),
(500,797,o),
(643,836,o),
(722,836,qs),
(799,836,o),
(940,797,o),
(1067,724,o),
(1168,622,o),
(1241,496,o),
(1280,352,o),
(1280,277,qs),
(1280,199,o)
);
},
{
closed = 1;
nodes = (
(1344,541,o),
(1257,690,o),
(1134,814,o),
(985,900,o),
(811,948,o),
(720,948,qs),
(626,948,o),
(453,900,o),
(305,814,o),
(182,690,o),
(95,541,o),
(46,368,o),
(46,276,qs),
(46,183,o),
(95,9,o),
(182,-139,o),
(305,-262,o),
(453,-349,o),
(628,-397,o),
(720,-397,qs),
(813,-397,o),
(985,-349,o),
(1135,-262,o),
(1257,-139,o),
(1344,9,o),
(1393,183,o),
(1393,276,qs),
(1393,368,o)
);
},
{
closed = 1;
nodes = (
(875,154,q),
(886,150,o),
(888,152,q),
(959,257,l),
(958,261,o),
(958,262,q),
(898,297,o),
(858,341,q),
(855,341,l),
(806,274,o),
(782,235,q),
(782,230,l),
(837,172,o)
);
},
{
closed = 1;
nodes = (
(554,19,o),
(561,31,qs),
(570,43,o),
(590,72,o),
(599,90,q),
(603,113,o),
(607,174,o),
(607,239,o),
(604,307,o),
(603,339,q),
(612,335,o),
(637,331,o),
(645,331,qs),
(681,331,o),
(731,365,o),
(764,417,o),
(783,477,o),
(788,502,qs),
(790,514,o),
(785,527,o),
(777,529,o),
(767,522,o),
(764,516,qs),
(756,497,o),
(732,472,o),
(704,456,o),
(675,450,o),
(661,450,qs),
(635,450,o),
(603,474,o),
(583,501,o),
(573,524,o),
(569,524,qs),
(567,524,o),
(550,501,o),
(530,470,o),
(509,436,o),
(504,424,q),
(517,349,o),
(544,148,o),
(545,30,qs),
(545,19,o)
);
}
);
width = 1469;
}
);
note = uniF513;
unicode = 62739;
},
{
glyphname = uniF514;
layers = (
{
.lastUpdate = 730757475.311;
layerId = m01;
shapes = (
{
closed = 1;
nodes = (
(1241,56,o),
(1168,-68,o),
(1066,-170,o),
(940,-243,o),
(796,-284,o),
(720,-284,qs),
(643,-284,o),
(500,-243,o),
(377,-170,o),
(274,-68,o),
(201,56,o),
(160,199,o),
(160,277,qs),
(160,352,o),
(201,496,o),
(274,622,o),
(377,724,o),
(500,797,o),
(643,836,o),
(722,836,qs),
(799,836,o),
(940,797,o),
(1067,724,o),
(1168,622,o),
(1241,496,o),
(1280,352,o),
(1280,277,qs),
(1280,199,o)
);
},
{
closed = 1;
nodes = (
(1344,541,o),
(1257,690,o),
(1134,814,o),
(985,900,o),
(811,948,o),
(720,948,qs),
(626,948,o),
(453,900,o),
(305,814,o),
(182,690,o),
(95,541,o),
(46,368,o),
(46,276,qs),
(46,183,o),
(95,9,o),
(182,-139,o),
(305,-262,o),
(453,-349,o),
(628,-397,o),
(720,-397,qs),
(813,-397,o),
(985,-349,o),
(1135,-262,o),
(1257,-139,o),
(1344,9,o),
(1393,183,o),
(1393,276,qs),
(1393,368,o)
);
},
{
closed = 1;
nodes = (
(867,18,o),
(874,28,qs),
(883,41,o),
(904,69,o),
(914,87,q),
(922,126,o),
(928,225,o),
(927,334,o),
(919,448,o),
(914,500,q),
(909,523,o),
(900,531,o),
(891,513,qs),
(886,501,o),
(876,483,o),
(864,463,o),
(852,440,o),
(846,424,q),
(850,386,o),
(857,298,o),
(862,197,o),
(863,86,o),
(859,28,qs),
(858,18,o)
);
},
{
closed = 1;
nodes = (
(545,19,o),
(552,31,qs),
(560,43,o),
(581,72,o),
(590,90,q),
(594,113,o),
(597,174,o),
(597,239,o),
(595,307,o),
(594,339,q),
(603,335,o),
(628,331,o),
(636,331,qs),
(672,331,o),
(722,365,o),
(755,417,o),
(774,477,o),
(779,502,qs),
(781,514,o),
(776,527,o),
(768,529,o),
(757,522,o),
(755,516,qs),
(747,497,o),
(723,472,o),
(695,456,o),
(666,450,o),
(652,450,qs),
(626,450,o),
(594,474,o),
(574,501,o),
(564,524,o),
(559,524,qs),
(558,524,o),
(541,501,o),
(521,470,o),
(500,436,o),
(495,424,q),
(508,349,o),
(536,148,o),
(536,30,qs),
(536,19,o)
);
}
);
width = 1469;
}
);
note = uniF514;
unicode = 62740;
},
{
glyphname = uniF515;
layers = (
{
.lastUpdate = 730757475.311;
layerId = m01;
shapes = (
{
closed = 1;
nodes = (
(1241,56,o),
(1168,-68,o),
(1066,-170,o),
(940,-243,o),
(796,-284,o),
(720,-284,qs),
(643,-284,o),
(500,-243,o),
(377,-170,o),
(274,-68,o),
(201,56,o),
(160,199,o),
(160,277,qs),
(160,352,o),
(201,496,o),
(274,622,o),
(377,724,o),
(500,797,o),
(643,836,o),
(722,836,qs),
(799,836,o),
(940,797,o),
(1067,724,o),
(1168,622,o),
(1241,496,o),
(1280,352,o),
(1280,277,qs),
(1280,199,o)
);
},
{
closed = 1;
nodes = (
(1344,541,o),
(1257,690,o),
(1134,814,o),
(985,900,o),
(811,948,o),
(720,948,qs),
(626,948,o),
(453,900,o),
(305,814,o),
(182,690,o),
(95,541,o),
(46,368,o),
(46,276,qs),
(46,183,o),
(95,9,o),
(182,-139,o),
(305,-262,o),
(453,-349,o),
(628,-397,o),
(720,-397,qs),
(813,-397,o),
(985,-349,o),
(1135,-262,o),
(1257,-139,o),
(1344,9,o),
(1393,183,o),
(1393,276,qs),
(1393,368,o)
);
},
{
closed = 1;
nodes = (
(803,19,o),
(810,31,qs),
(819,43,o),
(839,72,o),
(848,90,q),
(852,113,o),
(855,174,o),
(855,239,o),
(853,307,o),
(852,339,q),
(861,335,o),
(886,331,o),
(894,331,qs),
(930,331,o),
(980,365,o),
(1013,417,o),
(1032,477,o),
(1037,502,qs),
(1039,514,o),
(1034,527,o),
(1026,529,o),
(1016,522,o),
(1013,516,qs),
(1004,497,o),
(981,472,o),
(953,456,o),
(923,450,o),
(909,450,qs),
(884,450,o),
(851,474,o),
(832,501,o),
(822,524,o),
(818,524,qs),
(815,524,o),
(799,501,o),
(779,470,o),
(758,436,o),
(753,424,q),
(766,349,o),
(793,148,o),
(794,30,qs),
(794,19,o)
);
},
{
closed = 1;
nodes = (
(462,19,o),
(469,31,qs),
(477,43,o),
(498,72,o),
(507,90,q),
(512,113,o),
(514,174,o),
(514,239,o),
(513,307,o),
(512,339,q),
(520,335,o),
(545,331,o),
(553,331,qs),
(589,331,o),
(639,365,o),
(672,417,o),
(691,477,o),
(696,502,qs),
(698,514,o),
(693,527,o),
(685,529,o),
(675,522,o),
(672,516,qs),
(664,497,o),
(639,472,o),
(612,456,o),
(583,450,o),
(569,450,qs),
(543,450,o),
(511,474,o),
(491,501,o),
(481,524,o),
(477,524,qs),
(475,524,o),
(458,501,o),
(438,470,o),
(417,436,o),
(412,424,q),
(425,349,o),
(453,148,o),
(454,30,qs),
(454,19,o)
);
}
);
width = 1469;
}
);
note = uniF515;
unicode = 62741;
},
{
glyphname = uniF516;
layers = (
{
.lastUpdate = 730757475.311;
layerId = m01;
shapes = (
{
closed = 1;
nodes = (
(1241,56,o),
(1168,-68,o),
(1066,-170,o),
(940,-243,o),
(796,-284,o),
(720,-284,qs),
(643,-284,o),
(500,-243,o),
(377,-170,o),
(274,-68,o),
(201,56,o),
(160,199,o),
(160,277,qs),
(160,352,o),
(201,496,o),
(274,622,o),
(377,724,o),
(500,797,o),
(643,836,o),
(722,836,qs),
(799,836,o),
(940,797,o),
(1067,724,o),
(1168,622,o),
(1241,496,o),
(1280,352,o),
(1280,277,qs),
(1280,199,o)
);
},
{
closed = 1;
nodes = (
(1344,541,o),
(1257,690,o),
(1134,814,o),
(985,900,o),
(811,948,o),
(720,948,qs),
(626,948,o),
(453,900,o),
(305,814,o),
(182,690,o),
(95,541,o),
(46,368,o),
(46,276,qs),
(46,183,o),
(95,9,o),
(182,-139,o),
(305,-262,o),
(453,-349,o),
(628,-397,o),
(720,-397,qs),
(813,-397,o),
(985,-349,o),
(1135,-262,o),
(1257,-139,o),
(1344,9,o),
(1393,183,o),
(1393,276,qs),
(1393,368,o)
);
},
{
closed = 1;
nodes = (
(757,19,o),
(763,31,qs),
(771,43,o),
(791,72,o),
(799,90,q),
(809,150,o),
(807,272,o),
(806,331,q),
(819,322,o),
(852,314,o),
(888,323,o),
(924,350,o),
(938,375,q),
(974,351,o),
(1026,357,o),
(1061,399,o),
(1080,469,o),
(1084,510,q),
(1088,519,o),
(1083,529,o),
(1075,532,o),
(1066,525,o),
(1064,519,qs),
(1057,489,o),
(1024,459,o),
(990,457,o),
(959,483,o),
(955,511,q),
(953,518,o),
(945,525,o),
(938,512,qs),
(918,473,o),
(878,445,o),
(855,446,qs),
(828,447,o),
(799,474,o),
(783,505,o),
(776,531,o),
(772,531,qs),
(770,531,o),
(755,506,o),
(735,472,o),
(716,436,o),
(711,424,q),
(724,349,o),
(748,148,o),
(748,30,qs),
(748,19,o)
);
},
{
closed = 1;
nodes = (
(407,19,o),
(414,31,qs),
(422,43,o),
(443,72,o),
(452,90,q),
(456,113,o),
(459,174,o),
(459,239,o),
(457,307,o),
(456,339,q),
(464,335,o),
(490,331,o),
(498,331,qs),
(534,331,o),
(583,365,o),
(616,417,o),
(636,477,o),
(640,502,qs),
(642,514,o),
(638,527,o),
(630,529,o),
(619,522,o),
(616,516,qs),
(608,497,o),
(584,472,o),
(557,456,o),
(527,450,o),
(513,450,qs),
(487,450,o),
(455,474,o),
(436,501,o),
(426,524,o),
(421,524,qs),
(419,524,o),
(403,501,o),
(382,470,o),
(362,436,o),
(357,424,q),
(369,349,o),
(397,148,o),
(398,30,qs),
(398,19,o)
);
}
);
width = 1469;
}
);
note = uniF516;
unicode = 62742;
},
{
glyphname = uniF517;
layers = (
{
.lastUpdate = 730757475.311;
layerId = m01;
shapes = (
{
closed = 1;
nodes = (
(1241,56,o),
(1168,-68,o),
(1066,-170,o),
(940,-243,o),
(796,-284,o),
(720,-284,qs),
(643,-284,o),
(500,-243,o),
(377,-170,o),
(274,-68,o),
(201,56,o),
(160,199,o),
(160,277,qs),
(160,352,o),
(201,496,o),
(274,622,o),
(377,724,o),
(500,797,o),
(643,836,o),
(722,836,qs),
(799,836,o),
(940,797,o),
(1067,724,o),
(1168,622,o),
(1241,496,o),
(1280,352,o),
(1280,277,qs),
(1280,199,o)
);
},
{
closed = 1;
nodes = (
(1344,541,o),
(1257,690,o),
(1134,814,o),
(985,900,o),
(811,948,o),
(720,948,qs),
(626,948,o),
(453,900,o),
(305,814,o),
(182,690,o),
(95,541,o),
(46,368,o),
(46,276,qs),
(46,183,o),
(95,9,o),
(182,-139,o),
(305,-262,o),
(453,-349,o),
(628,-397,o),
(720,-397,qs),
(813,-397,o),
(985,-349,o),
(1135,-262,o),
(1257,-139,o),
(1344,9,o),
(1393,183,o),
(1393,276,qs),
(1393,368,o)
);
},
{
closed = 1;
nodes = (
(944,455,o),
(918,488,o),
(884,511,o),
(864,511,qs),
(828,511,o),
(779,462,o),
(748,387,o),
(735,297,o),
(735,255,qs),
(735,197,o),
(745,77,o),
(752,31,qs),
(753,18,o),
(759,25,qs),
(761,28,o),
(770,48,o),
(781,73,o),
(790,99,o),
(792,107,q),
(789,165,o),
(788,297,o),
(786,353,q),
(797,369,o),
(839,385,o),
(879,381,o),
(909,354,o),
(909,325,qs),
(909,323,o),
(907,295,o),
(900,273,qs),
(897,262,o),
(900,249,o),
(906,246,o),
(916,254,o),
(920,262,qs),
(934,291,o),
(962,331,o),
(995,363,o),
(1033,392,o),
(1057,411,q),
(1060,421,o),
(1067,452,o),
(1075,484,o),
(1082,513,o),
(1084,521,q),
(1079,525,o),
(1074,525,q),
(1012,487,o),
(962,398,q),
(960,416,o)
);
},
{
closed = 1;
nodes = (
(462,19,o),
(469,31,qs),
(477,43,o),
(498,72,o),
(507,90,q),
(512,113,o),
(514,174,o),
(514,239,o),
(513,307,o),
(512,339,q),
(520,335,o),
(545,331,o),
(553,331,qs),
(589,331,o),
(639,365,o),
(672,417,o),
(691,477,o),
(696,502,qs),
(698,514,o),
(693,527,o),
(685,529,o),
(675,522,o),
(672,516,qs),
(664,497,o),
(639,472,o),
(612,456,o),
(583,450,o),
(569,450,qs),
(543,450,o),
(511,474,o),
(491,501,o),
(481,524,o),
(477,524,qs),
(475,524,o),
(458,501,o),
(438,470,o),
(417,436,o),
(412,424,q),
(425,349,o),
(453,148,o),
(454,30,qs),
(454,19,o)
);
}
);
width = 1469;
}
);
note = uniF517;
unicode = 62743;
},
{
glyphname = uniF518;
layers = (
{
.lastUpdate = 730757475.311;
layerId = m01;
shapes = (
{
closed = 1;
nodes = (
(1241,56,o),
(1168,-68,o),
(1066,-170,o),
(940,-243,o),
(796,-284,o),
(720,-284,qs),
(643,-284,o),
(500,-243,o),
(377,-170,o),
(274,-68,o),
(201,56,o),
(160,199,o),
(160,277,qs),
(160,352,o),
(201,496,o),
(274,622,o),
(377,724,o),
(500,797,o),
(643,836,o),
(722,836,qs),
(799,836,o),
(940,797,o),
(1067,724,o),
(1168,622,o),
(1241,496,o),
(1280,352,o),
(1280,277,qs),
(1280,199,o)
);
},
{
closed = 1;
nodes = (
(1344,541,o),
(1257,690,o),
(1134,814,o),
(985,900,o),
(811,948,o),
(720,948,qs),
(626,948,o),
(453,900,o),
(305,814,o),
(182,690,o),
(95,541,o),
(46,368,o),
(46,276,qs),
(46,183,o),
(95,9,o),
(182,-139,o),
(305,-262,o),
(453,-349,o),
(628,-397,o),
(720,-397,qs),
(813,-397,o),
(985,-349,o),
(1135,-262,o),
(1257,-139,o),
(1344,9,o),
(1393,183,o),
(1393,276,qs),
(1393,368,o)
);
},
{
closed = 1;
nodes = (
(794,405,o),
(745,315,o),
(711,211,o),
(711,147,qs),
(711,90,o),
(742,27,o),
(776,27,qs),
(805,27,o),
(839,52,o),
(857,82,q),
(866,54,o),
(900,27,o),
(939,27,o),
(979,49,o),
(993,68,qs),
(1000,78,o),
(1017,130,o),
(1034,188,o),
(1046,243,o),
(1048,257,qs),
(1049,278,o),
(1031,326,o),
(1003,377,o),
(968,427,o),
(931,472,o),
(898,510,o),
(886,524,qs),
(880,531,o),
(879,534,o),
(875,525,q),
(852,485,o)
);
},
{
closed = 1;
nodes = (
(833,173,o),
(820,162,o),
(808,158,o),
(802,158,qs),
(759,158,o),
(759,210,qs),
(759,230,o),
(780,284,o),
(810,338,o),
(844,387,o),
(857,405,q),
(868,393,o),
(913,352,o),
(957,300,o),
(990,236,o),
(989,202,qs),
(987,177,o),
(955,152,o),
(934,154,qs),
(916,157,o),
(888,187,o),
(886,213,q),
(881,225,o),
(870,226,o),
(860,210,qs),
(850,194,o)
);
},
{
closed = 1;
nodes = (
(471,19,o),
(478,31,qs),
(486,43,o),
(507,72,o),
(516,90,q),
(521,113,o),
(523,174,o),
(523,239,o),
(522,307,o),
(521,339,q),
(529,335,o),
(554,331,o),
(562,331,qs),
(598,331,o),
(648,365,o),
(681,417,o),
(701,477,o),
(705,502,qs),
(707,514,o),
(702,527,o),
(694,529,o),
(684,522,o),
(681,516,qs),
(673,497,o),
(649,472,o),
(621,456,o),
(592,450,o),
(578,450,qs),
(552,450,o),
(520,474,o),
(500,501,o),
(490,524,o),
(486,524,qs),
(484,524,o),
(467,501,o),
(447,470,o),
(427,436,o),
(421,424,q),
(434,349,o),
(462,148,o),
(463,30,qs),
(463,19,o)
);
}
);
width = 1469;
}
);
note = uniF518;
unicode = 62744;
},
